<?xml version="1.0" standalone="yes"?>

<svg version="1.1" viewBox="0.0 0.0 1421.981627296588 667.2204724409448" fill="none" stroke="none" stroke-linecap="square" stroke-miterlimit="10" xmlns="http://www.w3.org/2000/svg" xmlns:xlink="http://www.w3.org/1999/xlink"><clipPath id="p.0"><path d="m0 0l1421.9816 0l0 667.22046l-1421.9816 0l0 -667.22046z" clip-rule="nonzero"></path></clipPath><g clip-path="url(#p.0)"><path fill="#000000" fill-opacity="0.0" d="m0 0l1421.9816 0l0 667.22046l-1421.9816 0z" fill-rule="nonzero"></path><path fill="#d9ead3" d="m31.40195 54.615463l0 0c0 -21.691307 18.754684 -39.27559 41.889767 -39.27559l0 0c23.135078 0 41.889763 17.584282 41.889763 39.27559l0 0c0 21.691307 -18.754684 39.27559 -41.889763 39.27559l0 0c-23.135082 0 -41.889767 -17.584282 -41.889767 -39.27559z" fill-rule="nonzero"></path><path stroke="#000000" stroke-width="4.0" stroke-linejoin="round" stroke-linecap="butt" d="m31.40195 54.615463l0 0c0 -21.691307 18.754684 -39.27559 41.889767 -39.27559l0 0c23.135078 0 41.889763 17.584282 41.889763 39.27559l0 0c0 21.691307 -18.754684 39.27559 -41.889763 39.27559l0 0c-23.135082 0 -41.889767 -17.584282 -41.889767 -39.27559z" fill-rule="nonzero"></path><path fill="#000000" d="m64.66281 61.68671l4.078125 -5.1875l-3.96875 -5.125l-1.3750038 -0.296875l0 -1.25l6.203129 0l0 1.25l-1.609375 0.296875l2.0625 2.890625l0.6875 1.046875l0.59375 -1.046875l2.15625 -2.890625l-1.71875 -0.296875l0 -1.25l5.171875 0l0 1.25l-1.46875 0.296875l-3.859375 4.828125l4.15625 5.5l1.359375 0.203125l0 1.25l-6.234375 0l0 -1.25l1.53125 -0.21875l-2.84375 -4.171875l-0.609375 1.046875l-2.15625 3.109375l1.921875 0.234375l0 1.25l-5.671879 0l0 -1.25l1.5937538 -0.21875z" fill-rule="nonzero"></path><path fill="#000000" d="m77.70187 64.38984l0 -0.7500038q0.21875 -0.046875 0.5 -0.140625q0.28125 -0.109375 0.375 -0.171875q0.25 -0.1875 0.421875 -0.609375q0.109375 -0.265625 0.296875 -0.84375q0.203125 -0.578125 0.265625 -0.875l1.015625 0l0.015625 2.265625l2.625 0l0 1.1250038l-2.609375 0l0 4.71875q0 0.953125 0.046875 1.328125q0.0625 0.375 0.21875 0.484375q0.171875 0.09375 0.625 0.09375l0 0q0.40625 0 0.921875 -0.09375q0.515625 -0.109375 0.796875 -0.21875l0 0l0.265625 0.765625q-0.234375 0.1875 -0.703125 0.390625q-0.46875 0.203125 -1.015625 0.328125q-0.53125 0.140625 -0.984375 0.140625l-0.015625 0q-0.96875 0 -1.46875 -0.421875q-0.484375 -0.4375 -0.484375 -1.4375l0 -6.078125l-1.109375 0z" fill-rule="nonzero"></path><path fill="#c9daf8" d="m176.02594 192.29535l0 0c0 -23.700409 18.7547 -42.91339 41.88977 -42.91339l0 0c11.109863 0 21.764679 4.521225 29.62053 12.569046c7.8558655 8.047821 12.269241 18.963013 12.269241 30.344345l0 0c0 23.700409 -18.7547 42.91339 -41.88977 42.91339l0 0c-23.13507 0 -41.88977 -19.212982 -41.88977 -42.91339z" fill-rule="nonzero"></path><path stroke="#000000" stroke-width="4.0" stroke-linejoin="round" stroke-linecap="butt" d="m176.02594 192.29535l0 0c0 -23.700409 18.7547 -42.91339 41.88977 -42.91339l0 0c11.109863 0 21.764679 4.521225 29.62053 12.569046c7.8558655 8.047821 12.269241 18.963013 12.269241 30.344345l0 0c0 23.700409 -18.7547 42.91339 -41.88977 42.91339l0 0c-23.13507 0 -41.88977 -19.212982 -41.88977 -42.91339z" fill-rule="nonzero"></path><path fill="#000000" d="m200.65399 184.30411l0 -1.3125l6.546875 0l0 1.3125l-2.140625 0.3125l3.265625 11.078125l0.609375 3.1875l0.71875 -3.1875l2.6875 -9.03125l-0.65625 -2.0625l-1.65625 -0.296875l0 -1.3125l6.78125 0l0 1.3125l-2.25 0.296875l3.203125 11.09375l0.71875 3.453125l0.625 -3.453125l3.046875 -11.078125l-2.359375 -0.3125l0 -1.3125l5.828125 0l0 1.3125l-1.546875 0.3125l-4.84375 16.34375l-2.53125 0l-3.546875 -11.6875l-3.453125 11.6875l-2.40625 0l-5.0625 -16.34375l-1.578125 -0.3125z" fill-rule="nonzero"></path><path fill="#000000" d="m226.33368 208.85098l2.703125 -3.453125l-2.640625 -3.421875l-0.921875 -0.203125l0 -0.828125l4.140625 0l0 0.828125l-1.078125 0.203125l1.375 1.921875l0.46875 0.703125l0.390625 -0.6875l1.4375 -1.9375l-1.140625 -0.203125l0 -0.828125l3.4375 0l0 0.828125l-0.96875 0.203125l-2.578125 3.21875l2.765625 3.671875l0.921875 0.140625l0 0.828125l-4.171875 0l0 -0.828125l1.03125 -0.15625l-1.90625 -2.78125l-0.390625 0.703125l-1.453125 2.078125l1.296875 0.15625l0 0.828125l-3.796875 0l0 -0.828125l1.078125 -0.15625z" fill-rule="nonzero"></path><path fill="#f4cccc" d="m357.72153 121.65847l0 0c0 -15.333511 13.248138 -27.763779 29.590546 -27.763779l0 0c7.847931 0 15.37439 2.9251022 20.923706 8.131821c5.549286 5.2067184 8.66687 12.268547 8.66687 19.631958l0 0c0 15.333519 -13.248138 27.763786 -29.590576 27.763786l0 0c-16.342407 0 -29.590546 -12.430267 -29.590546 -27.763786z" fill-rule="nonzero"></path><path stroke="#000000" stroke-width="4.0" stroke-linejoin="round" stroke-linecap="butt" d="m357.72153 121.65847l0 0c0 -15.333511 13.248138 -27.763779 29.590546 -27.763779l0 0c7.847931 0 15.37439 2.9251022 20.923706 8.131821c5.549286 5.2067184 8.66687 12.268547 8.66687 19.631958l0 0c0 15.333519 -13.248138 27.763786 -29.590576 27.763786l0 0c-16.342407 0 -29.590546 -12.430267 -29.590546 -27.763786z" fill-rule="nonzero"></path><path fill="#000000" d="m382.18707 123.67222q0.234375 -0.21875 0.453125 -0.296875l4.53125 -1.625l-4.53125 -1.640625q-0.21875 -0.0625 -0.453125 -0.296875q-0.21875 -0.21875 -0.21875 -0.65625q0 -0.375 0.21875 -0.59375q0.296875 -0.296875 0.671875 -0.296875q0.375 0 0.671875 0.21875l3.703125 3.109375l-0.8125 -4.671875q-0.078125 -0.59375 0.21875 -0.890625q0.296875 -0.296875 0.671875 -0.296875q0.375 0 0.671875 0.296875q0.296875 0.296875 0.21875 0.890625l-0.8125 4.671875l3.703125 -3.109375q0.296875 -0.21875 0.671875 -0.21875q0.375 0 0.671875 0.296875q0.21875 0.21875 0.21875 0.59375q0 0.4375 -0.21875 0.65625q-0.21875 0.234375 -0.453125 0.296875l-4.515625 1.640625l4.515625 1.625q0.234375 0.078125 0.453125 0.296875q0.21875 0.234375 0.21875 0.671875q0 0.375 -0.21875 0.59375q-0.296875 0.296875 -0.671875 0.296875q-0.375 0 -0.671875 -0.21875l-3.703125 -3.125l0.8125 4.6875q0.078125 0.59375 -0.21875 0.890625q-0.296875 0.296875 -0.671875 0.296875q-0.375 0 -0.671875 -0.296875q-0.296875 -0.296875 -0.21875 -0.890625l0.8125 -4.6875l-3.703125 3.125q-0.296875 0.21875 -0.671875 0.21875q-0.375 0 -0.671875 -0.296875q-0.21875 -0.21875 -0.21875 -0.59375q0 -0.4375 0.21875 -0.671875z" fill-rule="nonzero"></path><path fill="#000000" fill-opacity="0.0" d="m259.80548 192.29535c24.47638 0 36.712646 -17.661423 48.95279 -35.32283c12.240143 -17.661423 24.484222 -35.322838 48.968475 -35.322838" fill-rule="nonzero"></path><path stroke="#000000" stroke-width="4.0" stroke-linejoin="round" stroke-linecap="butt" d="m259.80548 192.29536c24.47638 0 36.712616 -17.661423 48.95279 -35.322845c6.1200867 -8.830719 12.24115 -17.661423 19.8927 -24.284454c0.9564209 -0.82788086 1.9367981 -1.6212616 2.9440613 -2.3758392c0.5036316 -0.37728882 1.0140076 -0.74487305 1.5314331 -1.1022186c0.25875854 -0.17868042 0.5192566 -0.35479736 0.7815552 -0.52827454c0.13119507 -0.086746216 0.26278687 -0.1728363 0.39486694 -0.258255l0.33728027 -0.21565247" fill-rule="evenodd"></path><path fill="#000000" stroke="#000000" stroke-width="4.0" stroke-linecap="butt" d="m336.44553 134.5633l15.656158 -11.31572l-19.266907 -1.3952332z" fill-rule="evenodd"></path><path fill="#000000" fill-opacity="0.0" d="m115.18148 54.615463c60.64022 0 90.96154 16.763779 121.28043 33.527557c30.318909 16.763779 60.635376 33.527565 121.27075 33.527565" fill-rule="nonzero"></path><path stroke="#000000" stroke-width="4.0" stroke-linejoin="round" stroke-linecap="butt" d="m115.18148 54.615463c60.64022 0 90.96154 16.763779 121.28045 33.527557c15.159439 8.381897 30.318283 16.763786 49.266678 23.050201c9.474213 3.1432114 19.895813 5.7625504 31.738556 7.5960846c2.9606934 0.45838928 6.010193 0.8676605 9.155945 1.2237244c1.5728455 0.17803955 3.1697693 0.3427658 4.791687 0.49368286c0.40545654 0.037734985 0.8125 0.07460022 1.2210999 0.1105957l1.1158752 0.09553528" fill-rule="evenodd"></path><path fill="#000000" stroke="#000000" stroke-width="4.0" stroke-linecap="butt" d="m333.48813 127.314514l18.40158 -5.877281l-17.874298 -7.32605z" fill-rule="evenodd"></path><path fill="#d9ead3" d="m31.38566 334.1241l0 0c0 -21.691315 18.761736 -39.275604 41.90551 -39.275604l0 0c23.143776 0 41.905518 17.58429 41.905518 39.275604l0 0c0 21.691315 -18.761742 39.275604 -41.905518 39.275604l0 0c-23.143772 0 -41.90551 -17.58429 -41.90551 -39.275604z" fill-rule="nonzero"></path><path stroke="#000000" stroke-width="4.0" stroke-linejoin="round" stroke-linecap="butt" d="m31.38566 334.1241l0 0c0 -21.691315 18.761736 -39.275604 41.90551 -39.275604l0 0c23.143776 0 41.905518 17.58429 41.905518 39.275604l0 0c0 21.691315 -18.761742 39.275604 -41.905518 39.275604l0 0c-23.143772 0 -41.90551 -17.58429 -41.90551 -39.275604z" fill-rule="nonzero"></path><path fill="#000000" d="m55.95914 341.19537l0 -16.359375l-1.9375 -0.234375l0 -1.109375l3.96875 -0.5l0.0625 0l0.5625 0.390625l0.015625 5.4375l-0.109375 2.09375q0.796875 -0.703125 2.078125 -1.28125q1.296875 -0.59375 2.65625 -0.59375q1.4999962 0 2.3281212 0.578125q0.84375 0.5625 1.171875 1.75q0.34375 1.1875 0.34375 3.203125l0 6.609375l1.6875 0.203125l0 1.28125l-5.890621 0l0 -1.265625l1.5312462 -0.203125l0 -6.640625q0 -1.359375 -0.1875 -2.140625q-0.171875 -0.78125 -0.6874962 -1.171875q-0.515625 -0.390625 -1.515625 -0.390625q-0.84375 0 -1.765625 0.34375q-0.921875 0.34375 -1.625 0.875l0 9.109375l1.65625 0.203125l0 1.28125l-5.75 0l0 -1.28125l1.40625 -0.1875z" fill-rule="nonzero"></path><path fill="#000000" d="m69.92789 343.8985l0 -0.75q0.21875 -0.046875 0.5 -0.140625q0.28125 -0.109375 0.375 -0.171875q0.25 -0.1875 0.421875 -0.609375q0.109375 -0.265625 0.296875 -0.84375q0.203125 -0.578125 0.265625 -0.875l1.015625 0l0.015625 2.265625l2.625 0l0 1.125l-2.609375 0l0 4.71875q0 0.953125 0.046875 1.328125q0.0625 0.375 0.21875 0.484375q0.171875 0.09375 0.625 0.09375l0 0q0.40625 0 0.921875 -0.09375q0.515625 -0.109375 0.796875 -0.21875l0 0l0.265625 0.765625q-0.234375 0.1875 -0.703125 0.390625q-0.46875 0.203125 -1.015625 0.328125q-0.53125 0.140625 -0.984375 0.140625l-0.015625 0q-0.96875 0 -1.46875 -0.421875q-0.484375 -0.4375 -0.484375 -1.4375l0 -6.078125l-1.109375 0zm14.421875 2.3125l0 1.265625l-6.640625 0l0 -1.265625l6.640625 0zm4.703125 4.40625l0 -7.0625q-0.3125 0.125 -1.0 0.28125q-0.6875 0.140625 -1.09375 0.171875l-0.1875 -0.953125q0.828125 -0.1875 1.640625 -0.578125q0.828125 -0.40625 1.421875 -0.90625l0.015625 0l1.015625 0.15625l0 8.890625l1.8125 0.1875l0 0.859375l-5.609375 0l0 -0.859375l1.984375 -0.1875z" fill-rule="nonzero"></path><path fill="#c9daf8" d="m176.02594 467.65225l0 0c0 -23.700409 18.76175 -42.91339 41.905518 -42.91339l0 0c11.114029 0 21.772858 4.5212097 29.631668 12.569031c7.8588104 8.047821 12.2738495 18.963013 12.2738495 30.34436l0 0c0 23.700409 -18.761734 42.91336 -41.905518 42.91336l0 0c-23.143768 0 -41.905518 -19.212952 -41.905518 -42.91336z" fill-rule="nonzero"></path><path stroke="#000000" stroke-width="4.0" stroke-linejoin="round" stroke-linecap="butt" d="m176.02594 467.65225l0 0c0 -23.700409 18.76175 -42.91339 41.905518 -42.91339l0 0c11.114029 0 21.772858 4.5212097 29.631668 12.569031c7.8588104 8.047821 12.2738495 18.963013 12.2738495 30.34436l0 0c0 23.700409 -18.761734 42.91336 -41.905518 42.91336l0 0c-23.143768 0 -41.905518 -19.212952 -41.905518 -42.91336z" fill-rule="nonzero"></path><path fill="#000000" d="m200.13068 459.66098l0 -1.3125l6.546875 0l0 1.3125l-2.140625 0.3125l3.265625 11.078125l0.609375 3.1875l0.71875 -3.1875l2.6875 -9.03125l-0.65625 -2.0625l-1.65625 -0.296875l0 -1.3125l6.78125 0l0 1.3125l-2.25 0.296875l3.203125 11.09375l0.71875 3.453125l0.625 -3.453125l3.046875 -11.078125l-2.359375 -0.3125l0 -1.3125l5.828125 0l0 1.3125l-1.546875 0.3125l-4.84375 16.34375l-2.53125 0l-3.546875 -11.6875l-3.453125 11.6875l-2.40625 0l-5.0625 -16.34375l-1.578125 -0.3125z" fill-rule="nonzero"></path><path fill="#000000" d="m226.26349 484.20786l0 -10.90625l-1.296875 -0.15625l0 -0.734375l2.65625 -0.34375l0.03125 0l0.375 0.265625l0.015625 3.625l-0.078125 1.40625q0.53125 -0.46875 1.390625 -0.859375q0.859375 -0.40625 1.765625 -0.40625q1.0 0 1.5625 0.390625q0.5625 0.375 0.78125 1.171875q0.21875 0.796875 0.21875 2.125l0 4.421875l1.125 0.125l0 0.859375l-3.921875 0l0 -0.84375l1.015625 -0.140625l0 -4.421875q0 -0.90625 -0.125 -1.421875q-0.109375 -0.53125 -0.453125 -0.78125q-0.34375 -0.265625 -1.015625 -0.265625q-0.5625 0 -1.1875 0.234375q-0.609375 0.21875 -1.078125 0.578125l0 6.078125l1.109375 0.125l0 0.859375l-3.828125 0l0 -0.859375l0.9375 -0.125z" fill-rule="nonzero"></path><path fill="#f4cccc" d="m357.7192 395.1783l0 0c0 -15.333527 13.248138 -27.763794 29.590546 -27.763794l0 0c7.8479004 0 15.374359 2.9251099 20.923676 8.131836c5.549286 5.206726 8.66687 12.268555 8.66687 19.631958l0 0c0 15.333496 -13.248138 27.763763 -29.590546 27.763763l0 0c-16.342407 0 -29.590546 -12.430267 -29.590546 -27.763763z" fill-rule="nonzero"></path><path stroke="#000000" stroke-width="4.0" stroke-linejoin="round" stroke-linecap="butt" d="m357.7192 395.1783l0 0c0 -15.333527 13.248138 -27.763794 29.590546 -27.763794l0 0c7.8479004 0 15.374359 2.9251099 20.923676 8.131836c5.549286 5.206726 8.66687 12.268555 8.66687 19.631958l0 0c0 15.333496 -13.248138 27.763763 -29.590546 27.763763l0 0c-16.342407 0 -29.590546 -12.430267 -29.590546 -27.763763z" fill-rule="nonzero"></path><path fill="#000000" d="m382.18475 397.19205q0.234375 -0.21875 0.453125 -0.296875l4.53125 -1.625l-4.53125 -1.640625q-0.21875 -0.0625 -0.453125 -0.296875q-0.21875 -0.21875 -0.21875 -0.65625q0 -0.375 0.21875 -0.59375q0.296875 -0.296875 0.671875 -0.296875q0.375 0 0.671875 0.21875l3.703125 3.109375l-0.8125 -4.671875q-0.078125 -0.59375 0.21875 -0.890625q0.296875 -0.296875 0.671875 -0.296875q0.375 0 0.671875 0.296875q0.296875 0.296875 0.21875 0.890625l-0.8125 4.671875l3.703125 -3.109375q0.296875 -0.21875 0.671875 -0.21875q0.375 0 0.671875 0.296875q0.21875 0.21875 0.21875 0.59375q0 0.4375 -0.21875 0.65625q-0.21875 0.234375 -0.453125 0.296875l-4.515625 1.640625l4.515625 1.625q0.234375 0.078125 0.453125 0.296875q0.21875 0.234375 0.21875 0.671875q0 0.375 -0.21875 0.59375q-0.296875 0.296875 -0.671875 0.296875q-0.375 0 -0.671875 -0.21875l-3.703125 -3.125l0.8125 4.6875q0.078125 0.59375 -0.21875 0.890625q-0.296875 0.296875 -0.671875 0.296875q-0.375 0 -0.671875 -0.296875q-0.296875 -0.296875 -0.21875 -0.890625l0.8125 -4.6875l-3.703125 3.125q-0.296875 0.21875 -0.671875 0.21875q-0.375 0 -0.671875 -0.296875q-0.21875 -0.21875 -0.21875 -0.59375q0 -0.4375 0.21875 -0.671875z" fill-rule="nonzero"></path><path fill="#000000" fill-opacity="0.0" d="m259.83698 467.65225c24.476349 0 36.71649 -18.118134 48.952698 -36.236237c12.236237 -18.118103 24.468536 -36.236206 48.937073 -36.236206" fill-rule="nonzero"></path><path stroke="#000000" stroke-width="4.0" stroke-linejoin="round" stroke-linecap="butt" d="m259.83698 467.65222c24.476349 0 36.71649 -18.118103 48.952698 -36.236206c6.118103 -9.0590515 12.2352295 -18.118103 19.881409 -24.912415c0.95578 -0.8492737 1.9354553 -1.6631775 2.941986 -2.4372864c0.5032654 -0.38702393 1.0132751 -0.7640991 1.5303345 -1.1307068c0.25857544 -0.18325806 0.5188904 -0.36395264 0.78100586 -0.54196167c0.131073 -0.08892822 0.26260376 -0.17727661 0.39456177 -0.2649231l0.3647461 -0.23937988" fill-rule="evenodd"></path><path fill="#000000" stroke="#000000" stroke-width="4.0" stroke-linecap="butt" d="m336.53076 408.23282l15.581543 -11.418243l-19.275665 -1.2687378z" fill-rule="evenodd"></path><path fill="#000000" fill-opacity="0.0" d="m115.196686 334.1241c60.627487 0 90.94003 15.259857 121.25499 30.519684c30.314957 15.259857 60.63234 30.519684 121.264694 30.519684" fill-rule="nonzero"></path><path stroke="#000000" stroke-width="4.0" stroke-linejoin="round" stroke-linecap="butt" d="m115.196686 334.1241c60.627502 0 90.94002 15.259827 121.25499 30.519653c15.157471 7.629944 30.315567 15.259857 49.26332 20.9823c9.473907 2.861206 19.895172 5.245575 31.737549 6.914612c2.9605713 0.41723633 6.0099792 0.78982544 9.155609 1.1139221c1.572815 0.16207886 3.1696777 0.31201172 4.791504 0.44940186c0.40545654 0.034362793 0.8125 0.06790161 1.2210693 0.10067749l1.1114807 0.08660889" fill-rule="evenodd"></path><path fill="#000000" stroke="#000000" stroke-width="4.0" stroke-linecap="butt" d="m333.49213 400.8939l18.380493 -5.942932l-17.9003 -7.262207z" fill-rule="evenodd"></path><path fill="#f4cccc" d="m506.84738 395.14853l0 0c0 -15.333527 13.248138 -27.763794 29.590546 -27.763794l0 0c7.8479004 0 15.37439 2.9251099 20.923706 8.131836c5.5493164 5.206726 8.66687 12.268555 8.66687 19.631958l0 0c0 15.333527 -13.248169 27.763794 -29.590576 27.763794l0 0c-16.342407 0 -29.590546 -12.430267 -29.590546 -27.763794z" fill-rule="nonzero"></path><path stroke="#000000" stroke-width="4.0" stroke-linejoin="round" stroke-linecap="butt" d="m506.84738 395.14853l0 0c0 -15.333527 13.248138 -27.763794 29.590546 -27.763794l0 0c7.8479004 0 15.37439 2.9251099 20.923706 8.131836c5.5493164 5.206726 8.66687 12.268555 8.66687 19.631958l0 0c0 15.333527 -13.248169 27.763794 -29.590576 27.763794l0 0c-16.342407 0 -29.590546 -12.430267 -29.590546 -27.763794z" fill-rule="nonzero"></path><path fill="#000000" d="m542.70355 396.08417q0 0.15625 -0.109375 0.265625q-0.109375 0.109375 -0.265625 0.109375l-4.15625 0q-0.15625 0 -0.28125 0.125q-0.109375 0.109375 -0.109375 0.265625l0 4.140625q0 0.15625 -0.109375 0.28125q-0.109375 0.109375 -0.265625 0.109375l-1.609375 0q-0.15625 0 -0.265625 -0.109375q-0.109375 -0.125 -0.109375 -0.28125l0 -4.140625q0 -0.15625 -0.109375 -0.265625q-0.109375 -0.125 -0.265625 -0.125l-4.15625 0q-0.15625 0 -0.265625 -0.109375q-0.109375 -0.109375 -0.109375 -0.265625l0 -1.609375q0 -0.15625 0.109375 -0.265625q0.109375 -0.109375 0.265625 -0.109375l4.15625 0q0.15625 0 0.265625 -0.109375q0.109375 -0.109375 0.109375 -0.265625l0 -4.15625q0 -0.15625 0.109375 -0.265625q0.109375 -0.125 0.265625 -0.125l1.609375 0q0.15625 0 0.265625 0.125q0.109375 0.109375 0.109375 0.265625l0 4.15625q0 0.15625 0.109375 0.265625q0.125 0.109375 0.28125 0.109375l4.15625 0q0.15625 0 0.265625 0.109375q0.109375 0.109375 0.109375 0.265625l0 1.609375z" fill-rule="nonzero"></path><path fill="#000000" fill-opacity="0.0" d="m416.90265 121.65847c22.487732 0 33.731384 68.37008 44.975464 136.74014c11.24411 68.37009 22.488647 136.74017 44.977295 136.74017" fill-rule="nonzero"></path><path stroke="#000000" stroke-width="4.0" stroke-linejoin="round" stroke-linecap="butt" d="m416.90265 121.65848c22.487732 0 33.731384 68.37007 44.975464 136.74014c5.62204 34.185028 11.244232 68.37009 18.271942 94.00885c1.7569275 6.4096985 3.601715 12.285278 5.556305 17.493134c0.9772949 2.6039429 1.9820557 5.0409546 3.0169983 7.2943726c0.1293335 0.28167725 0.2591858 0.56048584 0.38949585 0.83639526l0.2987976 0.6235962" fill-rule="evenodd"></path><path fill="#000000" stroke="#000000" stroke-width="4.0" stroke-linecap="butt" d="m484.87384 383.45706l17.731384 7.665436l-8.655762 -17.269592z" fill-rule="evenodd"></path><path fill="#000000" fill-opacity="0.0" d="m416.9003 395.1783c22.48819 0 33.73227 0.01574707 44.97638 0.03149414c11.24408 0.01574707 22.48819 0.03149414 44.97638 0.03149414" fill-rule="nonzero"></path><path stroke="#000000" stroke-width="4.0" stroke-linejoin="round" stroke-linecap="butt" d="m416.9003 395.1783c22.48819 0 33.7323 0.01574707 44.97638 0.03149414c5.62204 0.007873535 11.24411 0.01574707 18.271667 0.02166748l2.704712 0.0016174316" fill-rule="evenodd"></path><path fill="#000000" stroke="#000000" stroke-width="4.0" stroke-linecap="butt" d="m482.8508 401.84003l18.154663 -6.600708l-18.150146 -6.613159z" fill-rule="evenodd"></path><path fill="#c9daf8" d="m176.04224 608.9672l0 0c0 -23.70044 18.754684 -42.91339 41.88977 -42.91339l0 0c11.109848 0 21.764679 4.52124 29.62053 12.569031c7.85585 8.047852 12.269241 18.963013 12.269241 30.34436l0 0c0 23.700378 -18.7547 42.91339 -41.88977 42.91339l0 0c-23.135086 0 -41.88977 -19.213013 -41.88977 -42.91339z" fill-rule="nonzero"></path><path stroke="#000000" stroke-width="4.0" stroke-linejoin="round" stroke-linecap="butt" d="m176.04224 608.9672l0 0c0 -23.70044 18.754684 -42.91339 41.88977 -42.91339l0 0c11.109848 0 21.764679 4.52124 29.62053 12.569031c7.85585 8.047852 12.269241 18.963013 12.269241 30.34436l0 0c0 23.700378 -18.7547 42.91339 -41.88977 42.91339l0 0c-23.135086 0 -41.88977 -19.213013 -41.88977 -42.91339z" fill-rule="nonzero"></path><path fill="#000000" d="m210.59802 599.4291l0 -1.09375l3.953125 -0.5l0.0625 0l0.578125 0.390625l0 7.15625q0.703125 -0.671875 1.65625 -1.109375q0.96875 -0.453125 2.140625 -0.453125q1.421875 0 2.609375 0.6875q1.1875 0.6875 1.890625 2.171875q0.71875 1.46875 0.71875 3.6875q0 2.0625 -0.84375 3.765625q-0.84375 1.6875 -2.421875 2.671875q-1.578125 0.96875 -3.671875 0.96875q-1.140625 0 -2.171875 -0.15625q-1.015625 -0.15625 -1.703125 -0.375q-0.6875 -0.234375 -0.859375 -0.390625l0 -17.1875l-1.9375 -0.234375zm4.59375 16.234375q0.15625 0.359375 0.78125 0.5625q0.640625 0.203125 1.46875 0.203125q1.15625 0 2.03125 -0.640625q0.875 -0.65625 1.359375 -1.9375q0.5 -1.296875 0.5 -3.203125q0 -1.6875 -0.453125 -2.8125q-0.4375 -1.125 -1.21875 -1.65625q-0.765625 -0.546875 -1.75 -0.546875q-0.84375 0 -1.5625 0.390625q-0.71875 0.375 -1.15625 0.859375l0 8.78125z" fill-rule="nonzero"></path><path fill="#000000" fill-opacity="0.0" d="m259.82178 608.9672c61.75589 0 92.63385 -53.456726 123.51181 -106.91339c30.87793 -53.456696 61.75589 -106.91339 123.51181 -106.91339" fill-rule="nonzero"></path><path stroke="#000000" stroke-width="4.0" stroke-linejoin="round" stroke-linecap="butt" d="m259.82178 608.9672c61.75589 0 92.63385 -53.456665 123.51181 -106.91339c15.438965 -26.728333 30.87793 -53.456665 50.176666 -73.50293c9.649353 -10.023132 20.263641 -18.375732 32.32538 -24.222565c3.0154114 -1.4617004 6.1213074 -2.7668152 9.325165 -3.9022522c1.6019592 -0.567688 3.2283936 -1.0929871 4.88031 -1.5742493c0.82592773 -0.24066162 1.6582336 -0.47024536 2.4970398 -0.68865967l0.4829712 -0.12390137" fill-rule="evenodd"></path><path fill="#000000" stroke="#000000" stroke-width="4.0" stroke-linecap="butt" d="m483.81912 404.59784l17.221466 -8.751068l-18.817505 -4.3660583z" fill-rule="evenodd"></path><path fill="#fce5cd" d="m647.30493 394.82834l0 0c0 -23.700409 18.76178 -42.91339 41.905518 -42.91339l0 0c11.114075 0 21.772888 4.5212097 29.631714 12.569031c7.8587646 8.047821 12.273804 18.963013 12.273804 30.34436l0 0c0 23.700409 -18.761719 42.91339 -41.905518 42.91339l0 0c-23.143738 0 -41.905518 -19.212982 -41.905518 -42.91339z" fill-rule="nonzero"></path><path stroke="#000000" stroke-width="4.0" stroke-linejoin="round" stroke-linecap="butt" d="m647.30493 394.82834l0 0c0 -23.700409 18.76178 -42.91339 41.905518 -42.91339l0 0c11.114075 0 21.772888 4.5212097 29.631714 12.569031c7.8587646 8.047821 12.273804 18.963013 12.273804 30.34436l0 0c0 23.700409 -18.761719 42.91339 -41.905518 42.91339l0 0c-23.143738 0 -41.905518 -19.212982 -41.905518 -42.91339z" fill-rule="nonzero"></path><path fill="#000000" d="m691.32764 394.66522q0 -1.109375 -0.234375 -1.734375q-0.21875 -0.640625 -0.78125 -0.921875q-0.5625 -0.296875 -1.59375 -0.296875q-1.984375 0 -4.171875 1.109375l-0.015625 0l-0.578125 -1.21875q0.3125 -0.28125 1.203125 -0.71875q0.90625 -0.453125 2.046875 -0.78125q1.140625 -0.34375 2.171875 -0.34375q1.71875 0 2.6875 0.46875q0.984375 0.453125 1.40625 1.484375q0.4375 1.015625 0.4375 2.75l0 7.609375l1.4375 0l0 1.15625q-1.71875 0.40625 -2.578125 0.40625q-0.5 0 -0.765625 -0.078125q-0.25 -0.078125 -0.375 -0.328125q-0.109375 -0.265625 -0.109375 -0.78125l0 -0.5625q-0.640625 0.609375 -1.671875 1.1875q-1.03125 0.5625 -2.3125 0.5625q-1.125 0 -2.046875 -0.40625q-0.90625 -0.40625 -1.453125 -1.265625q-0.546875 -0.859375 -0.546875 -2.140625q0 -1.546875 1.078125 -2.546875q1.09375 -1.015625 2.84375 -1.484375q1.765625 -0.484375 3.921875 -0.515625l0 -0.609375zm0 1.921875q-1.71875 0 -2.828125 0.40625q-1.109375 0.390625 -1.609375 1.03125q-0.484375 0.640625 -0.484375 1.46875q0 1.21875 0.609375 1.796875q0.609375 0.578125 1.640625 0.578125q0.546875 0 1.328125 -0.3125q0.78125 -0.3125 1.34375 -0.75l0 -4.21875z" fill-rule="nonzero"></path><path fill="#d9ead3" d="m1306.8164 215.68686l0 0c0 -21.691315 18.75476 -39.27559 41.88977 -39.27559l0 0c23.135132 0 41.88977 17.584274 41.88977 39.27559l0 0c0 21.691315 -18.754639 39.27559 -41.88977 39.27559l0 0c-23.13501 0 -41.88977 -17.584274 -41.88977 -39.27559z" fill-rule="nonzero"></path><path stroke="#000000" stroke-width="4.0" stroke-linejoin="round" stroke-linecap="butt" d="m1306.8164 215.68686l0 0c0 -21.691315 18.75476 -39.27559 41.88977 -39.27559l0 0c23.135132 0 41.88977 17.584274 41.88977 39.27559l0 0c0 21.691315 -18.754639 39.27559 -41.88977 39.27559l0 0c-23.13501 0 -41.88977 -17.584274 -41.88977 -39.27559z" fill-rule="nonzero"></path><path fill="#000000" d="m1347.505 222.74248l0 -9.8125l-1.703125 -0.484375l0 -1.375l3.734375 -0.484375l0.0625 0l0.59375 0.453125l0 11.703125l1.875 0.203125l0 1.28125l-6.453125 0l0 -1.28125l1.890625 -0.203125zm-0.46875 -15.96875q0 -0.796875 0.453125 -1.34375q0.46875 -0.546875 1.296875 -0.546875l0.015625 0q0.484375 0 0.84375 0.234375q0.375 0.21875 0.5625 0.59375q0.203125 0.375 0.203125 0.796875q0 0.8125 -0.46875 1.34375q-0.46875 0.53125 -1.359375 0.53125l-0.015625 0q-0.6875 0 -1.109375 -0.453125q-0.421875 -0.46875 -0.421875 -1.15625z" fill-rule="nonzero"></path><path fill="#d9ead3" d="m1306.8164 333.60452l0 0c0 -21.691315 18.75476 -39.275604 41.88977 -39.275604l0 0c23.135132 0 41.88977 17.58429 41.88977 39.275604l0 0c0 21.691284 -18.754639 39.275574 -41.88977 39.275574l0 0c-23.13501 0 -41.88977 -17.58429 -41.88977 -39.275574z" fill-rule="nonzero"></path><path stroke="#000000" stroke-width="4.0" stroke-linejoin="round" stroke-linecap="butt" d="m1306.8164 333.60452l0 0c0 -21.691315 18.75476 -39.275604 41.88977 -39.275604l0 0c23.135132 0 41.88977 17.58429 41.88977 39.275604l0 0c0 21.691284 -18.754639 39.275574 -41.88977 39.275574l0 0c-23.13501 0 -41.88977 -17.58429 -41.88977 -39.275574z" fill-rule="nonzero"></path><path fill="#000000" d="m1346.8859 340.66013l0 -10.125l-2.25 0l0 -1.171875l2.25 -0.515625l0 -1.125q0 -1.484375 0.796875 -2.734375q0.8125 -1.25 2.109375 -1.984375q1.296875 -0.734375 2.671875 -0.734375q0.515625 0 0.8125 0.0625q0.3125 0.046875 0.59375 0.125l0 2.625q-0.234375 -0.21875 -0.875 -0.40625q-0.625 -0.203125 -1.390625 -0.203125q-0.78125 0 -1.234375 0.203125q-0.4375 0.1875 -0.625 0.703125q-0.1875 0.5 -0.1875 1.4375l0 2.03125l3.234375 0l0 1.6875l-3.234375 0l0 10.125l2.546875 0.21875l0 1.265625l-7.203125 0l0 -1.265625l1.984375 -0.21875z" fill-rule="nonzero"></path><path fill="#d9ead3" d="m1306.8164 451.52216l0 0c0 -21.691315 18.75476 -39.275574 41.88977 -39.275574l0 0c23.135132 0 41.88977 17.584259 41.88977 39.275574l0 0c0 21.691315 -18.754639 39.275604 -41.88977 39.275604l0 0c-23.13501 0 -41.88977 -17.58429 -41.88977 -39.275604z" fill-rule="nonzero"></path><path stroke="#000000" stroke-width="4.0" stroke-linejoin="round" stroke-linecap="butt" d="m1306.8164 451.52216l0 0c0 -21.691315 18.75476 -39.275574 41.88977 -39.275574l0 0c23.135132 0 41.88977 17.584259 41.88977 39.275574l0 0c0 21.691315 -18.754639 39.275604 -41.88977 39.275604l0 0c-23.13501 0 -41.88977 -17.58429 -41.88977 -39.275604z" fill-rule="nonzero"></path><path fill="#000000" d="m1348.8507 446.37466q2.03125 0 3.390625 0.90625q1.359375 0.890625 2.015625 2.46875q0.65625 1.578125 0.65625 3.609375q0 2.171875 -0.890625 3.75q-0.890625 1.578125 -2.359375 2.40625q-1.453125 0.8125 -3.109375 0.8125q-2.03125 0 -3.390625 -0.890625q-1.359375 -0.90625 -2.015625 -2.484375q-0.65625 -1.578125 -0.65625 -3.609375q0 -2.140625 0.890625 -3.71875q0.90625 -1.59375 2.359375 -2.421875q1.46875 -0.828125 3.109375 -0.828125zm3.109375 7.1875q0 -2.625 -0.78125 -4.171875q-0.78125 -1.5625 -2.46875 -1.5625q-1.625 0 -2.453125 1.328125q-0.8125 1.328125 -0.8125 3.984375q0 2.625 0.796875 4.1875q0.796875 1.546875 2.46875 1.546875q3.25 0 3.25 -5.3125z" fill-rule="nonzero"></path><path fill="#d9ead3" d="m1306.8164 569.4398l0 0c0 -21.691345 18.75476 -39.275574 41.88977 -39.275574l0 0c23.135132 0 41.88977 17.584229 41.88977 39.275574l0 0c0 21.691284 -18.754639 39.275574 -41.88977 39.275574l0 0c-23.13501 0 -41.88977 -17.58429 -41.88977 -39.275574z" fill-rule="nonzero"></path><path stroke="#000000" stroke-width="4.0" stroke-linejoin="round" stroke-linecap="butt" d="m1306.8164 569.4398l0 0c0 -21.691345 18.75476 -39.275574 41.88977 -39.275574l0 0c23.135132 0 41.88977 17.584229 41.88977 39.275574l0 0c0 21.691284 -18.754639 39.275574 -41.88977 39.275574l0 0c-23.13501 0 -41.88977 -17.58429 -41.88977 -39.275574z" fill-rule="nonzero"></path><path fill="#000000" d="m1348.1769 573.2298q-0.96875 0 -1.796875 -0.203125q-0.328125 0.296875 -0.515625 0.6875q-0.1875 0.375 -0.1875 0.765625q0 0.59375 0.265625 0.90625q0.28125 0.3125 0.84375 0.4375q0.5625 0.109375 1.53125 0.109375l2.546875 0q4.59375 0 4.59375 3.515625q0 1.359375 -0.96875 2.5q-0.96875 1.15625 -2.59375 1.828125q-1.609375 0.671875 -3.46875 0.671875l0 0q-3.140625 0 -4.5625 -0.953125q-1.421875 -0.953125 -1.421875 -2.703125q0 -1.09375 0.640625 -1.984375q0.640625 -0.875 1.546875 -1.328125q-1.140625 -0.65625 -1.140625 -1.96875q0 -0.890625 0.5 -1.625q0.5 -0.75 1.328125 -1.203125q-1.171875 -0.546875 -1.796875 -1.53125q-0.625 -0.984375 -0.625 -2.3125q0 -1.390625 0.78125 -2.421875q0.78125 -1.03125 2.0625 -1.5625q1.28125 -0.546875 2.734375 -0.5625l0 0q1.265625 0 2.265625 0.296875q1.015625 0.28125 1.71875 0.84375q0.34375 -0.421875 1.046875 -0.796875q0.703125 -0.375 1.65625 -0.375l0.625 0l0 2.28125l-2.453125 0q0.40625 0.859375 0.40625 1.890625q0 1.40625 -0.734375 2.5q-0.71875 1.09375 -1.984375 1.703125q-1.265625 0.59375 -2.828125 0.59375l-0.015625 0zm0.140625 -7.5625q-1.265625 0 -1.96875 0.6875q-0.6875 0.671875 -0.6875 2.234375q0 1.484375 0.65625 2.375q0.65625 0.875 2.109375 0.875l0.015625 0q1.34375 0 1.9375 -0.796875q0.609375 -0.796875 0.609375 -2.328125q0 -1.578125 -0.65625 -2.3125q-0.640625 -0.734375 -2.0 -0.734375l-0.015625 0zm-2.5 12.21875q-0.75 0.921875 -0.75 2.21875q0 1.40625 0.828125 2.125q0.84375 0.734375 2.734375 0.734375l0.03125 0q1.046875 0 2.0 -0.328125q0.96875 -0.328125 1.5625 -0.984375q0.609375 -0.640625 0.609375 -1.53125q0 -0.75 -0.234375 -1.203125q-0.234375 -0.4375 -0.84375 -0.65625q-0.609375 -0.21875 -1.765625 -0.21875l-2.359375 0q-0.953125 0 -1.8125 -0.15625z" fill-rule="nonzero"></path><path fill="#000000" fill-opacity="0.0" d="m900.56024 394.83063c33.846313 0 50.767456 43.57483 67.69263 87.14963c16.925232 43.5748 33.854492 87.14957 67.70892 87.14957" fill-rule="nonzero"></path><path stroke="#000000" stroke-width="4.0" stroke-linejoin="round" stroke-linecap="butt" d="m900.5602 394.83063c33.846375 0 50.767517 43.5748 67.69269 87.1496c8.462585 21.787415 16.92627 43.57483 27.505981 59.915344c2.6449585 4.085144 5.42218 7.829895 8.364685 11.149048c1.4712524 1.6595459 2.9838257 3.2127686 4.541931 4.648926c0.77893066 0.71813965 1.5693359 1.4069824 2.371582 2.0652466c0.40118408 0.32910156 0.80529785 0.65057373 1.2124023 0.9642334c0.20355225 0.15679932 0.4078369 0.31170654 0.6129761 0.46466064l0.3605957 0.26434326" fill-rule="evenodd"></path><path fill="#000000" stroke="#000000" stroke-width="4.0" stroke-linecap="butt" d="m1011.10944 567.71173l19.312073 -0.45257568l-15.084839 -12.066895z" fill-rule="evenodd"></path><path fill="#000000" fill-opacity="0.0" d="m900.56024 394.83063c33.846313 0 50.767456 -44.787384 67.69263 -89.5748c16.925232 -44.787384 33.854492 -89.5748 67.70892 -89.5748" fill-rule="nonzero"></path><path stroke="#000000" stroke-width="4.0" stroke-linejoin="round" stroke-linecap="butt" d="m900.5602 394.83063c33.846375 0 50.767517 -44.787415 67.69269 -89.5748c8.462585 -22.393677 16.92627 -44.787384 27.505981 -61.582657c2.6449585 -4.198822 5.42218 -8.047745 8.364685 -11.459274c1.4712524 -1.70578 2.9838257 -3.3022003 4.541931 -4.778351c0.77893066 -0.7380829 1.5693359 -1.4460907 2.371582 -2.122635c0.40118408 -0.3383026 0.80529785 -0.66871643 1.2124023 -0.9911194c0.20355225 -0.16119385 0.4078369 -0.32037354 0.6129761 -0.47755432l0.41864014 -0.31547546" fill-rule="evenodd"></path><path fill="#000000" stroke="#000000" stroke-width="4.0" stroke-linecap="butt" d="m1015.44147 229.7725l14.994202 -12.179367l-19.314941 -0.3080902z" fill-rule="evenodd"></path><path fill="#000000" fill-opacity="0.0" d="m566.0285 395.14853c20.321594 0 30.481812 -0.07873535 40.64325 -0.1574707c10.161377 -0.07873535 20.324036 -0.15750122 40.64807 -0.15750122" fill-rule="nonzero"></path><path stroke="#000000" stroke-width="4.0" stroke-linejoin="round" stroke-linecap="butt" d="m566.0285 395.14853c20.321594 0 30.481812 -0.07873535 40.64319 -0.1574707c5.0807495 -0.039367676 10.161743 -0.07873535 16.513123 -0.10827637l0.1350708 -5.187988E-4" fill-rule="evenodd"></path><path fill="#000000" stroke="#000000" stroke-width="4.0" stroke-linecap="butt" d="m623.3333 401.48917l18.138916 -6.643738l-18.16571 -6.570099z" fill-rule="evenodd"></path><path fill="#f4cccc" d="m1186.7579 215.69337l0 0c0 -15.333511 13.248169 -27.763779 29.590576 -27.763779l0 0c7.8479004 0 15.37439 2.9251099 20.923584 8.131821c5.5493164 5.206726 8.666992 12.268539 8.666992 19.631958l0 0c0 15.333511 -13.248169 27.763779 -29.590576 27.763779l0 0c-16.342407 0 -29.590576 -12.430267 -29.590576 -27.763779z" fill-rule="nonzero"></path><path stroke="#000000" stroke-width="4.0" stroke-linejoin="round" stroke-linecap="butt" d="m1186.7579 215.69337l0 0c0 -15.333511 13.248169 -27.763779 29.590576 -27.763779l0 0c7.8479004 0 15.37439 2.9251099 20.923584 8.131821c5.5493164 5.206726 8.666992 12.268539 8.666992 19.631958l0 0c0 15.333511 -13.248169 27.763779 -29.590576 27.763779l0 0c-16.342407 0 -29.590576 -12.430267 -29.590576 -27.763779z" fill-rule="nonzero"></path><path fill="#000000" d="m1222.3329 213.499l0 1.703125l-4.5625 0q1.5 0.859375 2.4375 2.171875q0.953125 1.296875 0.953125 2.765625q0 1.90625 -1.5 3.171875q-1.5 1.25 -3.421875 1.25q-2.25 0 -3.890625 -1.765625q-1.640625 -1.78125 -1.640625 -4.140625q0 -1.671875 0.859375 -2.9375q0.859375 -1.28125 2.0 -1.75q1.140625 -0.46875 3.09375 -0.46875l5.671875 0zm-5.34375 1.703125l-0.421875 0q-1.75 0 -2.796875 0.875q-1.046875 0.875 -1.046875 2.734375q0 1.984375 1.09375 3.5q1.109375 1.515625 2.578125 1.515625q1.1875 0 1.953125 -1.140625q0.78125 -1.140625 0.78125 -2.75q0 -2.578125 -2.140625 -4.734375z" fill-rule="nonzero"></path><path fill="#000000" fill-opacity="0.0" d="m1245.9391 215.69337c15.218872 0 22.827637 0.01574707 30.437866 0.03149414c7.6102295 0.01574707 15.221924 0.03149414 30.44397 0.03149414" fill-rule="nonzero"></path><path stroke="#000000" stroke-width="4.0" stroke-linejoin="round" stroke-linecap="butt" d="m1245.9391 215.69339c15.218872 0 22.827515 0.01574707 30.437744 0.03149414l6.444092 0.011276245" fill-rule="evenodd"></path><path fill="#000000" stroke="#000000" stroke-width="4.0" stroke-linecap="butt" d="m1282.8154 222.3431l18.157959 -6.5916443l-18.14685 -6.6222076z" fill-rule="evenodd"></path><path fill="#000000" fill-opacity="0.0" d="m900.56024 394.83063c33.846313 0 50.767456 14.24411 67.69263 28.48819c16.925232 14.24411 33.854492 28.48819 67.70892 28.48819" fill-rule="nonzero"></path><path stroke="#000000" stroke-width="4.0" stroke-linejoin="round" stroke-linecap="butt" d="m900.5602 394.83063c33.846375 0 50.767517 14.24408 67.69269 28.48819c8.462585 7.12204 16.92627 14.24408 27.505981 19.585632c2.6449585 1.3353882 5.42218 2.5594482 8.364685 3.6444702c1.4712524 0.54248047 2.9838257 1.0502319 4.541931 1.5196838c0.77893066 0.23474121 1.5693359 0.45993042 2.371582 0.67510986c0.20056152 0.053771973 0.4019165 0.10696411 0.6039429 0.15951538l0.48236084 0.123413086" fill-rule="evenodd"></path><path fill="#000000" stroke="#000000" stroke-width="4.0" stroke-linecap="butt" d="m1011.358 455.58908l18.795593 -4.459503l-17.26477 -8.665375z" fill-rule="evenodd"></path><path fill="#000000" fill-opacity="0.0" d="m1248.0887 451.52792c14.683594 0 22.024658 0.01574707 29.367188 0.03152466c7.3425293 0.01574707 14.686523 0.03149414 29.372925 0.03149414" fill-rule="nonzero"></path><path stroke="#000000" stroke-width="4.0" stroke-linejoin="round" stroke-linecap="butt" d="m1248.0887 451.52792c14.683594 0 22.024658 0.01574707 29.367188 0.03149414l5.372925 0.009765625" fill-rule="evenodd"></path><path fill="#000000" stroke="#000000" stroke-width="4.0" stroke-linecap="butt" d="m1282.8229 458.1761l18.158447 -6.590454l-18.146362 -6.6233826z" fill-rule="evenodd"></path><path fill="#000000" fill-opacity="0.0" d="m900.56024 394.83063c33.846313 0 50.767456 -15.259827 67.69263 -30.519684c16.925232 -15.259827 33.854492 -30.519684 67.70892 -30.519684" fill-rule="nonzero"></path><path stroke="#000000" stroke-width="4.0" stroke-linejoin="round" stroke-linecap="butt" d="m900.5602 394.83063c33.846375 0 50.767517 -15.259857 67.69269 -30.519684c8.462585 -7.6299133 16.92627 -15.259857 27.505981 -20.9823c2.6449585 -1.4305725 5.42218 -2.7419739 8.364685 -3.904358c1.4712524 -0.58117676 2.9838257 -1.1250916 4.541931 -1.6280518c0.77893066 -0.25146484 1.5693359 -0.4927063 2.371582 -0.72320557c0.20056152 -0.057647705 0.4019165 -0.11462402 0.6039429 -0.17086792l0.5055542 -0.13861084" fill-rule="evenodd"></path><path fill="#000000" stroke="#000000" stroke-width="4.0" stroke-linecap="butt" d="m1012.9648 343.3196l17.194397 -8.804138l-18.830872 -4.3079834z" fill-rule="evenodd"></path><path fill="#f4cccc" d="m1186.7579 333.61102l0 0c0 -15.333496 13.248169 -27.763763 29.590576 -27.763763l0 0c7.8479004 0 15.37439 2.9250793 20.923584 8.131805c5.5493164 5.206726 8.666992 12.268555 8.666992 19.631958l0 0c0 15.333527 -13.248169 27.763794 -29.590576 27.763794l0 0c-16.342407 0 -29.590576 -12.430267 -29.590576 -27.763794z" fill-rule="nonzero"></path><path stroke="#000000" stroke-width="4.0" stroke-linejoin="round" stroke-linecap="butt" d="m1186.7579 333.61102l0 0c0 -15.333496 13.248169 -27.763763 29.590576 -27.763763l0 0c7.8479004 0 15.37439 2.9250793 20.923584 8.131805c5.5493164 5.206726 8.666992 12.268555 8.666992 19.631958l0 0c0 15.333527 -13.248169 27.763794 -29.590576 27.763794l0 0c-16.342407 0 -29.590576 -12.430267 -29.590576 -27.763794z" fill-rule="nonzero"></path><path fill="#000000" d="m1222.3329 331.41666l0 1.703125l-4.5625 0q1.5 0.859375 2.4375 2.171875q0.953125 1.296875 0.953125 2.765625q0 1.90625 -1.5 3.171875q-1.5 1.25 -3.421875 1.25q-2.25 0 -3.890625 -1.765625q-1.640625 -1.78125 -1.640625 -4.140625q0 -1.671875 0.859375 -2.9375q0.859375 -1.28125 2.0 -1.75q1.140625 -0.46875 3.09375 -0.46875l5.671875 0zm-5.34375 1.703125l-0.421875 0q-1.75 0 -2.796875 0.875q-1.046875 0.875 -1.046875 2.734375q0 1.984375 1.09375 3.5q1.109375 1.515625 2.578125 1.515625q1.1875 0 1.953125 -1.140625q0.78125 -1.140625 0.78125 -2.75q0 -2.578125 -2.140625 -4.734375z" fill-rule="nonzero"></path><path fill="#000000" fill-opacity="0.0" d="m1245.9391 333.61102c15.218872 0 22.827637 0.01574707 30.437866 0.03149414c7.6102295 0.01574707 15.221924 0.03149414 30.44397 0.03149414" fill-rule="nonzero"></path><path stroke="#000000" stroke-width="4.0" stroke-linejoin="round" stroke-linecap="butt" d="m1245.9391 333.61102c15.218872 0 22.827515 0.01574707 30.437744 0.03149414l6.444092 0.011260986" fill-rule="evenodd"></path><path fill="#000000" stroke="#000000" stroke-width="4.0" stroke-linecap="butt" d="m1282.8154 340.2607l18.157959 -6.5916443l-18.14685 -6.6221924z" fill-rule="evenodd"></path><path fill="#f4cccc" d="m1188.9077 451.52792l0 0c0 -15.333496 13.248047 -27.763763 29.590454 -27.763763l0 0c7.8479004 0 15.37439 2.9251099 20.923706 8.131805c5.5493164 5.206726 8.66687 12.268555 8.66687 19.631958l0 0c0 15.333527 -13.248169 27.763794 -29.590576 27.763794l0 0c-16.342407 0 -29.590454 -12.430267 -29.590454 -27.763794z" fill-rule="nonzero"></path><path stroke="#000000" stroke-width="4.0" stroke-linejoin="round" stroke-linecap="butt" d="m1188.9077 451.52792l0 0c0 -15.333496 13.248047 -27.763763 29.590454 -27.763763l0 0c7.8479004 0 15.37439 2.9251099 20.923706 8.131805c5.5493164 5.206726 8.66687 12.268555 8.66687 19.631958l0 0c0 15.333527 -13.248169 27.763794 -29.590576 27.763794l0 0c-16.342407 0 -29.590454 -12.430267 -29.590454 -27.763794z" fill-rule="nonzero"></path><path fill="#000000" d="m1224.4825 449.33356l0 1.703125l-4.5625 0q1.5 0.859375 2.4375 2.171875q0.953125 1.296875 0.953125 2.765625q0 1.90625 -1.5 3.171875q-1.5 1.25 -3.421875 1.25q-2.25 0 -3.890625 -1.765625q-1.640625 -1.78125 -1.640625 -4.140625q0 -1.671875 0.859375 -2.9375q0.859375 -1.28125 2.0 -1.75q1.140625 -0.46875 3.09375 -0.46875l5.671875 0zm-5.34375 1.703125l-0.421875 0q-1.75 0 -2.796875 0.875q-1.046875 0.875 -1.046875 2.734375q0 1.984375 1.09375 3.5q1.109375 1.515625 2.578125 1.515625q1.1875 0 1.953125 -1.140625q0.78125 -1.140625 0.78125 -2.75q0 -2.578125 -2.140625 -4.734375z" fill-rule="nonzero"></path><path fill="#f4cccc" d="m1169.3416 569.4467l0 0c0 -15.333496 21.039062 -27.763794 46.992065 -27.763794l0 0c25.953003 0 46.992188 12.430298 46.992188 27.763794l0 0c0 15.333496 -21.039185 27.763794 -46.992188 27.763794l0 0c-25.953003 0 -46.992065 -12.430298 -46.992065 -27.763794z" fill-rule="nonzero"></path><path stroke="#000000" stroke-width="4.0" stroke-linejoin="round" stroke-linecap="butt" d="m1169.3416 569.4467l0 0c0 -15.333496 21.039062 -27.763794 46.992065 -27.763794l0 0c25.953003 0 46.992188 12.430298 46.992188 27.763794l0 0c0 15.333496 -21.039185 27.763794 -46.992188 27.763794l0 0c-25.953003 0 -46.992065 -12.430298 -46.992065 -27.763794z" fill-rule="nonzero"></path><path fill="#000000" d="m1195.4764 567.3042l0 -0.859375q0.25 -0.0625 0.578125 -0.171875q0.34375 -0.125 0.4375 -0.1875q0.3125 -0.21875 0.5 -0.71875q0.140625 -0.3125 0.359375 -0.984375q0.21875 -0.671875 0.296875 -1.03125l1.1875 0l0.015625 2.65625l3.0625 0l0 1.296875l-3.046875 0l0 5.515625q0 1.109375 0.0625 1.546875q0.0625 0.4375 0.25 0.5625q0.203125 0.109375 0.71875 0.109375l0.015625 0q0.46875 0 1.0625 -0.109375q0.609375 -0.125 0.9375 -0.25l0 0l0.3125 0.890625q-0.265625 0.21875 -0.8125 0.453125q-0.546875 0.234375 -1.1875 0.390625q-0.625 0.15625 -1.15625 0.15625l-0.015625 0q-1.125 0 -1.703125 -0.5q-0.578125 -0.5 -0.578125 -1.65625l0 -7.109375l-1.296875 0zm13.863037 2.296875q0 -0.859375 -0.1875 -1.34375q-0.171875 -0.5 -0.609375 -0.71875q-0.4375 -0.234375 -1.234375 -0.234375q-1.53125 0 -3.234375 0.859375l-0.015625 0l-0.453125 -0.9375q0.25 -0.21875 0.9375 -0.5625q0.703125 -0.359375 1.59375 -0.609375q0.890625 -0.265625 1.6875 -0.265625q1.328125 0 2.078125 0.359375q0.765625 0.359375 1.09375 1.15625q0.34375 0.796875 0.34375 2.140625l0 5.921875l1.125 0l0 0.890625q-1.34375 0.3125 -2.015625 0.3125q-0.375 0 -0.578125 -0.0625q-0.203125 -0.0625 -0.296875 -0.25q-0.09375 -0.203125 -0.09375 -0.609375l0 -0.4375q-0.5 0.484375 -1.296875 0.921875q-0.796875 0.4375 -1.796875 0.4375q-0.875 0 -1.59375 -0.3125q-0.703125 -0.3125 -1.125 -0.984375q-0.421875 -0.671875 -0.421875 -1.65625q0 -1.21875 0.828125 -2.0q0.84375 -0.78125 2.21875 -1.140625q1.375 -0.375 3.046875 -0.40625l0 -0.46875zm0 1.5q-1.34375 0 -2.203125 0.3125q-0.859375 0.296875 -1.25 0.796875q-0.375 0.5 -0.375 1.140625q0 0.953125 0.46875 1.40625q0.46875 0.4375 1.28125 0.4375q0.421875 0 1.03125 -0.234375q0.609375 -0.25 1.046875 -0.59375l0 -3.265625zm5.7076416 4.125l0 -7.640625l-1.3125 -0.359375l0 -1.09375l2.703125 -0.375l0.046875 0l0.421875 0.359375l0 0.734375l0 0.421875q0.421875 -0.375 1.046875 -0.71875q0.640625 -0.34375 1.359375 -0.5625q0.71875 -0.21875 1.375 -0.21875q1.1875 0 1.828125 0.453125q0.640625 0.4375 0.890625 1.359375q0.265625 0.90625 0.265625 2.484375l0 5.15625l1.3125 0.140625l0 1.0l-4.578125 0l0 -1.0l1.171875 -0.140625l0 -5.15625q0 -1.0625 -0.140625 -1.671875q-0.140625 -0.609375 -0.53125 -0.90625q-0.390625 -0.3125 -1.15625 -0.3125q-0.65625 0 -1.375 0.28125q-0.703125 0.28125 -1.25 0.6875l0 7.078125l1.265625 0.140625l0 1.0l-4.546875 0l0 -1.0l1.203125 -0.140625zm12.306763 0l0 -12.71875l-1.5 -0.171875l0 -0.875l3.078125 -0.390625l0.046875 0l0.4375 0.3125l0.015625 4.21875l-0.078125 1.640625q0.609375 -0.546875 1.609375 -1.0q1.0 -0.46875 2.0625 -0.46875q1.171875 0 1.8125 0.453125q0.65625 0.4375 0.90625 1.359375q0.265625 0.921875 0.265625 2.484375l0 5.15625l1.3125 0.140625l0 1.0l-4.578125 0l0 -0.984375l1.1875 -0.15625l0 -5.15625q0 -1.0625 -0.140625 -1.671875q-0.140625 -0.609375 -0.546875 -0.90625q-0.390625 -0.3125 -1.171875 -0.3125q-0.65625 0 -1.375 0.28125q-0.71875 0.265625 -1.265625 0.671875l0 7.09375l1.296875 0.140625l0 1.0l-4.46875 0l0 -1.0l1.09375 -0.140625z" fill-rule="nonzero"></path><path fill="#000000" fill-opacity="0.0" d="m1263.3258 569.4467c10.876587 0 16.316162 0.01574707 21.753174 0.03149414c5.4370117 0.01574707 10.87146 0.03149414 21.742798 0.03149414" fill-rule="nonzero"></path><path stroke="#000000" stroke-width="4.0" stroke-linejoin="round" stroke-linecap="butt" d="m1263.3258 569.4467c5.4383545 0 9.517334 0.003967285 12.916504 0.00982666l6.57959 0.016174316" fill-rule="evenodd"></path><path fill="#000000" stroke="#000000" stroke-width="4.0" stroke-linecap="butt" d="m1282.8116 576.0796l18.162598 -6.5789185l-18.142212 -6.6348877z" fill-rule="evenodd"></path><path fill="#f4cccc" d="m806.576 394.83063l0 0c0 -15.333496 21.039062 -27.763763 46.992126 -27.763763l0 0c25.953003 0 46.992126 12.430267 46.992126 27.763763l0 0c0 15.333527 -21.039124 27.763794 -46.992126 27.763794l0 0c-25.953064 0 -46.992126 -12.430267 -46.992126 -27.763794z" fill-rule="nonzero"></path><path stroke="#000000" stroke-width="4.0" stroke-linejoin="round" stroke-linecap="butt" d="m806.576 394.83063l0 0c0 -15.333496 21.039062 -27.763763 46.992126 -27.763763l0 0c25.953003 0 46.992126 12.430267 46.992126 27.763763l0 0c0 15.333527 -21.039124 27.763794 -46.992126 27.763794l0 0c-25.953064 0 -46.992126 -12.430267 -46.992126 -27.763794z" fill-rule="nonzero"></path><path fill="#000000" d="m835.24634 398.79752l0.359375 1.375q0.109375 0.1875 0.421875 0.375q0.3125 0.171875 0.734375 0.28125q0.4375 0.109375 0.875 0.109375q1.03125 0 1.46875 -0.390625q0.4375 -0.390625 0.4375 -1.0625q0 -0.46875 -0.296875 -0.828125q-0.296875 -0.375 -0.875 -0.6875q-0.578125 -0.3125 -1.578125 -0.71875q-1.453125 -0.5625 -2.125 -1.328125q-0.65625 -0.78125 -0.65625 -2.0q0 -0.8125 0.484375 -1.4375q0.5 -0.625 1.359375 -0.96875q0.875 -0.34375 1.96875 -0.34375q0.828125 0 1.46875 0.125q0.640625 0.125 1.28125 0.34375l0.328125 0.09375l0 2.3125l-1.15625 0l-0.390625 -1.28125q-0.109375 -0.234375 -0.59375 -0.40625q-0.484375 -0.171875 -1.078125 -0.171875q-0.828125 0 -1.296875 0.359375q-0.453125 0.34375 -0.453125 0.921875q0 0.515625 0.265625 0.859375q0.28125 0.34375 0.671875 0.5625q0.40625 0.21875 1.125 0.515625l0.359375 0.15625q1.03125 0.453125 1.671875 0.84375q0.65625 0.390625 1.078125 1.0q0.4375 0.609375 0.4375 1.5q0 0.90625 -0.484375 1.59375q-0.46875 0.6875 -1.375 1.078125q-0.90625 0.375 -2.140625 0.375q-0.9375 0 -1.96875 -0.25q-1.015625 -0.25 -1.625 -0.53125l0 -2.375l1.296875 0zm12.829346 3.15625q-0.40625 0 -0.90625 -0.0625q-0.484375 -0.0625 -0.828125 -0.15625l0.0625 1.546875l0 1.796875l1.859375 0.203125l0 0.984375l-5.296875 0l0 -0.984375l1.359375 -0.203125l0 -12.109375l-1.296875 -0.359375l0 -1.09375l2.6875 -0.375l0.046875 0l0.40625 0.359375l0 1.046875q0.546875 -0.609375 1.34375 -1.015625q0.8125 -0.421875 1.8125 -0.421875q1.125 0 2.03125 0.546875q0.921875 0.53125 1.46875 1.6875q0.5625 1.140625 0.5625 2.859375q0 1.59375 -0.65625 2.90625q-0.640625 1.3125 -1.84375 2.078125q-1.203125 0.765625 -2.8125 0.765625zm-1.671875 -1.609375q0.125 0.234375 0.609375 0.40625q0.5 0.171875 1.125 0.171875q0.890625 0 1.5625 -0.46875q0.671875 -0.46875 1.0625 -1.484375q0.40625 -1.015625 0.40625 -2.578125q0 -1.328125 -0.359375 -2.1875q-0.34375 -0.875 -0.953125 -1.28125q-0.59375 -0.421875 -1.375 -0.421875q-0.640625 0 -1.203125 0.265625q-0.546875 0.265625 -0.875 0.625l0 6.953125zm9.897034 0.265625l0 -12.71875l-1.5 -0.171875l0 -0.875l3.109375 -0.390625l0.015625 0l0.453125 0.3125l0 13.84375l1.546875 0.140625l0 1.0l-5.09375 0l0 -1.0l1.46875 -0.140625zm6.314209 0l0 -7.640625l-1.328125 -0.375l0 -1.078125l2.90625 -0.375l0.046875 0l0.453125 0.359375l0 9.109375l1.46875 0.140625l0 1.0l-5.03125 0l0 -1.0l1.484375 -0.140625zm-0.375 -12.421875q0 -0.625 0.359375 -1.046875q0.359375 -0.4375 1.015625 -0.4375l0 0q0.390625 0 0.671875 0.1875q0.28125 0.171875 0.421875 0.46875q0.15625 0.296875 0.15625 0.609375q0 0.640625 -0.375 1.0625q-0.359375 0.40625 -1.046875 0.40625l-0.015625 0q-0.515625 0 -0.859375 -0.359375q-0.328125 -0.359375 -0.328125 -0.890625zm5.036865 4.5l0 -0.859375q0.25 -0.0625 0.578125 -0.171875q0.34375 -0.125 0.4375 -0.1875q0.3125 -0.21875 0.5 -0.71875q0.140625 -0.3125 0.359375 -0.984375q0.21875 -0.671875 0.296875 -1.03125l1.1875 0l0.015625 2.65625l3.0625 0l0 1.296875l-3.046875 0l0 5.515625q0 1.109375 0.0625 1.546875q0.0625 0.4375 0.25 0.5625q0.203125 0.109375 0.71875 0.109375l0.015625 0q0.46875 0 1.0625 -0.109375q0.609375 -0.125 0.9375 -0.25l0 0l0.3125 0.890625q-0.265625 0.21875 -0.8125 0.453125q-0.546875 0.234375 -1.1875 0.390625q-0.625 0.15625 -1.15625 0.15625l-0.015625 0q-1.125 0 -1.703125 -0.5q-0.578125 -0.5 -0.578125 -1.65625l0 -7.109375l-1.296875 0z" fill-rule="nonzero"></path><path fill="#fce5cd" d="m1035.9719 215.68771l0 0c0 -21.691315 17.168335 -39.27559 38.346436 -39.27559l0 0c10.170166 0 19.923706 4.1379547 27.115112 11.503555c7.191284 7.3656006 11.231323 17.3555 11.231323 27.772034l0 0c0 21.691315 -17.168213 39.27559 -38.346436 39.27559l0 0c-21.1781 0 -38.346436 -17.584274 -38.346436 -39.27559z" fill-rule="nonzero"></path><path stroke="#000000" stroke-width="4.0" stroke-linejoin="round" stroke-linecap="butt" d="m1035.9719 215.68771l0 0c0 -21.691315 17.168335 -39.27559 38.346436 -39.27559l0 0c10.170166 0 19.923706 4.1379547 27.115112 11.503555c7.191284 7.3656006 11.231323 17.3555 11.231323 27.772034l0 0c0 21.691315 -17.168213 39.27559 -38.346436 39.27559l0 0c-21.1781 0 -38.346436 -17.584274 -38.346436 -39.27559z" fill-rule="nonzero"></path><path fill="#000000" d="m1073.7598 215.52458q0 -1.109375 -0.234375 -1.734375q-0.21875 -0.640625 -0.78125 -0.921875q-0.5625 -0.296875 -1.59375 -0.296875q-1.984375 0 -4.171875 1.109375l-0.015625 0l-0.578125 -1.21875q0.3125 -0.28125 1.203125 -0.71875q0.90625 -0.453125 2.046875 -0.78125q1.140625 -0.34375 2.171875 -0.34375q1.71875 0 2.6875 0.46875q0.984375 0.453125 1.40625 1.484375q0.4375 1.015625 0.4375 2.75l0 7.609375l1.4375 0l0 1.15625q-1.71875 0.40625 -2.578125 0.40625q-0.5 0 -0.765625 -0.078125q-0.25 -0.078125 -0.375 -0.328125q-0.109375 -0.265625 -0.109375 -0.78125l0 -0.5625q-0.640625 0.609375 -1.671875 1.1875q-1.03125 0.5625 -2.3125 0.5625q-1.125 0 -2.046875 -0.40625q-0.90625 -0.40625 -1.453125 -1.265625q-0.546875 -0.859375 -0.546875 -2.140625q0 -1.546875 1.078125 -2.546875q1.09375 -1.015625 2.84375 -1.484375q1.765625 -0.484375 3.921875 -0.515625l0 -0.609375zm0 1.921875q-1.71875 0 -2.828125 0.40625q-1.109375 0.390625 -1.609375 1.03125q-0.484375 0.640625 -0.484375 1.46875q0 1.21875 0.609375 1.796875q0.609375 0.578125 1.640625 0.578125q0.546875 0 1.328125 -0.3125q0.78125 -0.3125 1.34375 -0.75l0 -4.21875z" fill-rule="nonzero"></path><path fill="#000000" d="m1080.2441 232.24333l0 -6.546875l-1.125 -0.328125l0 -0.921875l2.484375 -0.3125l0.03125 0l0.40625 0.296875l0 7.8125l1.25 0.125l0 0.859375l-4.3125 0l0 -0.859375l1.265625 -0.125zm-0.3125 -10.65625q0 -0.53125 0.3125 -0.890625q0.3125 -0.375 0.859375 -0.375l0.015625 0q0.328125 0 0.5625 0.15625q0.25 0.15625 0.375 0.40625q0.125 0.25 0.125 0.53125q0 0.546875 -0.3125 0.90625q-0.3125 0.34375 -0.90625 0.34375l0 0q-0.453125 0 -0.75 -0.296875q-0.28125 -0.3125 -0.28125 -0.78125z" fill-rule="nonzero"></path><path fill="#000000" fill-opacity="0.0" d="m731.11597 394.82834c18.868408 0 28.303772 0.01574707 37.736816 0.03149414c9.433044 0.01574707 18.863892 0.03149414 37.727783 0.03149414" fill-rule="nonzero"></path><path stroke="#000000" stroke-width="4.0" stroke-linejoin="round" stroke-linecap="butt" d="m731.11597 394.82834c18.86847 0 28.30371 0.01574707 37.736816 0.03149414l13.727783 0.019378662" fill-rule="evenodd"></path><path fill="#000000" stroke="#000000" stroke-width="4.0" stroke-linecap="butt" d="m782.5772 401.48615l18.1557 -6.5977783l-18.149048 -6.616089z" fill-rule="evenodd"></path><path fill="#000000" fill-opacity="0.0" d="m1112.6648 215.68771c18.518677 0 27.777344 0.01574707 37.03723 0.03149414c9.259766 0.01574707 18.520752 0.03149414 37.041504 0.03149414" fill-rule="nonzero"></path><path stroke="#000000" stroke-width="4.0" stroke-linejoin="round" stroke-linecap="butt" d="m1112.6649 215.68773c18.518433 0 27.777222 0.01574707 37.03711 0.03149414l13.041626 0.01876831" fill-rule="evenodd"></path><path fill="#000000" stroke="#000000" stroke-width="4.0" stroke-linecap="butt" d="m1162.7401 222.34491l18.155884 -6.59729l-18.148926 -6.616562z" fill-rule="evenodd"></path><path fill="#fce5cd" d="m1035.9719 333.80634l0 0c0 -21.691315 17.168335 -39.275604 38.346436 -39.275604l0 0c10.170166 0 19.923706 4.13797 27.115112 11.503571c7.191284 7.3656006 11.231323 17.3555 11.231323 27.772034l0 0c0 21.691315 -17.168213 39.275574 -38.346436 39.275574l0 0c-21.1781 0 -38.346436 -17.584259 -38.346436 -39.275574z" fill-rule="nonzero"></path><path stroke="#000000" stroke-width="4.0" stroke-linejoin="round" stroke-linecap="butt" d="m1035.9719 333.80634l0 0c0 -21.691315 17.168335 -39.275604 38.346436 -39.275604l0 0c10.170166 0 19.923706 4.13797 27.115112 11.503571c7.191284 7.3656006 11.231323 17.3555 11.231323 27.772034l0 0c0 21.691315 -17.168213 39.275574 -38.346436 39.275574l0 0c-21.1781 0 -38.346436 -17.584259 -38.346436 -39.275574z" fill-rule="nonzero"></path><path fill="#000000" d="m1073.2012 333.64322q0 -1.109375 -0.234375 -1.734375q-0.21875 -0.640625 -0.78125 -0.921875q-0.5625 -0.296875 -1.59375 -0.296875q-1.984375 0 -4.171875 1.109375l-0.015625 0l-0.578125 -1.21875q0.3125 -0.28125 1.203125 -0.71875q0.90625 -0.453125 2.046875 -0.78125q1.140625 -0.34375 2.171875 -0.34375q1.71875 0 2.6875 0.46875q0.984375 0.453125 1.40625 1.484375q0.4375 1.015625 0.4375 2.75l0 7.609375l1.4375 0l0 1.15625q-1.71875 0.40625 -2.578125 0.40625q-0.5 0 -0.765625 -0.078125q-0.25 -0.078125 -0.375 -0.328125q-0.109375 -0.265625 -0.109375 -0.78125l0 -0.5625q-0.640625 0.609375 -1.671875 1.1875q-1.03125 0.5625 -2.3125 0.5625q-1.125 0 -2.046875 -0.40625q-0.90625 -0.40625 -1.453125 -1.265625q-0.546875 -0.859375 -0.546875 -2.140625q0 -1.546875 1.078125 -2.546875q1.09375 -1.015625 2.84375 -1.484375q1.765625 -0.484375 3.921875 -0.515625l0 -0.609375zm0 1.921875q-1.71875 0 -2.828125 0.40625q-1.109375 0.390625 -1.609375 1.03125q-0.484375 0.640625 -0.484375 1.46875q0 1.21875 0.609375 1.796875q0.609375 0.578125 1.640625 0.578125q0.546875 0 1.328125 -0.3125q0.78125 -0.3125 1.34375 -0.75l0 -4.21875z" fill-rule="nonzero"></path><path fill="#000000" d="m1079.8262 350.34634l0 -6.75l-1.484375 0l0 -0.765625l1.484375 -0.359375l0 -0.734375q0 -1.0 0.53125 -1.828125q0.546875 -0.84375 1.40625 -1.328125q0.875 -0.484375 1.796875 -0.484375q0.34375 0 0.53125 0.03125q0.203125 0.03125 0.40625 0.09375l0 1.75q-0.171875 -0.140625 -0.59375 -0.265625q-0.421875 -0.140625 -0.921875 -0.140625q-0.53125 0 -0.828125 0.140625q-0.28125 0.125 -0.421875 0.46875q-0.125 0.328125 -0.125 0.953125l0.015625 1.34375l2.140625 0l0 1.125l-2.140625 0l0 6.765625l1.6875 0.140625l0 0.84375l-4.796875 0l0 -0.84375l1.3125 -0.15625z" fill-rule="nonzero"></path><path fill="#fce5cd" d="m1035.9706 451.8127l0 0c0 -21.691315 17.168335 -39.275604 38.346436 -39.275604l0 0c10.170166 0 19.923706 4.13797 27.115112 11.503571c7.191284 7.3656006 11.231323 17.3555 11.231323 27.772034l0 0c0 21.691315 -17.168213 39.275604 -38.346436 39.275604l0 0c-21.1781 0 -38.346436 -17.58429 -38.346436 -39.275604z" fill-rule="nonzero"></path><path stroke="#000000" stroke-width="4.0" stroke-linejoin="round" stroke-linecap="butt" d="m1035.9706 451.8127l0 0c0 -21.691315 17.168335 -39.275604 38.346436 -39.275604l0 0c10.170166 0 19.923706 4.13797 27.115112 11.503571c7.191284 7.3656006 11.231323 17.3555 11.231323 27.772034l0 0c0 21.691315 -17.168213 39.275604 -38.346436 39.275604l0 0c-21.1781 0 -38.346436 -17.58429 -38.346436 -39.275604z" fill-rule="nonzero"></path><path fill="#000000" d="m1071.6764 451.6496q0 -1.109375 -0.234375 -1.734375q-0.21875 -0.640625 -0.78125 -0.921875q-0.5625 -0.296875 -1.59375 -0.296875q-1.984375 0 -4.171875 1.109375l-0.015625 0l-0.578125 -1.21875q0.3125 -0.28125 1.203125 -0.71875q0.90625 -0.453125 2.046875 -0.78125q1.140625 -0.34375 2.171875 -0.34375q1.71875 0 2.6875 0.46875q0.984375 0.453125 1.40625 1.484375q0.4375 1.015625 0.4375 2.75l0 7.609375l1.4375 0l0 1.15625q-1.71875 0.40625 -2.578125 0.40625q-0.5 0 -0.765625 -0.078125q-0.25 -0.078125 -0.375 -0.328125q-0.109375 -0.265625 -0.109375 -0.78125l0 -0.5625q-0.640625 0.609375 -1.671875 1.1875q-1.03125 0.5625 -2.3125 0.5625q-1.125 0 -2.046875 -0.40625q-0.90625 -0.40625 -1.453125 -1.265625q-0.546875 -0.859375 -0.546875 -2.140625q0 -1.546875 1.078125 -2.546875q1.09375 -1.015625 2.84375 -1.484375q1.765625 -0.484375 3.921875 -0.515625l0 -0.609375zm0 1.921875q-1.71875 0 -2.828125 0.40625q-1.109375 0.390625 -1.609375 1.03125q-0.484375 0.640625 -0.484375 1.46875q0 1.21875 0.609375 1.796875q0.609375 0.578125 1.640625 0.578125q0.546875 0 1.328125 -0.3125q0.78125 -0.3125 1.34375 -0.75l0 -4.21875z" fill-rule="nonzero"></path><path fill="#000000" d="m1081.1451 460.22772q1.359375 0 2.265625 0.609375q0.90625 0.59375 1.34375 1.640625q0.4375 1.046875 0.4375 2.40625q0 1.4375 -0.609375 2.5q-0.59375 1.046875 -1.5625 1.609375q-0.96875 0.546875 -2.078125 0.546875q-1.359375 0 -2.265625 -0.609375q-0.890625 -0.609375 -1.328125 -1.65625q-0.4375 -1.046875 -0.4375 -2.40625q0 -1.421875 0.59375 -2.46875q0.59375 -1.0625 1.5625 -1.609375q0.984375 -0.5625 2.078125 -0.5625zm2.0625 4.796875q0 -1.765625 -0.515625 -2.796875q-0.515625 -1.03125 -1.640625 -1.03125q-1.078125 0 -1.625 0.890625q-0.546875 0.875 -0.546875 2.640625q0 1.765625 0.515625 2.796875q0.53125 1.03125 1.65625 1.03125q2.15625 0 2.15625 -3.53125z" fill-rule="nonzero"></path><path fill="#fce5cd" d="m1035.9719 569.12354l0 0c0 -21.691284 17.168335 -39.275574 38.346436 -39.275574l0 0c10.170166 0 19.923706 4.1379395 27.115112 11.50354c7.191284 7.3656006 11.231323 17.35553 11.231323 27.772034l0 0c0 21.691345 -17.168213 39.275574 -38.346436 39.275574l0 0c-21.1781 0 -38.346436 -17.584229 -38.346436 -39.275574z" fill-rule="nonzero"></path><path stroke="#000000" stroke-width="4.0" stroke-linejoin="round" stroke-linecap="butt" d="m1035.9719 569.12354l0 0c0 -21.691284 17.168335 -39.275574 38.346436 -39.275574l0 0c10.170166 0 19.923706 4.1379395 27.115112 11.50354c7.191284 7.3656006 11.231323 17.35553 11.231323 27.772034l0 0c0 21.691345 -17.168213 39.275574 -38.346436 39.275574l0 0c-21.1781 0 -38.346436 -17.584229 -38.346436 -39.275574z" fill-rule="nonzero"></path><path fill="#000000" d="m1071.541 568.9604q0 -1.109375 -0.234375 -1.734375q-0.21875 -0.640625 -0.78125 -0.921875q-0.5625 -0.296875 -1.59375 -0.296875q-1.984375 0 -4.171875 1.109375l-0.015625 0l-0.578125 -1.21875q0.3125 -0.28125 1.203125 -0.71875q0.90625 -0.453125 2.046875 -0.78125q1.140625 -0.34375 2.171875 -0.34375q1.71875 0 2.6875 0.46875q0.984375 0.453125 1.40625 1.484375q0.4375 1.015625 0.4375 2.75l0 7.609375l1.4375 0l0 1.15625q-1.71875 0.40625 -2.578125 0.40625q-0.5 0 -0.765625 -0.078125q-0.25 -0.078125 -0.375 -0.328125q-0.109375 -0.265625 -0.109375 -0.78125l0 -0.5625q-0.640625 0.609375 -1.671875 1.1875q-1.03125 0.5625 -2.3125 0.5625q-1.125 0 -2.046875 -0.40625q-0.90625 -0.40625 -1.453125 -1.265625q-0.546875 -0.859375 -0.546875 -2.140625q0 -1.546875 1.078125 -2.546875q1.09375 -1.015625 2.84375 -1.484375q1.765625 -0.484375 3.921875 -0.515625l0 -0.609375zm0 1.921875q-1.71875 0 -2.828125 0.40625q-1.109375 0.390625 -1.609375 1.03125q-0.484375 0.640625 -0.484375 1.46875q0 1.21875 0.609375 1.796875q0.609375 0.578125 1.640625 0.578125q0.546875 0 1.328125 -0.3125q0.78125 -0.3125 1.34375 -0.75l0 -4.21875z" fill-rule="nonzero"></path><path fill="#000000" d="m1080.6973 583.49164q-0.640625 0 -1.203125 -0.125q-0.21875 0.1875 -0.34375 0.453125q-0.125 0.25 -0.125 0.515625q0 0.390625 0.1875 0.59375q0.1875 0.203125 0.546875 0.28125q0.375 0.078125 1.03125 0.078125l1.703125 0q3.046875 0 3.046875 2.359375q0 0.90625 -0.640625 1.671875q-0.640625 0.765625 -1.71875 1.203125q-1.078125 0.453125 -2.3125 0.453125l-0.015625 0q-2.09375 0 -3.046875 -0.640625q-0.9375 -0.625 -0.9375 -1.796875q0 -0.71875 0.421875 -1.3125q0.4375 -0.59375 1.03125 -0.90625q-0.75 -0.421875 -0.75 -1.3125q0 -0.578125 0.328125 -1.078125q0.34375 -0.5 0.890625 -0.796875q-0.78125 -0.359375 -1.203125 -1.015625q-0.421875 -0.671875 -0.421875 -1.546875q0 -0.921875 0.515625 -1.609375q0.53125 -0.6875 1.375 -1.046875q0.859375 -0.375 1.828125 -0.375l0.015625 0q0.84375 0 1.515625 0.1875q0.671875 0.1875 1.125 0.5625q0.234375 -0.265625 0.703125 -0.515625q0.46875 -0.25 1.109375 -0.25l0.421875 0l0 1.515625l-1.640625 0q0.265625 0.5625 0.265625 1.25q0 0.9375 -0.484375 1.671875q-0.484375 0.734375 -1.328125 1.140625q-0.84375 0.390625 -1.890625 0.390625l0 0zm0.09375 -5.046875q-0.84375 0 -1.3125 0.46875q-0.46875 0.453125 -0.46875 1.484375q0 0.984375 0.4375 1.578125q0.453125 0.59375 1.421875 0.59375l0 0q0.890625 0 1.296875 -0.53125q0.40625 -0.53125 0.40625 -1.5625q0 -1.046875 -0.4375 -1.53125q-0.4375 -0.5 -1.34375 -0.5l0 0zm-1.671875 8.15625q-0.5 0.625 -0.5 1.484375q0 0.9375 0.546875 1.421875q0.5625 0.484375 1.828125 0.484375l0.015625 0q0.703125 0 1.34375 -0.21875q0.640625 -0.21875 1.03125 -0.65625q0.40625 -0.421875 0.40625 -1.015625q0 -0.515625 -0.15625 -0.8125q-0.140625 -0.28125 -0.546875 -0.4375q-0.40625 -0.140625 -1.1875 -0.140625l-1.5625 0q-0.640625 0 -1.21875 -0.109375z" fill-rule="nonzero"></path><path fill="#000000" fill-opacity="0.0" d="m1112.6648 333.80634c18.518677 0 27.777344 -0.04724121 37.03723 -0.09448242c9.259766 -0.04724121 18.520752 -0.09448242 37.041504 -0.09448242" fill-rule="nonzero"></path><path stroke="#000000" stroke-width="4.0" stroke-linejoin="round" stroke-linecap="butt" d="m1112.6649 333.80634c18.518433 0 27.777222 -0.04724121 37.03711 -0.09448242c2.3149414 -0.011810303 4.630005 -0.023620605 7.0897217 -0.034698486l5.9519043 -0.022644043" fill-rule="evenodd"></path><path fill="#000000" stroke="#000000" stroke-width="4.0" stroke-linecap="butt" d="m1162.7539 340.26144l18.14209 -6.6350403l-18.162598 -6.578827z" fill-rule="evenodd"></path><path fill="#000000" fill-opacity="0.0" d="m1112.6635 451.8127c19.062256 0 28.593018 -0.07086182 38.12451 -0.14172363c9.531494 -0.07086182 19.06372 -0.14175415 38.12744 -0.14175415" fill-rule="nonzero"></path><path stroke="#000000" stroke-width="4.0" stroke-linejoin="round" stroke-linecap="butt" d="m1112.6635 451.8127c19.062256 0 28.593018 -0.07086182 38.12451 -0.14175415c2.3829346 -0.017700195 4.765869 -0.03543091 7.2976074 -0.05203247c1.2661133 -0.008270264 2.5692139 -0.016326904 3.9282227 -0.023956299l2.9017334 -0.014587402" fill-rule="evenodd"></path><path fill="#000000" stroke="#000000" stroke-width="4.0" stroke-linecap="butt" d="m1164.9296 458.1873l18.138306 -6.6455994l-18.166504 -6.568207z" fill-rule="evenodd"></path><path fill="#000000" fill-opacity="0.0" d="m1112.6648 569.12354c14.168213 0 21.253784 0.07873535 28.336426 0.1574707c7.0826416 0.07873535 14.162476 0.1574707 28.325073 0.1574707" fill-rule="nonzero"></path><path stroke="#000000" stroke-width="4.0" stroke-linejoin="round" stroke-linecap="butt" d="m1112.6649 569.12354c14.168091 0 21.253662 0.07873535 28.336304 0.1574707l4.3253174 0.046142578" fill-rule="evenodd"></path><path fill="#000000" stroke="#000000" stroke-width="4.0" stroke-linecap="butt" d="m1145.2959 575.93396l18.182861 -6.522583l-18.121582 -6.691101z" fill-rule="evenodd"></path></g></svg>

