<?xml version="1.0" standalone="yes"?>

<svg version="1.1" viewBox="0.0 0.0 1082.8503937007874 487.5748031496063" fill="none" stroke="none" stroke-linecap="square" stroke-miterlimit="10" xmlns="http://www.w3.org/2000/svg" xmlns:xlink="http://www.w3.org/1999/xlink"><clipPath id="p.0"><path d="m0 0l1082.8503 0l0 487.5748l-1082.8503 0l0 -487.5748z" clip-rule="nonzero"></path></clipPath><g clip-path="url(#p.0)"><path fill="#000000" fill-opacity="0.0" d="m0 0l1082.8503 0l0 487.5748l-1082.8503 0z" fill-rule="nonzero"></path><path fill="#000000" fill-opacity="0.0" d="m148.62445 368.11014c196.63385 0 294.95276 0.01574707 393.2677 0.03149414c98.31494 0.01574707 196.62598 0.03149414 393.252 0.03149414" fill-rule="nonzero"></path><path stroke="#000000" stroke-width="4.0" stroke-linejoin="round" stroke-linecap="butt" d="m148.62445 368.1101c196.63388 0 294.95273 0.01574707 393.2677 0.03149414c49.15747 0.007873535 98.313965 0.01574707 159.75934 0.02166748c30.722717 0.002960205 64.51764 0.0054016113 102.92096 0.0071411133l106.571655 0.0021972656" fill-rule="evenodd"></path><path fill="#000000" stroke="#000000" stroke-width="4.0" stroke-linecap="butt" d="m911.144 374.77954l18.152527 -6.6065674l-18.152283 -6.6073z" fill-rule="evenodd"></path><path fill="#000000" fill-opacity="0.0" d="m148.6094 121.86999c196.63388 0 294.94882 -0.5984268 393.26773 -1.196846c98.31891 -0.5984268 196.64172 -1.1968536 393.28345 -1.1968536" fill-rule="nonzero"></path><path stroke="#000000" stroke-width="4.0" stroke-linejoin="round" stroke-linecap="butt" d="m148.6094 121.86999c196.63388 0 294.94882 -0.5984268 393.26773 -1.1968536c49.159424 -0.2992096 98.319885 -0.5984192 159.77069 -0.8228302c30.725342 -0.112205505 64.52338 -0.20571136 102.930115 -0.27116394c19.20337 -0.032722473 39.5589 -0.058441162 61.258667 -0.07597351c10.849915 -0.008766174 22.035828 -0.015487671 33.58185 -0.020011902l11.742126 -0.0022583008" fill-rule="evenodd"></path><path fill="#000000" stroke="#000000" stroke-width="4.0" stroke-linecap="butt" d="m911.16187 126.08783l18.151123 -6.61042l-18.153687 -6.6034393z" fill-rule="evenodd"></path><path fill="#d9ead3" d="m64.01099 121.86999l0 0c0 -21.908745 18.938004 -39.66929 42.29921 -39.66929l0 0c11.218452 0 21.977417 4.179428 29.910065 11.618866c7.9326324 7.43943 12.389145 17.529472 12.389145 28.050423l0 0c0 21.908745 -18.938004 39.66929 -42.29921 39.66929l0 0c-23.361206 0 -42.29921 -17.760544 -42.29921 -39.66929z" fill-rule="nonzero"></path><path stroke="#000000" stroke-width="4.0" stroke-linejoin="round" stroke-linecap="butt" d="m64.01099 121.86999l0 0c0 -21.908745 18.938004 -39.66929 42.29921 -39.66929l0 0c11.218452 0 21.977417 4.179428 29.910065 11.618866c7.9326324 7.43943 12.389145 17.529472 12.389145 28.050423l0 0c0 21.908745 -18.938004 39.66929 -42.29921 39.66929l0 0c-23.361206 0 -42.29921 -17.760544 -42.29921 -39.66929z" fill-rule="nonzero"></path><path fill="#000000" d="m95.99184 116.72249q1.6875 0 3.609375 0.71875l-0.125 3.609375l-1.625 0l-0.53125 -2.1875q-0.171875 -0.390625 -0.65625 -0.578125q-0.484375 -0.1875 -1.171875 -0.1875q-1.03125 0 -1.796875 0.578125q-0.75 0.5625 -1.171875 1.703125q-0.421875 1.125 -0.421875 2.78125q0 1.9375 0.5 3.21875q0.5 1.28125 1.359375 1.890625q0.875 0.609375 1.96875 0.609375q1.015625 0 1.875 -0.296875q0.875 -0.3125 1.484375 -0.734375l0.5 1.078125q-0.421875 0.421875 -1.125 0.828125q-0.703125 0.40625 -1.578125 0.65625q-0.875 0.265625 -1.75 0.265625q-1.984375 0 -3.359375 -0.875q-1.359375 -0.875 -2.046875 -2.40625q-0.6875 -1.53125 -0.6875 -3.484375q0 -2.0 0.765625 -3.625q0.78125 -1.640625 2.296875 -2.59375q1.53125 -0.96875 3.6875 -0.96875z" fill-rule="nonzero"></path><path fill="#000000" d="m101.13637 131.64436l0 -0.75q0.21875 -0.046875 0.5 -0.140625q0.28125 -0.109375 0.375 -0.171875q0.25 -0.1875 0.421875 -0.609375q0.109375 -0.265625 0.296875 -0.84375q0.203125 -0.578125 0.265625 -0.875l1.015625 0l0.015625 2.265625l2.625 0l0 1.125l-2.609375 0l0 4.71875q0 0.953125 0.046875 1.328125q0.0625 0.375 0.21875 0.484375q0.171875 0.09375 0.625 0.09375l0 0q0.40625 0 0.921875 -0.09375q0.515625 -0.109375 0.796875 -0.21875l0 0l0.265625 0.765625q-0.234375 0.1875 -0.703125 0.390625q-0.46875 0.203125 -1.015625 0.328125q-0.53125 0.140625 -0.984375 0.140625l-0.015625 0q-0.96875 0 -1.46875 -0.421875q-0.484375 -0.4375 -0.484375 -1.4375l0 -6.078125l-1.109375 0zm14.421875 2.3125l0 1.265625l-6.640625 0l0 -1.265625l6.640625 0zm4.703125 4.40625l0 -7.0625q-0.3125 0.125 -1.0 0.28125q-0.6875 0.140625 -1.09375 0.171875l-0.1875 -0.953125q0.828125 -0.1875 1.640625 -0.578125q0.828125 -0.40625 1.421875 -0.90625l0.015625 0l1.015625 0.15625l0 8.890625l1.8125 0.1875l0 0.859375l-5.609375 0l0 -0.859375l1.984375 -0.1875z" fill-rule="nonzero"></path><path fill="#d9ead3" d="m63.99453 368.11014l0 0c0 -21.908752 18.945053 -39.66931 42.314964 -39.66931l0 0c23.369904 0 42.314957 17.76056 42.314957 39.66931l0 0c0 21.908722 -18.945053 39.66928 -42.314957 39.66928l0 0c-23.369911 0 -42.314964 -17.76056 -42.314964 -39.66928z" fill-rule="nonzero"></path><path stroke="#000000" stroke-width="4.0" stroke-linejoin="round" stroke-linecap="butt" d="m63.99453 368.11014l0 0c0 -21.908752 18.945053 -39.66931 42.314964 -39.66931l0 0c23.369904 0 42.314957 17.76056 42.314957 39.66931l0 0c0 21.908722 -18.945053 39.66928 -42.314957 39.66928l0 0c-23.369911 0 -42.314964 -17.76056 -42.314964 -39.66928z" fill-rule="nonzero"></path><path fill="#000000" d="m88.97746 375.18137l0 -16.359375l-1.9375 -0.234375l0 -1.109375l3.96875 -0.5l0.0625 0l0.5625 0.390625l0.015625 5.4375l-0.109375 2.09375q0.796875 -0.703125 2.078125 -1.28125q1.296875 -0.59375 2.65625 -0.59375q1.5 0 2.328125 0.578125q0.84375 0.5625 1.171875 1.75q0.34375 1.1875 0.34375 3.203125l0 6.609375l1.6875 0.203125l0 1.28125l-5.890625 0l0 -1.265625l1.53125 -0.203125l0 -6.640625q0 -1.359375 -0.1875 -2.140625q-0.171875 -0.78125 -0.6875 -1.171875q-0.515625 -0.390625 -1.515625 -0.390625q-0.84375 0 -1.765625 0.34375q-0.921875 0.34375 -1.625 0.875l0 9.109375l1.65625 0.203125l0 1.28125l-5.75 0l0 -1.28125l1.40625 -0.1875z" fill-rule="nonzero"></path><path fill="#000000" d="m102.94621 377.8845l0 -0.75q0.21875 -0.046875 0.5 -0.140625q0.28125 -0.109375 0.375 -0.171875q0.25 -0.1875 0.421875 -0.609375q0.109375 -0.265625 0.296875 -0.84375q0.203125 -0.578125 0.265625 -0.875l1.015625 0l0.015625 2.265625l2.625 0l0 1.125l-2.609375 0l0 4.71875q0 0.953125 0.046875 1.328125q0.0625 0.375 0.21875 0.484375q0.171875 0.09375 0.625 0.09375l0 0q0.40625 0 0.921875 -0.09375q0.515625 -0.109375 0.796875 -0.21875l0 0l0.265625 0.765625q-0.234375 0.1875 -0.703125 0.390625q-0.46875 0.203125 -1.015625 0.328125q-0.53125 0.140625 -0.984375 0.140625l-0.015625 0q-0.96875 0 -1.46875 -0.421875q-0.484375 -0.4375 -0.484375 -1.4375l0 -6.078125l-1.109375 0zm14.421875 2.3125l0 1.265625l-6.640625 0l0 -1.265625l6.640625 0zm4.703125 4.40625l0 -7.0625q-0.3125 0.125 -1.0 0.28125q-0.6875 0.140625 -1.09375 0.171875l-0.1875 -0.953125q0.828125 -0.1875 1.640625 -0.578125q0.828125 -0.40625 1.421875 -0.90625l0.015625 0l1.015625 0.15625l0 8.890625l1.8125 0.1875l0 0.859375l-5.609375 0l0 -0.859375l1.984375 -0.1875z" fill-rule="nonzero"></path><path fill="#c9daf8" fill-opacity="0.5692" d="m220.8193 134.45265l0 0c0 -30.186378 24.470886 -54.657265 54.657257 -54.657265l520.1028 0c14.496033 0 28.398315 5.7585144 38.64856 16.008736c10.250183 10.250229 16.008728 24.15252 16.008728 38.64853l0 218.62248c0 30.18637 -24.470886 54.657257 -54.657288 54.657257l-520.1028 0c-30.18637 0 -54.657257 -24.470886 -54.657257 -54.657257z" fill-rule="nonzero"></path><path stroke="#000000" stroke-width="4.0" stroke-linejoin="round" stroke-linecap="butt" d="m220.8193 134.45265l0 0c0 -30.186378 24.470886 -54.657265 54.657257 -54.657265l520.1028 0c14.496033 0 28.398315 5.7585144 38.64856 16.008736c10.250183 10.250229 16.008728 24.15252 16.008728 38.64853l0 218.62248c0 30.18637 -24.470886 54.657257 -54.657288 54.657257l-520.1028 0c-30.18637 0 -54.657257 -24.470886 -54.657257 -54.657257z" fill-rule="nonzero"></path><path fill="#d9ead3" d="m277.6736 188.40501l0 0c0 -23.935242 18.937988 -43.338593 42.299194 -43.338593l0 0c11.218475 0 21.977448 4.566025 29.910065 12.693573c7.9326477 8.127563 12.38916 19.15091 12.38916 30.64502l0 0c0 23.935226 -18.937988 43.338577 -42.299225 43.338577l0 0c-23.361206 0 -42.299194 -19.40335 -42.299194 -43.338577z" fill-rule="nonzero"></path><path stroke="#666666" stroke-width="4.0" stroke-linejoin="round" stroke-linecap="butt" d="m277.6736 188.40501l0 0c0 -23.935242 18.937988 -43.338593 42.299194 -43.338593l0 0c11.218475 0 21.977448 4.566025 29.910065 12.693573c7.9326477 8.127563 12.38916 19.15091 12.38916 30.64502l0 0c0 23.935226 -18.937988 43.338577 -42.299225 43.338577l0 0c-23.361206 0 -42.299194 -19.40335 -42.299194 -43.338577z" fill-rule="nonzero"></path><path fill="#666666" d="m302.7111 180.41376l0 -1.3125l6.546875 0l0 1.3125l-2.140625 0.3125l3.265625 11.078125l0.609375 3.1875l0.71875 -3.1875l2.6875 -9.03125l-0.65625 -2.0625l-1.65625 -0.296875l0 -1.3125l6.78125 0l0 1.3125l-2.25 0.296875l3.203125 11.09375l0.71875 3.453125l0.625 -3.453125l3.046875 -11.078125l-2.359375 -0.3125l0 -1.3125l5.828125 0l0 1.3125l-1.546875 0.3125l-4.84375 16.34375l-2.53125 0l-3.546875 -11.6875l-3.453125 11.6875l-2.40625 0l-5.0625 -16.34375l-1.578125 -0.3125z" fill-rule="nonzero"></path><path fill="#666666" d="m328.39078 204.96063l2.703125 -3.453125l-2.640625 -3.421875l-0.921875 -0.203125l0 -0.828125l4.140625 0l0 0.828125l-1.078125 0.203125l1.375 1.921875l0.46875 0.703125l0.390625 -0.6875l1.4375 -1.9375l-1.140625 -0.203125l0 -0.828125l3.4375 0l0 0.828125l-0.96875 0.203125l-2.578125 3.21875l2.765625 3.671875l0.921875 0.140625l0 0.828125l-4.171875 0l0 -0.828125l1.03125 -0.15625l-1.90625 -2.78125l-0.390625 0.703125l-1.453125 2.078125l1.296875 0.15625l0 0.828125l-3.796875 0l0 -0.828125l1.078125 -0.15625z" fill-rule="nonzero"></path><path fill="#d9ead3" d="m374.6798 247.95041l0 0c0 -23.935242 18.945068 -43.338577 42.314972 -43.338577l0 0c11.222626 0 21.985596 4.5660095 29.921173 12.693573c7.935608 8.127563 12.393768 19.150894 12.393768 30.645004l0 0c0 23.935242 -18.945038 43.338593 -42.31494 43.338593l0 0c-23.369904 0 -42.314972 -19.40335 -42.314972 -43.338593z" fill-rule="nonzero"></path><path stroke="#666666" stroke-width="4.0" stroke-linejoin="round" stroke-linecap="butt" d="m374.6798 247.95041l0 0c0 -23.935242 18.945068 -43.338577 42.314972 -43.338577l0 0c11.222626 0 21.985596 4.5660095 29.921173 12.693573c7.935608 8.127563 12.393768 19.150894 12.393768 30.645004l0 0c0 23.935242 -18.945038 43.338593 -42.31494 43.338593l0 0c-23.369904 0 -42.314972 -19.40335 -42.314972 -43.338593z" fill-rule="nonzero"></path><path fill="#666666" d="m409.6608 238.41228l0 -1.09375l3.953125 -0.5l0.0625 0l0.578125 0.390625l0 7.15625q0.703125 -0.671875 1.65625 -1.109375q0.96875 -0.453125 2.140625 -0.453125q1.421875 0 2.609375 0.6875q1.1875 0.6875 1.890625 2.171875q0.71875 1.46875 0.71875 3.6875q0 2.0625 -0.84375 3.765625q-0.84375 1.6875 -2.421875 2.671875q-1.578125 0.96876526 -3.671875 0.96876526q-1.140625 0 -2.171875 -0.15625q-1.015625 -0.15625 -1.703125 -0.375q-0.6875 -0.23439026 -0.859375 -0.39064026l0 -17.1875l-1.9375 -0.234375zm4.59375 16.234375q0.15625 0.359375 0.78125 0.5625q0.640625 0.203125 1.46875 0.203125q1.15625 0 2.03125 -0.640625q0.875 -0.65625 1.359375 -1.9375q0.5 -1.296875 0.5 -3.203125q0 -1.6875 -0.453125 -2.8125q-0.4375 -1.125 -1.21875 -1.65625q-0.765625 -0.546875 -1.75 -0.546875q-0.84375 0 -1.5625 0.390625q-0.71875 0.375 -1.15625 0.859375l0 8.78125z" fill-rule="nonzero"></path><path fill="#d9ead3" d="m277.6736 307.4943l0 0c0 -23.935242 18.937988 -43.338593 42.299194 -43.338593l0 0c11.218475 0 21.977448 4.5660095 29.910065 12.693573c7.9326477 8.127563 12.38916 19.15091 12.38916 30.64502l0 0c0 23.935211 -18.937988 43.338562 -42.299225 43.338562l0 0c-23.361206 0 -42.299194 -19.40335 -42.299194 -43.338562z" fill-rule="nonzero"></path><path stroke="#666666" stroke-width="4.0" stroke-linejoin="round" stroke-linecap="butt" d="m277.6736 307.4943l0 0c0 -23.935242 18.937988 -43.338593 42.299194 -43.338593l0 0c11.218475 0 21.977448 4.5660095 29.910065 12.693573c7.9326477 8.127563 12.38916 19.15091 12.38916 30.64502l0 0c0 23.935211 -18.937988 43.338562 -42.299225 43.338562l0 0c-23.361206 0 -42.299194 -19.40335 -42.299194 -43.338562z" fill-rule="nonzero"></path><path fill="#666666" d="m302.17203 299.50302l0 -1.3125l6.546875 0l0 1.3125l-2.140625 0.3125l3.265625 11.078125l0.609375 3.1875l0.71875 -3.1875l2.6875 -9.03125l-0.65625 -2.0625l-1.65625 -0.296875l0 -1.3125l6.78125 0l0 1.3125l-2.25 0.296875l3.203125 11.09375l0.71875 3.453125l0.625 -3.453125l3.046875 -11.078125l-2.359375 -0.3125l0 -1.3125l5.828125 0l0 1.3125l-1.546875 0.3125l-4.84375 16.34375l-2.53125 0l-3.546875 -11.6875l-3.453125 11.6875l-2.40625 0l-5.0625 -16.34375l-1.578125 -0.3125z" fill-rule="nonzero"></path><path fill="#666666" d="m328.30484 324.0499l0 -10.90625l-1.296875 -0.15625l0 -0.734375l2.65625 -0.34375l0.03125 0l0.375 0.265625l0.015625 3.625l-0.078125 1.40625q0.53125 -0.46875 1.390625 -0.859375q0.859375 -0.40625 1.765625 -0.40625q1.0 0 1.5625 0.390625q0.5625 0.375 0.78125 1.171875q0.21875 0.796875 0.21875 2.125l0 4.421875l1.125 0.125l0 0.859375l-3.921875 0l0 -0.84375l1.015625 -0.140625l0 -4.421875q0 -0.90625 -0.125 -1.421875q-0.109375 -0.53125 -0.453125 -0.78125q-0.34375 -0.265625 -1.015625 -0.265625q-0.5625 0 -1.1875 0.234375q-0.609375 0.21875 -1.078125 0.578125l0 6.078125l1.109375 0.125l0 0.859375l-3.828125 0l0 -0.859375l0.9375 -0.125z" fill-rule="nonzero"></path><path fill="#fce5cd" d="m509.92938 247.98195l0 0c0 -23.935242 18.945068 -43.338593 42.31494 -43.338593l0 0c11.222656 0 21.985596 4.566025 29.921204 12.693588c7.935608 8.127548 12.393738 19.150894 12.393738 30.645004l0 0c0 23.935226 -18.945007 43.338577 -42.31494 43.338577l0 0c-23.369873 0 -42.31494 -19.40335 -42.31494 -43.338577z" fill-rule="nonzero"></path><path stroke="#666666" stroke-width="4.0" stroke-linejoin="round" stroke-linecap="butt" d="m509.92938 247.98195l0 0c0 -23.935242 18.945068 -43.338593 42.31494 -43.338593l0 0c11.222656 0 21.985596 4.566025 29.921204 12.693588c7.935608 8.127548 12.393738 19.150894 12.393738 30.645004l0 0c0 23.935226 -18.945007 43.338577 -42.31494 43.338577l0 0c-23.369873 0 -42.31494 -19.40335 -42.31494 -43.338577z" fill-rule="nonzero"></path><path fill="#666666" d="m554.3615 247.81882q0 -1.109375 -0.234375 -1.734375q-0.21875 -0.640625 -0.78125 -0.921875q-0.5625 -0.296875 -1.59375 -0.296875q-1.984375 0 -4.171875 1.109375l-0.015625 0l-0.578125 -1.21875q0.3125 -0.28125 1.203125 -0.71875q0.90625 -0.453125 2.046875 -0.78125q1.140625 -0.34375 2.171875 -0.34375q1.71875 0 2.6875 0.46875q0.984375 0.453125 1.40625 1.484375q0.4375 1.015625 0.4375 2.75l0 7.609375l1.4375 0l0 1.15625q-1.71875 0.40625 -2.578125 0.40625q-0.5 0 -0.765625 -0.078125q-0.25 -0.078125 -0.375 -0.328125q-0.109375 -0.265625 -0.109375 -0.78125l0 -0.5625q-0.640625 0.609375 -1.671875 1.1875q-1.03125 0.5625 -2.3125 0.5625q-1.125 0 -2.046875 -0.40625q-0.90625 -0.40625 -1.453125 -1.265625q-0.546875 -0.859375 -0.546875 -2.140625q0 -1.546875 1.078125 -2.546875q1.09375 -1.015625 2.84375 -1.484375q1.765625 -0.484375 3.921875 -0.515625l0 -0.609375zm0 1.921875q-1.71875 0 -2.828125 0.40625q-1.109375 0.390625 -1.609375 1.03125q-0.484375 0.640625 -0.484375 1.46875q0 1.21875 0.609375 1.796875q0.609375 0.578125 1.640625 0.578125q0.546875 0 1.328125 -0.3125q0.78125 -0.3125 1.34375 -0.75l0 -4.21875z" fill-rule="nonzero"></path><path fill="#fce5cd" d="m610.50586 184.25687l0 0c0 -21.908737 18.937988 -39.66928 42.299194 -39.66928l0 0c11.218445 0 21.977417 4.179428 29.910034 11.618866c7.932678 7.439438 12.38916 17.529465 12.38916 28.050415l0 0c0 21.908752 -18.937988 39.669296 -42.299194 39.669296l0 0c-23.361206 0 -42.299194 -17.760544 -42.299194 -39.669296z" fill-rule="nonzero"></path><path stroke="#666666" stroke-width="4.0" stroke-linejoin="round" stroke-linecap="butt" d="m610.50586 184.25687l0 0c0 -21.908737 18.937988 -39.66928 42.299194 -39.66928l0 0c11.218445 0 21.977417 4.179428 29.910034 11.618866c7.932678 7.439438 12.38916 17.529465 12.38916 28.050415l0 0c0 21.908752 -18.937988 39.669296 -42.299194 39.669296l0 0c-23.361206 0 -42.299194 -17.760544 -42.299194 -39.669296z" fill-rule="nonzero"></path><path fill="#666666" d="m651.6039 191.3125l0 -9.8125l-1.703125 -0.484375l0 -1.375l3.734375 -0.484375l0.0625 0l0.59375 0.453125l0 11.703125l1.875 0.203125l0 1.28125l-6.453125 0l0 -1.28125l1.890625 -0.203125zm-0.46875 -15.96875q0 -0.796875 0.453125 -1.34375q0.46875 -0.546875 1.296875 -0.546875l0.015625 0q0.484375 0 0.84375 0.234375q0.375 0.21875 0.5625 0.59375q0.203125 0.375 0.203125 0.796875q0 0.8125 -0.46875 1.34375q-0.46875 0.53125 -1.359375 0.53125l-0.015625 0q-0.6875 0 -1.109375 -0.453125q-0.421875 -0.46875 -0.421875 -1.15625z" fill-rule="nonzero"></path><path fill="#fce5cd" d="m719.232 188.40576l0 0c0 -21.908752 18.937988 -39.669296 42.299194 -39.669296l0 0c11.218445 0 21.977417 4.179428 29.910034 11.618866c7.932678 7.439438 12.38916 17.52948 12.38916 28.05043l0 0c0 21.908737 -18.937988 39.669296 -42.299194 39.669296l0 0c-23.361206 0 -42.299194 -17.76056 -42.299194 -39.669296z" fill-rule="nonzero"></path><path stroke="#666666" stroke-width="4.0" stroke-linejoin="round" stroke-linecap="butt" d="m719.232 188.40576l0 0c0 -21.908752 18.937988 -39.669296 42.299194 -39.669296l0 0c11.218445 0 21.977417 4.179428 29.910034 11.618866c7.932678 7.439438 12.38916 17.52948 12.38916 28.05043l0 0c0 21.908737 -18.937988 39.669296 -42.299194 39.669296l0 0c-23.361206 0 -42.299194 -17.76056 -42.299194 -39.669296z" fill-rule="nonzero"></path><path fill="#666666" d="m759.7109 195.46138l0 -10.125l-2.25 0l0 -1.171875l2.25 -0.515625l0 -1.125q0 -1.484375 0.796875 -2.734375q0.8125 -1.25 2.109375 -1.984375q1.296875 -0.734375 2.671875 -0.734375q0.515625 0 0.8125 0.0625q0.3125 0.046875 0.59375 0.125l0 2.625q-0.234375 -0.21875 -0.875 -0.40625q-0.625 -0.203125 -1.390625 -0.203125q-0.78125 0 -1.234375 0.203125q-0.4375 0.1875 -0.625 0.703125q-0.1875 0.5 -0.1875 1.4375l0 2.03125l3.234375 0l0 1.6875l-3.234375 0l0 10.125l2.546875 0.21875l0 1.265625l-7.203125 0l0 -1.265625l1.984375 -0.21875z" fill-rule="nonzero"></path><path fill="#fce5cd" d="m719.232 307.49503l0 0c0 -21.908752 18.937988 -39.66928 42.299194 -39.66928l0 0c11.218445 0 21.977417 4.179413 29.910034 11.618866c7.932678 7.4394226 12.38916 17.52948 12.38916 28.050415l0 0c0 21.908752 -18.937988 39.66931 -42.299194 39.66931l0 0c-23.361206 0 -42.299194 -17.76056 -42.299194 -39.66931z" fill-rule="nonzero"></path><path stroke="#666666" stroke-width="4.0" stroke-linejoin="round" stroke-linecap="butt" d="m719.232 307.49503l0 0c0 -21.908752 18.937988 -39.66928 42.299194 -39.66928l0 0c11.218445 0 21.977417 4.179413 29.910034 11.618866c7.932678 7.4394226 12.38916 17.52948 12.38916 28.050415l0 0c0 21.908752 -18.937988 39.66931 -42.299194 39.66931l0 0c-23.361206 0 -42.299194 -17.76056 -42.299194 -39.66931z" fill-rule="nonzero"></path><path fill="#666666" d="m761.6757 302.34753q2.03125 0 3.390625 0.90625q1.359375 0.890625 2.015625 2.46875q0.65625 1.578125 0.65625 3.609375q0 2.171875 -0.890625 3.75q-0.890625 1.578125 -2.359375 2.40625q-1.453125 0.8125 -3.109375 0.8125q-2.03125 0 -3.390625 -0.890625q-1.359375 -0.90625 -2.015625 -2.484375q-0.65625 -1.578125 -0.65625 -3.609375q0 -2.140625 0.890625 -3.71875q0.90625 -1.59375 2.359375 -2.421875q1.46875 -0.828125 3.109375 -0.828125zm3.109375 7.1875q0 -2.625 -0.78125 -4.171875q-0.78125 -1.5625 -2.46875 -1.5625q-1.625 0 -2.453125 1.328125q-0.8125 1.328125 -0.8125 3.984375q0 2.625 0.796875 4.1875q0.796875 1.546875 2.46875 1.546875q3.25 0 3.25 -5.3125z" fill-rule="nonzero"></path><path fill="#fce5cd" d="m610.50586 307.49503l0 0c0 -21.908752 18.937988 -39.66928 42.299194 -39.66928l0 0c11.218445 0 21.977417 4.179413 29.910034 11.618866c7.932678 7.4394226 12.38916 17.52948 12.38916 28.050415l0 0c0 21.908752 -18.937988 39.66931 -42.299194 39.66931l0 0c-23.361206 0 -42.299194 -17.76056 -42.299194 -39.66931z" fill-rule="nonzero"></path><path stroke="#666666" stroke-width="4.0" stroke-linejoin="round" stroke-linecap="butt" d="m610.50586 307.49503l0 0c0 -21.908752 18.937988 -39.66928 42.299194 -39.66928l0 0c11.218445 0 21.977417 4.179413 29.910034 11.618866c7.932678 7.4394226 12.38916 17.52948 12.38916 28.050415l0 0c0 21.908752 -18.937988 39.66931 -42.299194 39.66931l0 0c-23.361206 0 -42.299194 -17.76056 -42.299194 -39.66931z" fill-rule="nonzero"></path><path fill="#666666" d="m652.27576 311.28503q-0.96875 0 -1.796875 -0.203125q-0.328125 0.296875 -0.515625 0.6875q-0.1875 0.375 -0.1875 0.765625q0 0.59375 0.265625 0.90625q0.28125 0.3125 0.84375 0.4375q0.5625 0.109375 1.53125 0.109375l2.546875 0q4.59375 0 4.59375 3.515625q0 1.359375 -0.96875 2.5q-0.96875 1.15625 -2.59375 1.828125q-1.609375 0.671875 -3.46875 0.671875l0 0q-3.140625 0 -4.5625 -0.953125q-1.421875 -0.953125 -1.421875 -2.703125q0 -1.09375 0.640625 -1.984375q0.640625 -0.875 1.546875 -1.328125q-1.140625 -0.65625 -1.140625 -1.96875q0 -0.890625 0.5 -1.625q0.5 -0.75 1.328125 -1.203125q-1.171875 -0.546875 -1.796875 -1.53125q-0.625 -0.984375 -0.625 -2.3125q0 -1.390625 0.78125 -2.421875q0.78125 -1.03125 2.0625 -1.5625q1.28125 -0.546875 2.734375 -0.5625l0 0q1.265625 0 2.265625 0.296875q1.015625 0.28125 1.71875 0.84375q0.34375 -0.421875 1.046875 -0.796875q0.703125 -0.375 1.65625 -0.375l0.625 0l0 2.28125l-2.453125 0q0.40625 0.859375 0.40625 1.890625q0 1.40625 -0.734375 2.5q-0.71875 1.09375 -1.984375 1.703125q-1.265625 0.59375 -2.828125 0.59375l-0.015625 0zm0.140625 -7.5625q-1.265625 0 -1.96875 0.6875q-0.6875 0.671875 -0.6875 2.234375q0 1.484375 0.65625 2.375q0.65625 0.875 2.109375 0.875l0.015625 0q1.34375 0 1.9375 -0.796875q0.609375 -0.796875 0.609375 -2.328125q0 -1.578125 -0.65625 -2.3125q-0.640625 -0.734375 -2.0 -0.734375l-0.015625 0zm-2.5 12.21875q-0.75 0.921875 -0.75 2.21875q0 1.40625 0.828125 2.125q0.84375 0.734375 2.734375 0.734375l0.03125 0q1.046875 0 2.0 -0.328125q0.96875 -0.328125 1.5625 -0.984375q0.609375 -0.640625 0.609375 -1.53125q0 -0.75 -0.234375 -1.203125q-0.234375 -0.4375 -0.84375 -0.65625q-0.609375 -0.21875 -1.765625 -0.21875l-2.359375 0q-0.953125 0 -1.8125 -0.15625z" fill-rule="nonzero"></path><path fill="#d9ead3" d="m935.1747 119.46511l0 0c0 -21.908745 18.93805 -39.66929 42.299255 -39.66929l0 0c11.218445 0 21.977417 4.179428 29.910034 11.618866c7.932617 7.439438 12.38916 17.529472 12.38916 28.050423l0 0c0 21.908745 -18.937988 39.66929 -42.299194 39.66929l0 0c-23.361206 0 -42.299255 -17.760544 -42.299255 -39.66929z" fill-rule="nonzero"></path><path stroke="#000000" stroke-width="4.0" stroke-linejoin="round" stroke-linecap="butt" d="m935.1747 119.46511l0 0c0 -21.908745 18.93805 -39.66929 42.299255 -39.66929l0 0c11.218445 0 21.977417 4.179428 29.910034 11.618866c7.932617 7.439438 12.38916 17.529472 12.38916 28.050423l0 0c0 21.908745 -18.937988 39.66929 -42.299194 39.66929l0 0c-23.361206 0 -42.299255 -17.760544 -42.299255 -39.66929z" fill-rule="nonzero"></path><path fill="#000000" d="m975.7376 114.31761q1.6875 0 3.609375 0.71875l-0.125 3.609375l-1.625 0l-0.53125 -2.1875q-0.171875 -0.390625 -0.65625 -0.578125q-0.484375 -0.1875 -1.171875 -0.1875q-1.03125 0 -1.796875 0.578125q-0.75 0.5625 -1.171875 1.703125q-0.421875 1.125 -0.421875 2.78125q0 1.9375 0.5 3.21875q0.5 1.28125 1.359375 1.890625q0.875 0.609375 1.96875 0.609375q1.015625 0 1.875 -0.296875q0.875 -0.3125 1.484375 -0.734375l0.5 1.078125q-0.421875 0.421875 -1.125 0.828125q-0.703125 0.40625 -1.578125 0.65625q-0.875 0.265625 -1.75 0.265625q-1.984375 0 -3.359375 -0.875q-1.359375 -0.875 -2.046875 -2.40625q-0.6875 -1.53125 -0.6875 -3.484375q0 -2.0 0.765625 -3.625q0.78125 -1.640625 2.296875 -2.59375q1.53125 -0.96875 3.6875 -0.96875z" fill-rule="nonzero"></path><path fill="#000000" d="m980.88214 129.23949l0 -0.75q0.21875 -0.046875 0.5 -0.140625q0.28125 -0.109375 0.375 -0.171875q0.25 -0.1875 0.421875 -0.609375q0.109375 -0.265625 0.296875 -0.84375q0.203125 -0.578125 0.265625 -0.875l1.015625 0l0.015625 2.265625l2.625 0l0 1.125l-2.609375 0l0 4.71875q0 0.953125 0.046875 1.328125q0.0625 0.375 0.21875 0.484375q0.171875 0.09375 0.625 0.09375l0 0q0.40625 0 0.921875 -0.09375q0.515625 -0.109375 0.796875 -0.21875l0 0l0.265625 0.765625q-0.234375 0.1875 -0.703125 0.390625q-0.46875 0.203125 -1.015625 0.328125q-0.53125 0.140625 -0.984375 0.140625l-0.015625 0q-0.96875 0 -1.46875 -0.421875q-0.484375 -0.4375 -0.484375 -1.4375l0 -6.078125l-1.109375 0z" fill-rule="nonzero"></path><path fill="#d9ead3" d="m935.15826 368.0772l0 0c0 -21.908722 18.945068 -39.66928 42.31494 -39.66928l0 0c23.369934 0 42.31494 17.76056 42.31494 39.66928l0 0c0 21.908752 -18.945007 39.66931 -42.31494 39.66931l0 0c-23.369873 0 -42.31494 -17.76056 -42.31494 -39.66931z" fill-rule="nonzero"></path><path stroke="#000000" stroke-width="4.0" stroke-linejoin="round" stroke-linecap="butt" d="m935.15826 368.0772l0 0c0 -21.908722 18.945068 -39.66928 42.31494 -39.66928l0 0c23.369934 0 42.31494 17.76056 42.31494 39.66928l0 0c0 21.908752 -18.945007 39.66931 -42.31494 39.66931l0 0c-23.369873 0 -42.31494 -17.76056 -42.31494 -39.66931z" fill-rule="nonzero"></path><path fill="#000000" d="m968.7232 375.14847l0 -16.359375l-1.9375 -0.234375l0 -1.109375l3.96875 -0.5l0.0625 0l0.5625 0.390625l0.015625 5.4375l-0.109375 2.09375q0.796875 -0.703125 2.078125 -1.28125q1.296875 -0.59375 2.65625 -0.59375q1.5 0 2.328125 0.578125q0.84375 0.5625 1.171875 1.75q0.34375 1.1875 0.34375 3.203125l0 6.609375l1.6875 0.203125l0 1.28125l-5.890625 0l0 -1.265625l1.53125 -0.203125l0 -6.640625q0 -1.359375 -0.1875 -2.140625q-0.171875 -0.78125 -0.6875 -1.171875q-0.515625 -0.390625 -1.515625 -0.390625q-0.84375 0 -1.765625 0.34375q-0.921875 0.34375 -1.625 0.875l0 9.109375l1.65625 0.203125l0 1.28125l-5.75 0l0 -1.28125l1.40625 -0.1875z" fill-rule="nonzero"></path><path fill="#000000" d="m982.69196 377.8516l0 -0.75q0.21875 -0.046875 0.5 -0.140625q0.28125 -0.109375 0.375 -0.171875q0.25 -0.1875 0.421875 -0.609375q0.109375 -0.265625 0.296875 -0.84375q0.203125 -0.578125 0.265625 -0.875l1.015625 0l0.015625 2.265625l2.625 0l0 1.125l-2.609375 0l0 4.71875q0 0.953125 0.046875 1.328125q0.0625 0.375 0.21875 0.484375q0.171875 0.09375 0.625 0.09375l0 0q0.40625 0 0.921875 -0.09375q0.515625 -0.109375 0.796875 -0.21875l0 0l0.265625 0.765625q-0.234375 0.1875 -0.703125 0.390625q-0.46875 0.203125 -1.015625 0.328125q-0.53125 0.140625 -0.984375 0.140625l-0.015625 0q-0.96875 0 -1.46875 -0.421875q-0.484375 -0.4375 -0.484375 -1.4375l0 -6.078125l-1.109375 0z" fill-rule="nonzero"></path><path fill="#d9ead3" d="m63.06222 243.76688l0 0c0 -21.908737 18.945057 -39.669296 42.31496 -39.669296l0 0c23.369904 0 42.314957 17.76056 42.314957 39.669296l0 0c0 21.908752 -18.945053 39.66928 -42.314957 39.66928l0 0c-23.369904 0 -42.31496 -17.760529 -42.31496 -39.66928z" fill-rule="nonzero"></path><path stroke="#000000" stroke-width="4.0" stroke-linejoin="round" stroke-linecap="butt" d="m63.06222 243.76688l0 0c0 -21.908737 18.945057 -39.669296 42.31496 -39.669296l0 0c23.369904 0 42.314957 17.76056 42.314957 39.669296l0 0c0 21.908752 -18.945053 39.66928 -42.314957 39.66928l0 0c-23.369904 0 -42.31496 -17.760529 -42.31496 -39.66928z" fill-rule="nonzero"></path><path fill="#000000" d="m96.748276 250.83812l4.078125 -5.1875l-3.96875 -5.125l-1.375 -0.296875l0 -1.25l6.203125 0l0 1.25l-1.609375 0.296875l2.0625 2.890625l0.6875 1.046875l0.59375 -1.046875l2.15625 -2.890625l-1.71875 -0.296875l0 -1.25l5.171875 0l0 1.25l-1.46875 0.296875l-3.859375 4.828125l4.15625 5.5l1.359375 0.203125l0 1.25l-6.234375 0l0 -1.25l1.53125 -0.21875l-2.84375 -4.171875l-0.609375 1.046875l-2.15625 3.109375l1.921875 0.234375l0 1.25l-5.671875 0l0 -1.25l1.59375 -0.21875z" fill-rule="nonzero"></path><path fill="#000000" d="m109.78734 253.54124l0 -0.75q0.21875 -0.046875 0.5 -0.140625q0.28125 -0.109375 0.375 -0.171875q0.25 -0.1875 0.421875 -0.609375q0.109375 -0.265625 0.296875 -0.84375q0.203125 -0.578125 0.265625 -0.875l1.015625 0l0.015625 2.265625l2.625 0l0 1.125l-2.609375 0l0 4.7187653q0 0.953125 0.046875 1.328125q0.0625 0.375 0.21875 0.484375q0.171875 0.09375 0.625 0.09375l0 0q0.40625 0 0.921875 -0.09375q0.515625 -0.109375 0.796875 -0.21875l0 0l0.265625 0.765625q-0.234375 0.1875 -0.703125 0.390625q-0.46875 0.203125 -1.015625 0.328125q-0.53125 0.140625 -0.984375 0.140625l-0.015625 0q-0.96875 0 -1.46875 -0.421875q-0.484375 -0.4375 -0.484375 -1.4375l0 -6.0781403l-1.109375 0z" fill-rule="nonzero"></path><path fill="#000000" fill-opacity="0.0" d="m147.69214 243.76688c18.285294 0 27.428864 0.01574707 36.570587 0.03149414c9.141739 0.01574707 18.281647 0.03149414 36.56328 0.03149414" fill-rule="nonzero"></path><path stroke="#000000" stroke-width="4.0" stroke-linejoin="round" stroke-linecap="butt" d="m147.69214 243.76688c18.285294 0 27.428864 0.01574707 36.570602 0.03149414l12.563248 0.018310547" fill-rule="evenodd"></path><path fill="#000000" stroke="#000000" stroke-width="4.0" stroke-linecap="butt" d="m196.82237 250.42361l18.156006 -6.5969543l-18.148758 -6.6168976z" fill-rule="evenodd"></path></g></svg>

