<?xml version="1.0" standalone="yes"?>

<svg version="1.1" viewBox="0.0 0.0 2258.522309711286 801.1653543307086" fill="none" stroke="none" stroke-linecap="square" stroke-miterlimit="10" xmlns="http://www.w3.org/2000/svg" xmlns:xlink="http://www.w3.org/1999/xlink"><clipPath id="p.0"><path d="m0 0l2258.5222 0l0 801.16534l-2258.5222 0l0 -801.16534z" clip-rule="nonzero"></path></clipPath><g clip-path="url(#p.0)"><path fill="#000000" fill-opacity="0.0" d="m0 0l2258.5222 0l0 801.16534l-2258.5222 0z" fill-rule="nonzero"></path><path fill="#d9ead3" d="m20.402687 64.90287l0 0c0 -21.421692 18.514965 -38.787407 41.354332 -38.787407l0 0c10.96785 0 21.486488 4.0865173 29.241928 11.360567c7.7554398 7.274048 12.112404 17.139774 12.112404 27.426838l0 0c0 21.421684 -18.514969 38.7874 -41.354332 38.7874l0 0c-22.839367 0 -41.354332 -17.365715 -41.354332 -38.7874z" fill-rule="nonzero"></path><path stroke="#000000" stroke-width="4.0" stroke-linejoin="round" stroke-linecap="butt" d="m20.402687 64.90287l0 0c0 -21.421692 18.514965 -38.787407 41.354332 -38.787407l0 0c10.96785 0 21.486488 4.0865173 29.241928 11.360567c7.7554398 7.274048 12.112404 17.139774 12.112404 27.426838l0 0c0 21.421684 -18.514969 38.7874 -41.354332 38.7874l0 0c-22.839367 0 -41.354332 -17.365715 -41.354332 -38.7874z" fill-rule="nonzero"></path><path fill="#000000" d="m53.128113 71.97411l4.078125 -5.1875l-3.96875 -5.124996l-1.375 -0.296875l0 -1.25l6.203125 0l0 1.25l-1.609375 0.296875l2.0625 2.8906212l0.6875 1.046875l0.59375 -1.046875l2.15625 -2.8906212l-1.71875 -0.296875l0 -1.25l5.171875 0l0 1.25l-1.46875 0.296875l-3.859375 4.828121l4.15625 5.5l1.359375 0.203125l0 1.25l-6.234375 0l0 -1.25l1.53125 -0.21875l-2.84375 -4.171875l-0.609375 1.046875l-2.15625 3.109375l1.921875 0.234375l0 1.25l-5.671875 0l0 -1.25l1.59375 -0.21875z" fill-rule="nonzero"></path><path fill="#000000" d="m66.167175 74.67724l0 -0.75q0.21875 -0.046875 0.5 -0.140625q0.28125 -0.109375 0.375 -0.171875q0.25 -0.1875 0.421875 -0.609375q0.109375 -0.265625 0.296875 -0.84375q0.203125 -0.578125 0.265625 -0.875l1.015625 0l0.015625 2.265625l2.625 0l0 1.125l-2.609375 0l0 4.71875q0 0.953125 0.046875 1.328125q0.0625 0.375 0.21875 0.484375q0.171875 0.09375 0.625 0.09375l0 0q0.40625 0 0.921875 -0.09375q0.515625 -0.109375 0.796875 -0.21875l0 0l0.265625 0.765625q-0.234375 0.1875 -0.703125 0.390625q-0.46875 0.203125 -1.015625 0.328125q-0.53125 0.140625 -0.984375 0.140625l-0.015625 0q-0.96875 0 -1.46875 -0.421875q-0.484375 -0.4375 -0.484375 -1.4375l0 -6.078125l-1.109375 0z" fill-rule="nonzero"></path><path fill="#c9daf8" d="m118.47209 194.46487l0 0c0 -23.404694 18.514969 -42.377945 41.354324 -42.377945l0 0c10.96785 0 21.486496 4.464813 29.241928 12.412216c7.7554474 7.947403 12.1124115 18.72641 12.1124115 29.965729l0 0c0 23.404709 -18.514969 42.37796 -41.35434 42.37796l0 0c-22.839355 0 -41.354324 -18.973251 -41.354324 -42.37796z" fill-rule="nonzero"></path><path stroke="#000000" stroke-width="4.0" stroke-linejoin="round" stroke-linecap="butt" d="m118.47209 194.46487l0 0c0 -23.404694 18.514969 -42.377945 41.354324 -42.377945l0 0c10.96785 0 21.486496 4.464813 29.241928 12.412216c7.7554474 7.947403 12.1124115 18.72641 12.1124115 29.965729l0 0c0 23.404709 -18.514969 42.37796 -41.35434 42.37796l0 0c-22.839355 0 -41.354324 -18.973251 -41.354324 -42.37796z" fill-rule="nonzero"></path><path fill="#000000" d="m142.5647 186.47363l0 -1.3125l6.546875 0l0 1.3125l-2.140625 0.3125l3.265625 11.078125l0.609375 3.1875l0.71875 -3.1875l2.6875 -9.03125l-0.65625 -2.0625l-1.65625 -0.296875l0 -1.3125l6.78125 0l0 1.3125l-2.25 0.296875l3.203125 11.09375l0.71875 3.453125l0.625 -3.453125l3.046875 -11.078125l-2.359375 -0.3125l0 -1.3125l5.828125 0l0 1.3125l-1.546875 0.3125l-4.84375 16.34375l-2.53125 0l-3.546875 -11.6875l-3.453125 11.6875l-2.40625 0l-5.0625 -16.34375l-1.578125 -0.3125z" fill-rule="nonzero"></path><path fill="#000000" d="m168.24438 211.02051l2.703125 -3.453125l-2.640625 -3.421875l-0.921875 -0.203125l0 -0.828125l4.140625 0l0 0.828125l-1.078125 0.203125l1.375 1.921875l0.46875 0.703125l0.390625 -0.6875l1.4375 -1.9375l-1.140625 -0.203125l0 -0.828125l3.4375 0l0 0.828125l-0.96875 0.203125l-2.578125 3.21875l2.765625 3.671875l0.921875 0.140625l0 0.828125l-4.171875 0l0 -0.828125l1.03125 -0.15625l-1.90625 -2.78125l-0.390625 0.703125l-1.453125 2.078125l1.296875 0.15625l0 0.828125l-3.796875 0l0 -0.828125l1.078125 -0.15625z" fill-rule="nonzero"></path><path fill="#f4cccc" d="m266.7086 116.50546l0 0c0 -15.142166 13.078918 -27.41732 29.212585 -27.41732l0 0c7.74765 0 15.178009 2.8886032 20.656433 8.03035c5.478424 5.1417465 8.556152 12.115448 8.556152 19.38697l0 0c0 15.142166 -13.078918 27.417328 -29.212585 27.417328l0 0c-16.133667 0 -29.212585 -12.275162 -29.212585 -27.417328z" fill-rule="nonzero"></path><path stroke="#000000" stroke-width="4.0" stroke-linejoin="round" stroke-linecap="butt" d="m266.7086 116.50546l0 0c0 -15.142166 13.078918 -27.41732 29.212585 -27.41732l0 0c7.74765 0 15.178009 2.8886032 20.656433 8.03035c5.478424 5.1417465 8.556152 12.115448 8.556152 19.38697l0 0c0 15.142166 -13.078918 27.417328 -29.212585 27.417328l0 0c-16.133667 0 -29.212585 -12.275162 -29.212585 -27.417328z" fill-rule="nonzero"></path><path fill="#000000" d="m290.79617 118.51921q0.234375 -0.21875 0.453125 -0.296875l4.53125 -1.625l-4.53125 -1.640625q-0.21875 -0.0625 -0.453125 -0.296875q-0.21875 -0.21875 -0.21875 -0.65625q0 -0.375 0.21875 -0.59375q0.296875 -0.296875 0.671875 -0.296875q0.375 0 0.671875 0.21875l3.703125 3.109375l-0.8125 -4.671875q-0.078125 -0.59375 0.21875 -0.890625q0.296875 -0.296875 0.671875 -0.296875q0.375 0 0.671875 0.296875q0.296875 0.296875 0.21875 0.890625l-0.8125 4.671875l3.703125 -3.109375q0.296875 -0.21875 0.671875 -0.21875q0.375 0 0.671875 0.296875q0.21875 0.21875 0.21875 0.59375q0 0.4375 -0.21875 0.65625q-0.21875 0.234375 -0.453125 0.296875l-4.515625 1.640625l4.515625 1.625q0.234375 0.078125 0.453125 0.296875q0.21875 0.234375 0.21875 0.671875q0 0.375 -0.21875 0.59375q-0.296875 0.296875 -0.671875 0.296875q-0.375 0 -0.671875 -0.21875l-3.703125 -3.125l0.8125 4.6875q0.078125 0.59375 -0.21875 0.890625q-0.296875 0.296875 -0.671875 0.296875q-0.375 0 -0.671875 -0.296875q-0.296875 -0.296875 -0.21875 -0.890625l0.8125 -4.6875l-3.703125 3.125q-0.296875 0.21875 -0.671875 0.21875q-0.375 0 -0.671875 -0.296875q-0.21875 -0.21875 -0.21875 -0.59375q0 -0.4375 0.21875 -0.671875z" fill-rule="nonzero"></path><path fill="#000000" fill-opacity="0.0" d="m201.18076 194.46487c16.387787 0 24.582672 -19.488174 32.77559 -38.976364c8.192902 -19.48819 16.38385 -38.976387 32.767715 -38.976387" fill-rule="nonzero"></path><path stroke="#000000" stroke-width="4.0" stroke-linejoin="round" stroke-linecap="butt" d="m201.18076 194.46487c16.387787 0 24.582672 -19.48819 32.77559 -38.976364c2.048233 -4.872055 4.0963287 -9.744095 6.2723694 -14.3116455c1.0880127 -2.2837677 2.2080078 -4.4914093 3.3759918 -6.5848846c0.5839844 -1.0467072 1.1799622 -2.0648956 1.7899323 -3.0497742c0.30500793 -0.4924469 0.61351013 -0.97654724 0.9257355 -1.4517517l0.30659485 -0.4593811" fill-rule="evenodd"></path><path fill="#000000" stroke="#000000" stroke-width="4.0" stroke-linecap="butt" d="m250.23848 135.16359l11.588913 -15.455025l-18.81192 4.3900146z" fill-rule="evenodd"></path><path fill="#000000" fill-opacity="0.0" d="m103.11135 64.90287c40.900093 0 61.351357 12.897636 81.80018 25.795273c20.448822 12.897636 40.895187 25.795273 81.790375 25.795273" fill-rule="nonzero"></path><path stroke="#000000" stroke-width="4.0" stroke-linejoin="round" stroke-linecap="butt" d="m103.11134 64.90287c40.9001 0 61.351364 12.897636 81.8002 25.795273c10.224411 6.4488144 20.448196 12.897636 33.227783 17.734253c6.389786 2.4183044 13.418533 4.433563 21.405777 5.8442383c0.9984131 0.1763382 2.011795 0.3432312 3.0407715 0.500267l0.1756134 0.026290894" fill-rule="evenodd"></path><path fill="#000000" stroke="#000000" stroke-width="4.0" stroke-linecap="butt" d="m242.29619 121.393715l18.572617 -5.3121185l-17.642014 -7.8689346z" fill-rule="evenodd"></path><path fill="#d9ead3" d="m18.435684 325.45148l0 0c0 -21.421692 18.522015 -38.787415 41.37008 -38.787415l0 0c22.84806 0 41.37008 17.365723 41.37008 38.787415l0 0c0 21.421661 -18.522018 38.787384 -41.37008 38.787384l0 0c-22.848064 0 -41.37008 -17.365723 -41.37008 -38.787384z" fill-rule="nonzero"></path><path stroke="#000000" stroke-width="4.0" stroke-linejoin="round" stroke-linecap="butt" d="m18.435684 325.45148l0 0c0 -21.421692 18.522015 -38.787415 41.37008 -38.787415l0 0c22.84806 0 41.37008 17.365723 41.37008 38.787415l0 0c0 21.421661 -18.522018 38.787384 -41.37008 38.787384l0 0c-22.848064 0 -41.37008 -17.365723 -41.37008 -38.787384z" fill-rule="nonzero"></path><path fill="#000000" d="m42.473732 332.5227l0 -16.359375l-1.9375 -0.234375l0 -1.109375l3.96875 -0.5l0.0625 0l0.5625 0.390625l0.015625 5.4375l-0.109375 2.09375q0.796875 -0.703125 2.078125 -1.28125q1.296875 -0.59375 2.65625 -0.59375q1.5 0 2.328125 0.578125q0.84375 0.5625 1.171875 1.75q0.34375 1.1875 0.34375 3.203125l0 6.609375l1.6875 0.203125l0 1.28125l-5.890625 0l0 -1.265625l1.53125 -0.203125l0 -6.640625q0 -1.359375 -0.1875 -2.140625q-0.171875 -0.78125 -0.6875 -1.171875q-0.515625 -0.390625 -1.515625 -0.390625q-0.84375 0 -1.765625 0.34375q-0.921875 0.34375 -1.625 0.875l0 9.109375l1.65625 0.203125l0 1.28125l-5.75 0l0 -1.28125l1.40625 -0.1875z" fill-rule="nonzero"></path><path fill="#000000" d="m56.442482 335.22583l0 -0.75q0.21875 -0.046875 0.5 -0.140625q0.28125 -0.109375 0.375 -0.171875q0.25 -0.1875 0.421875 -0.609375q0.109375 -0.265625 0.296875 -0.84375q0.203125 -0.578125 0.265625 -0.875l1.015625 0l0.015625 2.265625l2.625 0l0 1.125l-2.609375 0l0 4.71875q0 0.953125 0.046875 1.328125q0.0625 0.375 0.21875 0.484375q0.171875 0.09375 0.625 0.09375l0 0q0.40625 0 0.921875 -0.09375q0.515625 -0.109375 0.796875 -0.21875l0 0l0.265625 0.765625q-0.234375 0.1875 -0.703125 0.390625q-0.46875 0.203125 -1.015625 0.328125q-0.53125 0.140625 -0.984375 0.140625l-0.015625 0q-0.96875 0 -1.46875 -0.421875q-0.484375 -0.4375 -0.484375 -1.4375l0 -6.078125l-1.109375 0zm14.421875 2.3125l0 1.265625l-6.640625 0l0 -1.265625l6.640625 0zm4.703125 4.40625l0 -7.0625q-0.3125 0.125 -1.0 0.28125q-0.6875 0.140625 -1.09375 0.171875l-0.1875 -0.953125q0.828125 -0.1875 1.640625 -0.578125q0.828125 -0.40625 1.421875 -0.90625l0.015625 0l1.015625 0.15625l0 8.890625l1.8125 0.1875l0 0.859375l-5.609375 0l0 -0.859375l1.984375 -0.1875z" fill-rule="nonzero"></path><path fill="#c9daf8" d="m115.32602 460.69336l0 0c0 -23.404694 18.522018 -42.37793 41.370087 -42.37793l0 0c10.972015 0 21.49466 4.4647827 29.253052 12.412201c7.7584076 7.947418 12.11702 18.72641 12.11702 29.965729l0 0c0 23.404694 -18.522018 42.37796 -41.37007 42.37796l0 0c-22.848068 0 -41.370087 -18.973267 -41.370087 -42.37796z" fill-rule="nonzero"></path><path stroke="#000000" stroke-width="4.0" stroke-linejoin="round" stroke-linecap="butt" d="m115.32602 460.69336l0 0c0 -23.404694 18.522018 -42.37793 41.370087 -42.37793l0 0c10.972015 0 21.49466 4.4647827 29.253052 12.412201c7.7584076 7.947418 12.11702 18.72641 12.11702 29.965729l0 0c0 23.404694 -18.522018 42.37796 -41.37007 42.37796l0 0c-22.848068 0 -41.370087 -18.973267 -41.370087 -42.37796z" fill-rule="nonzero"></path><path fill="#000000" d="m138.89532 452.70212l0 -1.3125l6.546875 0l0 1.3125l-2.140625 0.3125l3.265625 11.078125l0.609375 3.1875l0.71875 -3.1875l2.6875 -9.03125l-0.65625 -2.0625l-1.65625 -0.296875l0 -1.3125l6.78125 0l0 1.3125l-2.25 0.296875l3.203125 11.09375l0.71875 3.453125l0.625 -3.453125l3.046875 -11.078125l-2.359375 -0.3125l0 -1.3125l5.828125 0l0 1.3125l-1.546875 0.3125l-4.84375 16.34375l-2.53125 0l-3.546875 -11.6875l-3.453125 11.6875l-2.40625 0l-5.0625 -16.34375l-1.578125 -0.3125z" fill-rule="nonzero"></path><path fill="#000000" d="m165.02814 477.249l0 -10.90625l-1.296875 -0.15625l0 -0.734375l2.65625 -0.34375l0.03125 0l0.375 0.265625l0.015625 3.625l-0.078125 1.40625q0.53125 -0.46875 1.390625 -0.859375q0.859375 -0.40625 1.765625 -0.40625q1.0 0 1.5625 0.390625q0.5625 0.375 0.78125 1.171875q0.21875 0.796875 0.21875 2.125l0 4.421875l1.125 0.125l0 0.859375l-3.921875 0l0 -0.84375l1.015625 -0.140625l0 -4.421875q0 -0.90625 -0.125 -1.421875q-0.109375 -0.53125 -0.453125 -0.78125q-0.34375 -0.265625 -1.015625 -0.265625q-0.5625 0 -1.1875 0.234375q-0.609375 0.21875 -1.078125 0.578125l0 6.078125l1.109375 0.125l0 0.859375l-3.828125 0l0 -0.859375l0.9375 -0.125z" fill-rule="nonzero"></path><path fill="#f4cccc" d="m266.70627 388.4951l0 0c0 -15.142181 13.078918 -27.417328 29.212585 -27.417328l0 0c7.7476807 0 15.178009 2.8886108 20.656433 8.030365c5.478424 5.1417236 8.556183 12.115448 8.556183 19.386963l0 0c0 15.142181 -13.078949 27.417328 -29.212616 27.417328l0 0c-16.133667 0 -29.212585 -12.2751465 -29.212585 -27.417328z" fill-rule="nonzero"></path><path stroke="#000000" stroke-width="4.0" stroke-linejoin="round" stroke-linecap="butt" d="m266.70627 388.4951l0 0c0 -15.142181 13.078918 -27.417328 29.212585 -27.417328l0 0c7.7476807 0 15.178009 2.8886108 20.656433 8.030365c5.478424 5.1417236 8.556183 12.115448 8.556183 19.386963l0 0c0 15.142181 -13.078949 27.417328 -29.212616 27.417328l0 0c-16.133667 0 -29.212585 -12.2751465 -29.212585 -27.417328z" fill-rule="nonzero"></path><path fill="#000000" d="m290.79385 390.50885q0.234375 -0.21875 0.453125 -0.296875l4.53125 -1.625l-4.53125 -1.640625q-0.21875 -0.0625 -0.453125 -0.296875q-0.21875 -0.21875 -0.21875 -0.65625q0 -0.375 0.21875 -0.59375q0.296875 -0.296875 0.671875 -0.296875q0.375 0 0.671875 0.21875l3.703125 3.109375l-0.8125 -4.671875q-0.078125 -0.59375 0.21875 -0.890625q0.296875 -0.296875 0.671875 -0.296875q0.375 0 0.671875 0.296875q0.296875 0.296875 0.21875 0.890625l-0.8125 4.671875l3.703125 -3.109375q0.296875 -0.21875 0.671875 -0.21875q0.375 0 0.671875 0.296875q0.21875 0.21875 0.21875 0.59375q0 0.4375 -0.21875 0.65625q-0.21875 0.234375 -0.453125 0.296875l-4.515625 1.640625l4.515625 1.625q0.234375 0.078125 0.453125 0.296875q0.21875 0.234375 0.21875 0.671875q0 0.375 -0.21875 0.59375q-0.296875 0.296875 -0.671875 0.296875q-0.375 0 -0.671875 -0.21875l-3.703125 -3.125l0.8125 4.6875q0.078125 0.59375 -0.21875 0.890625q-0.296875 0.296875 -0.671875 0.296875q-0.375 0 -0.671875 -0.296875q-0.296875 -0.296875 -0.21875 -0.890625l0.8125 -4.6875l-3.703125 3.125q-0.296875 0.21875 -0.671875 0.21875q-0.375 0 -0.671875 -0.296875q-0.21875 -0.21875 -0.21875 -0.59375q0 -0.4375 0.21875 -0.671875z" fill-rule="nonzero"></path><path fill="#000000" fill-opacity="0.0" d="m198.06618 460.69336c17.157135 0 25.735535 -18.047241 34.31427 -36.094482c8.578751 -18.047241 17.157822 -36.094482 34.31566 -36.094482" fill-rule="nonzero"></path><path stroke="#000000" stroke-width="4.0" stroke-linejoin="round" stroke-linecap="butt" d="m198.06618 460.69336c17.15715 0 25.735535 -18.047241 34.31427 -36.094482c2.144699 -4.5118103 4.289398 -9.023621 6.568161 -13.2534485c1.1393738 -2.1148987 2.3122864 -4.1593323 3.5354614 -6.0979614c0.61157227 -0.96936035 1.235733 -1.912262 1.874527 -2.8243103c0.31941223 -0.4560547 0.6424866 -0.9043274 0.9694824 -1.3444214c0.16349792 -0.22003174 0.32798767 -0.43798828 0.4934845 -0.6538391l0.025527954 -0.032714844" fill-rule="evenodd"></path><path fill="#000000" stroke="#000000" stroke-width="4.0" stroke-linecap="butt" d="m249.11966 406.13165l12.4965515 -14.730804l-19.041687 3.251831z" fill-rule="evenodd"></path><path fill="#000000" fill-opacity="0.0" d="m101.17584 325.45148c41.38913 0 62.085358 15.763763 82.778275 31.527557c20.692917 15.763763 41.382523 31.527557 82.76503 31.527557" fill-rule="nonzero"></path><path stroke="#000000" stroke-width="4.0" stroke-linejoin="round" stroke-linecap="butt" d="m101.17584 325.45148c41.389145 0 62.085358 15.763763 82.778275 31.527527c10.346451 7.881897 20.692093 15.763763 33.6239 21.675201c6.465927 2.9556885 13.5784 5.4187927 21.660782 7.1429443c1.0102997 0.21551514 2.0357513 0.41949463 3.0769958 0.6114502l0.48764038 0.08816528" fill-rule="evenodd"></path><path fill="#000000" stroke="#000000" stroke-width="4.0" stroke-linecap="butt" d="m242.25017 393.08047l18.641891 -5.0635986l-17.53534 -8.103851z" fill-rule="evenodd"></path><path fill="#f4cccc" d="m419.71603 388.49512l0 0c0 -15.142181 13.078949 -27.417328 29.212616 -27.417328l0 0c7.74765 0 15.178009 2.8886108 20.656433 8.030365c5.478424 5.1417236 8.556152 12.115448 8.556152 19.386963l0 0c0 15.142181 -13.078918 27.417328 -29.212585 27.417328l0 0c-16.133667 0 -29.212616 -12.2751465 -29.212616 -27.417328z" fill-rule="nonzero"></path><path stroke="#000000" stroke-width="4.0" stroke-linejoin="round" stroke-linecap="butt" d="m419.71603 388.49512l0 0c0 -15.142181 13.078949 -27.417328 29.212616 -27.417328l0 0c7.74765 0 15.178009 2.8886108 20.656433 8.030365c5.478424 5.1417236 8.556152 12.115448 8.556152 19.386963l0 0c0 15.142181 -13.078918 27.417328 -29.212585 27.417328l0 0c-16.133667 0 -29.212616 -12.2751465 -29.212616 -27.417328z" fill-rule="nonzero"></path><path fill="#000000" d="m455.19427 389.43076q0 0.15625 -0.109375 0.265625q-0.109375 0.109375 -0.265625 0.109375l-4.15625 0q-0.15625 0 -0.28125 0.125q-0.109375 0.109375 -0.109375 0.265625l0 4.140625q0 0.15625 -0.109375 0.28125q-0.109375 0.109375 -0.265625 0.109375l-1.609375 0q-0.15625 0 -0.265625 -0.109375q-0.109375 -0.125 -0.109375 -0.28125l0 -4.140625q0 -0.15625 -0.109375 -0.265625q-0.109375 -0.125 -0.265625 -0.125l-4.15625 0q-0.15625 0 -0.265625 -0.109375q-0.109375 -0.109375 -0.109375 -0.265625l0 -1.609375q0 -0.15625 0.109375 -0.265625q0.109375 -0.109375 0.265625 -0.109375l4.15625 0q0.15625 0 0.265625 -0.109375q0.109375 -0.109375 0.109375 -0.265625l0 -4.15625q0 -0.15625 0.109375 -0.265625q0.109375 -0.125 0.265625 -0.125l1.609375 0q0.15625 0 0.265625 0.125q0.109375 0.109375 0.109375 0.265625l0 4.15625q0 0.15625 0.109375 0.265625q0.125 0.109375 0.28125 0.109375l4.15625 0q0.15625 0 0.265625 0.109375q0.109375 0.109375 0.109375 0.265625l0 1.609375z" fill-rule="nonzero"></path><path fill="#000000" fill-opacity="0.0" d="m325.13147 388.4951c23.642334 0 35.461884 0.01574707 47.2847 0.03149414c11.822845 0.01574707 23.648987 0.03149414 47.297974 0.03149414" fill-rule="nonzero"></path><path stroke="#000000" stroke-width="4.0" stroke-linejoin="round" stroke-linecap="butt" d="m325.13147 388.4951c23.642365 0 35.461884 0.01574707 47.2847 0.03149414c5.911438 0.007873535 11.823669 0.01574707 19.214203 0.021636963l4.0837708 0.0023498535" fill-rule="evenodd"></path><path fill="#000000" stroke="#000000" stroke-width="4.0" stroke-linecap="butt" d="m395.7121 395.1575l18.15445 -6.6012573l-18.15033 -6.6125793z" fill-rule="evenodd"></path><path fill="#c9daf8" d="m116.52118 599.5215l0 0c0 -23.404724 18.514954 -42.37793 41.354324 -42.37793l0 0c10.96785 0 21.486496 4.4647827 29.241928 12.41217c7.7554474 7.9474487 12.1124115 18.72644 12.1124115 29.96576l0 0c0 23.404724 -18.514969 42.37793 -41.35434 42.37793l0 0c-22.83937 0 -41.354324 -18.973206 -41.354324 -42.37793z" fill-rule="nonzero"></path><path stroke="#000000" stroke-width="4.0" stroke-linejoin="round" stroke-linecap="butt" d="m116.52118 599.5215l0 0c0 -23.404724 18.514954 -42.37793 41.354324 -42.37793l0 0c10.96785 0 21.486496 4.4647827 29.241928 12.41217c7.7554474 7.9474487 12.1124115 18.72644 12.1124115 29.96576l0 0c0 23.404724 -18.514969 42.37793 -41.35434 42.37793l0 0c-22.83937 0 -41.354324 -18.973206 -41.354324 -42.37793z" fill-rule="nonzero"></path><path fill="#000000" d="m150.54152 589.98334l0 -1.09375l3.953125 -0.5l0.0625 0l0.578125 0.390625l0 7.15625q0.703125 -0.671875 1.65625 -1.109375q0.96875 -0.453125 2.140625 -0.453125q1.421875 0 2.609375 0.6875q1.1875 0.6875 1.890625 2.171875q0.71875 1.46875 0.71875 3.6875q0 2.0625 -0.84375 3.765625q-0.84375 1.6875 -2.421875 2.671875q-1.578125 0.96875 -3.671875 0.96875q-1.140625 0 -2.171875 -0.15625q-1.015625 -0.15625 -1.703125 -0.375q-0.6875 -0.234375 -0.859375 -0.390625l0 -17.1875l-1.9375 -0.234375zm4.59375 16.234375q0.15625 0.359375 0.78125 0.5625q0.640625 0.203125 1.46875 0.203125q1.15625 0 2.03125 -0.640625q0.875 -0.65625 1.359375 -1.9375q0.5 -1.296875 0.5 -3.203125q0 -1.6875 -0.453125 -2.8125q-0.4375 -1.125 -1.21875 -1.65625q-0.765625 -0.546875 -1.75 -0.546875q-0.84375 0 -1.5625 0.390625q-0.71875 0.375 -1.15625 0.859375l0 8.78125z" fill-rule="nonzero"></path><path fill="#000000" fill-opacity="0.0" d="m199.22984 599.5215c55.121414 0 82.68376 -52.75592 110.24284 -105.51181c27.559052 -52.75592 55.114777 -105.51181 110.22958 -105.51181" fill-rule="nonzero"></path><path stroke="#000000" stroke-width="4.0" stroke-linejoin="round" stroke-linecap="butt" d="m199.22984 599.5215c55.121414 0 82.68376 -52.75592 110.24281 -105.51181c13.779541 -26.37796 27.558258 -52.75589 44.781403 -72.53937c8.611603 -9.891724 18.08429 -18.134827 28.848755 -23.90503c2.691162 -1.4425354 5.4630127 -2.7304993 8.322296 -3.8510742c1.429657 -0.5602417 2.881195 -1.0786743 4.355438 -1.5536194l0.19345093 -0.06149292" fill-rule="evenodd"></path><path fill="#000000" stroke="#000000" stroke-width="4.0" stroke-linecap="butt" d="m396.96536 398.63123l16.955505 -9.25592l-18.938263 -3.8083496z" fill-rule="evenodd"></path><path fill="#fce5cd" d="m536.3248 386.25772l0 0c0 -23.404694 18.521973 -42.37796 41.370056 -42.37796l0 0c10.972046 0 21.49469 4.464813 29.253052 12.412201c7.758423 7.947418 12.117004 18.72641 12.117004 29.96576l0 0c0 23.404694 -18.521973 42.37793 -41.370056 42.37793l0 0c-22.848083 0 -41.370056 -18.973236 -41.370056 -42.37793z" fill-rule="nonzero"></path><path stroke="#000000" stroke-width="4.0" stroke-linejoin="round" stroke-linecap="butt" d="m536.3248 386.25772l0 0c0 -23.404694 18.521973 -42.37796 41.370056 -42.37796l0 0c10.972046 0 21.49469 4.464813 29.253052 12.412201c7.758423 7.947418 12.117004 18.72641 12.117004 29.96576l0 0c0 23.404694 -18.521973 42.37793 -41.370056 42.37793l0 0c-22.848083 0 -41.370056 -18.973236 -41.370056 -42.37793z" fill-rule="nonzero"></path><path fill="#000000" d="m579.8121 386.09457q0 -1.109375 -0.234375 -1.734375q-0.21875 -0.640625 -0.78125 -0.921875q-0.5625 -0.296875 -1.59375 -0.296875q-1.984375 0 -4.171875 1.109375l-0.015625 0l-0.578125 -1.21875q0.3125 -0.28125 1.203125 -0.71875q0.90625 -0.453125 2.046875 -0.78125q1.140625 -0.34375 2.171875 -0.34375q1.71875 0 2.6875 0.46875q0.984375 0.453125 1.40625 1.484375q0.4375 1.015625 0.4375 2.75l0 7.609375l1.4375 0l0 1.15625q-1.71875 0.40625 -2.578125 0.40625q-0.5 0 -0.765625 -0.078125q-0.25 -0.078125 -0.375 -0.328125q-0.109375 -0.265625 -0.109375 -0.78125l0 -0.5625q-0.640625 0.609375 -1.671875 1.1875q-1.03125 0.5625 -2.3125 0.5625q-1.125 0 -2.046875 -0.40625q-0.90625 -0.40625 -1.453125 -1.265625q-0.546875 -0.859375 -0.546875 -2.140625q0 -1.546875 1.078125 -2.546875q1.09375 -1.015625 2.84375 -1.484375q1.765625 -0.484375 3.921875 -0.515625l0 -0.609375zm0 1.921875q-1.71875 0 -2.828125 0.40625q-1.109375 0.390625 -1.609375 1.03125q-0.484375 0.640625 -0.484375 1.46875q0 1.21875 0.609375 1.796875q0.609375 0.578125 1.640625 0.578125q0.546875 0 1.328125 -0.3125q0.78125 -0.3125 1.34375 -0.75l0 -4.21875z" fill-rule="nonzero"></path><path fill="#000000" fill-opacity="0.0" d="m770.07764 386.2594c31.38208 0 47.071228 14.425171 62.76416 28.850372c15.692871 14.425201 31.389587 28.850403 62.779175 28.850403" fill-rule="nonzero"></path><path stroke="#000000" stroke-width="4.0" stroke-linejoin="round" stroke-linecap="butt" d="m770.0777 386.2594c31.382019 0 47.071167 14.425201 62.7641 28.850372c7.8464355 7.212616 15.693787 14.425201 25.503357 19.834656c2.4523315 1.352356 5.0272827 2.592041 7.7556763 3.6908264c1.3640747 0.54937744 2.7665405 1.0635681 4.2111816 1.5390015c0.36114502 0.118896484 0.72491455 0.23532104 1.0913696 0.34927368l0.44555664 0.13653564" fill-rule="evenodd"></path><path fill="#000000" stroke="#000000" stroke-width="4.0" stroke-linecap="butt" d="m870.9405 447.20425l18.888428 -4.0481567l-17.071472 -9.040192z" fill-rule="evenodd"></path><path fill="#000000" fill-opacity="0.0" d="m770.07764 386.2594c31.38208 0 47.071228 -13.574829 62.76416 -27.149628c15.692871 -13.574799 31.389587 -27.149597 62.779175 -27.149597" fill-rule="nonzero"></path><path stroke="#000000" stroke-width="4.0" stroke-linejoin="round" stroke-linecap="butt" d="m770.0777 386.2594c31.382019 0 47.071167 -13.574799 62.7641 -27.149628c7.8464355 -6.787384 15.693787 -13.574799 25.503357 -18.665344c2.4523315 -1.272644 5.0272827 -2.439209 7.7556763 -3.473236c1.3640747 -0.5169983 2.7665405 -1.000885 4.2111816 -1.4482727c0.36114502 -0.11187744 0.72491455 -0.22143555 1.0913696 -0.32870483l0.42034912 -0.1211853" fill-rule="evenodd"></path><path fill="#000000" stroke="#000000" stroke-width="4.0" stroke-linecap="butt" d="m872.68066 341.62415l17.14209 -8.905518l-18.855957 -4.1967163z" fill-rule="evenodd"></path><path fill="#d9ead3" d="m22.353603 736.0083l0 0c0 -23.404663 18.514965 -42.37793 41.354332 -42.37793l0 0c10.967846 0 21.486485 4.4647827 29.241924 12.412231c7.7554398 7.9473877 12.112404 18.72638 12.112404 29.965698l0 0c0 23.404724 -18.514961 42.37799 -41.35433 42.37799l0 0c-22.839367 0 -41.354332 -18.973267 -41.354332 -42.37799z" fill-rule="nonzero"></path><path stroke="#000000" stroke-width="4.0" stroke-linejoin="round" stroke-linecap="butt" d="m22.353603 736.0083l0 0c0 -23.404663 18.514965 -42.37793 41.354332 -42.37793l0 0c10.967846 0 21.486485 4.4647827 29.241924 12.412231c7.7554398 7.9473877 12.112404 18.72638 12.112404 29.965698l0 0c0 23.404724 -18.514961 42.37799 -41.35433 42.37799l0 0c-22.839367 0 -41.354332 -18.973267 -41.354332 -42.37799z" fill-rule="nonzero"></path><path fill="#000000" d="m53.389576 730.86084q1.6875 0 3.609375 0.71875l-0.125 3.609375l-1.625 0l-0.53125 -2.1875q-0.171875 -0.390625 -0.65625 -0.578125q-0.484375 -0.1875 -1.171875 -0.1875q-1.03125 0 -1.796875 0.578125q-0.75 0.5625 -1.171875 1.703125q-0.421875 1.125 -0.421875 2.78125q0 1.9375 0.5 3.21875q0.5 1.28125 1.359375 1.890625q0.875 0.609375 1.96875 0.609375q1.015625 0 1.875 -0.296875q0.875 -0.3125 1.484375 -0.734375l0.5 1.078125q-0.421875 0.421875 -1.125 0.828125q-0.703125 0.40625 -1.578125 0.65625q-0.875 0.265625 -1.75 0.265625q-1.984375 0 -3.359375 -0.875q-1.359375 -0.875 -2.046875 -2.40625q-0.6875 -1.53125 -0.6875 -3.484375q0 -2.0 0.765625 -3.625q0.78125 -1.640625 2.296875 -2.59375q1.53125 -0.96875 3.6875 -0.96875z" fill-rule="nonzero"></path><path fill="#000000" d="m58.534107 745.7827l0 -0.75q0.21875 -0.046875 0.5 -0.140625q0.28125 -0.109375 0.375 -0.171875q0.25 -0.1875 0.421875 -0.609375q0.109375 -0.265625 0.296875 -0.84375q0.203125 -0.578125 0.265625 -0.875l1.015625 0l0.015625 2.265625l2.6249962 0l0 1.125l-2.6093712 0l0 4.71875q0 0.953125 0.046875 1.328125q0.0625 0.375 0.21875 0.484375q0.171875 0.09375 0.625 0.09375l0 0q0.40625 0 0.921875 -0.09375q0.515625 -0.109375 0.7968712 -0.21875l0 0l0.265625 0.765625q-0.234375 0.1875 -0.7031212 0.390625q-0.46875 0.203125 -1.015625 0.328125q-0.53125 0.140625 -0.984375 0.140625l-0.015625 0q-0.96875 0 -1.46875 -0.421875q-0.484375 -0.4375 -0.484375 -1.4375l0 -6.078125l-1.109375 0zm14.421871 2.3125l0 1.265625l-6.640625 0l0 -1.265625l6.640625 0zm4.703125 4.40625l0 -7.0625q-0.3125 0.125 -1.0 0.28125q-0.6875 0.140625 -1.09375 0.171875l-0.1875 -0.953125q0.828125 -0.1875 1.640625 -0.578125q0.828125 -0.40625 1.421875 -0.90625l0.015625 0l1.015625 0.15625l0 8.890625l1.8125 0.1875l0 0.859375l-5.609375 0l0 -0.859375l1.984375 -0.1875z" fill-rule="nonzero"></path><path fill="#000000" fill-opacity="0.0" d="m478.14124 388.49512c14.545349 0 21.81903 -0.5590515 29.090698 -1.118103c7.2716675 -0.5590515 14.54126 -1.118103 29.08252 -1.118103" fill-rule="nonzero"></path><path stroke="#000000" stroke-width="4.0" stroke-linejoin="round" stroke-linecap="butt" d="m478.14124 388.49512c14.545349 0 21.81903 -0.5590515 29.090668 -1.118103c0.90896606 -0.069885254 1.8178711 -0.13977051 2.7409973 -0.20855713c0.46157837 -0.03439331 0.92663574 -0.06851196 1.3970642 -0.10223389l0.95596313 -0.06674194" fill-rule="evenodd"></path><path fill="#000000" stroke="#000000" stroke-width="4.0" stroke-linecap="butt" d="m512.5298 393.60327l17.93988 -7.1639404l-18.347656 -6.04364z" fill-rule="evenodd"></path><path fill="#fce5cd" d="m1205.5852 562.62665l0 0c0 -21.421692 18.514893 -38.787415 41.354248 -38.787415l0 0c10.9678955 0 21.486572 4.086548 29.241943 11.360596c7.755493 7.274048 12.112427 17.13977 12.112427 27.426819l0 0c0 21.421692 -18.514893 38.787415 -41.35437 38.787415l0 0c-22.839355 0 -41.354248 -17.365723 -41.354248 -38.787415z" fill-rule="nonzero"></path><path stroke="#000000" stroke-width="4.0" stroke-linejoin="round" stroke-linecap="butt" d="m1205.5852 562.62665l0 0c0 -21.421692 18.514893 -38.787415 41.354248 -38.787415l0 0c10.9678955 0 21.486572 4.086548 29.241943 11.360596c7.755493 7.274048 12.112427 17.13977 12.112427 27.426819l0 0c0 21.421692 -18.514893 38.787415 -41.35437 38.787415l0 0c-22.839355 0 -41.354248 -17.365723 -41.354248 -38.787415z" fill-rule="nonzero"></path><path fill="#000000" d="m1245.1191 569.6823l0 -10.125l-2.25 0l0 -1.171875l2.25 -0.515625l0 -1.125q0 -1.484375 0.796875 -2.734375q0.8125 -1.25 2.109375 -1.984375q1.296875 -0.734375 2.671875 -0.734375q0.515625 0 0.8125 0.0625q0.3125 0.046875 0.59375 0.125l0 2.625q-0.234375 -0.21875 -0.875 -0.40625q-0.625 -0.203125 -1.390625 -0.203125q-0.78125 0 -1.234375 0.203125q-0.4375 0.1875 -0.625 0.703125q-0.1875 0.5 -0.1875 1.4375l0 2.03125l3.234375 0l0 1.6875l-3.234375 0l0 10.125l2.546875 0.21875l0 1.265625l-7.203125 0l0 -1.265625l1.984375 -0.21875z" fill-rule="nonzero"></path><path fill="#f4cccc" d="m1377.1305 633.09894l0 0c0 -15.142212 13.078857 -27.417358 29.212524 -27.417358l0 0c7.7476807 0 15.1779785 2.8886108 20.656494 8.0303955c5.4783936 5.1417236 8.556152 12.1154175 8.556152 19.386963l0 0c0 15.142151 -13.0789795 27.417297 -29.212646 27.417297l0 0c-16.133667 0 -29.212524 -12.2751465 -29.212524 -27.417297z" fill-rule="nonzero"></path><path stroke="#000000" stroke-width="4.0" stroke-linejoin="round" stroke-linecap="butt" d="m1377.1305 633.09894l0 0c0 -15.142212 13.078857 -27.417358 29.212524 -27.417358l0 0c7.7476807 0 15.1779785 2.8886108 20.656494 8.0303955c5.4783936 5.1417236 8.556152 12.1154175 8.556152 19.386963l0 0c0 15.142151 -13.0789795 27.417297 -29.212646 27.417297l0 0c-16.133667 0 -29.212524 -12.2751465 -29.212524 -27.417297z" fill-rule="nonzero"></path><path fill="#000000" d="m1407.468 633.5189q-0.28125 0.265625 -0.734375 0.265625q-0.46875 0 -0.71875 -0.265625q-0.265625 -0.25 -0.265625 -0.71875q0 -0.453125 0.265625 -0.734375q0.265625 -0.25 0.71875 -0.25q0.453125 0 0.734375 0.25q0.25 0.28125 0.25 0.734375q0 0.453125 -0.25 0.71875zm-0.734375 2.53125q1.328125 0 2.3125 -1.015625q0.9375 -0.90625 0.9375 -2.234375q0 -1.328125 -0.9375 -2.25q-0.984375 -1.0 -2.3125 -1.0q-1.328125 0 -2.3125 1.0q-0.9375 0.921875 -0.9375 2.25q0 1.328125 0.9375 2.234375q0.984375 1.015625 2.3125 1.015625zm3.328125 -0.15625q-1.46875 1.453125 -3.328125 1.453125q-1.859375 0 -3.25 -1.375q-1.296875 -1.3125 -1.296875 -3.171875q0 -1.859375 1.21875 -3.109375q1.46875 -1.4375 3.328125 -1.4375q1.859375 0 3.25 1.375q1.296875 1.3125 1.296875 3.171875q0 1.859375 -1.21875 3.09375z" fill-rule="nonzero"></path><path fill="#000000" fill-opacity="0.0" d="m105.06226 736.0083c318.01575 0 477.02362 -25.724426 636.0315 -51.44879c159.00787 -25.724426 318.01575 -51.448853 636.0315 -51.448853" fill-rule="nonzero"></path><path stroke="#000000" stroke-width="4.0" stroke-linejoin="round" stroke-linecap="butt" d="m105.06226 736.0083c318.01575 0 477.02362 -25.724426 636.0315 -51.44879c79.50397 -12.862183 159.00787 -25.724426 258.38782 -35.371094c49.68994 -4.823303 104.34888 -8.842712 166.4613 -11.656372c31.056274 -1.4067993 63.975952 -2.512085 99.06946 -3.265747c17.546753 -0.37683105 35.637085 -0.66571045 54.30957 -0.8604126c9.336304 -0.097351074 18.818115 -0.17114258 28.45044 -0.22058105l5.3530273 -0.024047852" fill-rule="evenodd"></path><path fill="#000000" stroke="#000000" stroke-width="4.0" stroke-linecap="butt" d="m1353.1393 639.7682l18.138428 -6.6452026l-18.16626 -6.5686646z" fill-rule="evenodd"></path><path fill="#000000" fill-opacity="0.0" d="m1288.2938 562.62665c22.21045 0 33.314453 17.614197 44.420776 35.228333c11.106323 17.614197 22.214844 35.228394 44.429688 35.228394" fill-rule="nonzero"></path><path stroke="#000000" stroke-width="4.0" stroke-linejoin="round" stroke-linecap="butt" d="m1288.2938 562.62665c22.210327 0 33.314453 17.614136 44.420776 35.228333c5.5531006 8.807068 11.106812 17.614197 18.049072 24.219482c0.86779785 0.8256836 1.7572021 1.6169434 2.6711426 2.3695068c0.22851562 0.18811035 0.4584961 0.37384033 0.6900635 0.5570679l0.3302002 0.25872803" fill-rule="evenodd"></path><path fill="#000000" stroke="#000000" stroke-width="4.0" stroke-linecap="butt" d="m1352.3014 631.5058l19.314575 -0.32867432l-15.00708 -12.163391z" fill-rule="evenodd"></path><path fill="#000000" fill-opacity="0.0" d="m325.13376 116.50546c23.641907 0 35.460938 68.0 47.283783 136.0c11.822845 68.0 23.649445 136.0 47.29892 136.0" fill-rule="nonzero"></path><path stroke="#000000" stroke-width="4.0" stroke-linejoin="round" stroke-linecap="butt" d="m325.1338 116.50546c23.641876 0 35.460907 68.000015 47.283752 136.00002c5.9114075 33.999985 11.823761 67.999985 19.214478 93.499985c1.8476868 6.375 3.7877197 12.21875 5.843292 17.398438c1.027771 2.5898132 2.0844116 5.013672 3.172821 7.254883c0.27209473 0.56030273 0.5461731 1.1091919 0.82229614 1.6464233l0.19824219 0.38006592" fill-rule="evenodd"></path><path fill="#000000" stroke="#000000" stroke-width="4.0" stroke-linecap="butt" d="m397.31357 377.65366l18.005524 6.997223l-9.295319 -16.93393z" fill-rule="evenodd"></path><path fill="#fce5cd" d="m1205.5852 332.11963l0 0c0 -21.421692 18.521973 -38.787415 41.369995 -38.787415l0 0c22.848145 0 41.370117 17.365723 41.370117 38.787415l0 0c0 21.421692 -18.521973 38.787384 -41.370117 38.787384l0 0c-22.848022 0 -41.369995 -17.365692 -41.369995 -38.787384z" fill-rule="nonzero"></path><path stroke="#000000" stroke-width="4.0" stroke-linejoin="round" stroke-linecap="butt" d="m1205.5852 332.11963l0 0c0 -21.421692 18.521973 -38.787415 41.369995 -38.787415l0 0c22.848145 0 41.370117 17.365723 41.370117 38.787415l0 0c0 21.421692 -18.521973 38.787384 -41.370117 38.787384l0 0c-22.848022 0 -41.369995 -17.365692 -41.369995 -38.787384z" fill-rule="nonzero"></path><path fill="#000000" d="m1245.754 339.17526l0 -9.8125l-1.703125 -0.484375l0 -1.375l3.734375 -0.484375l0.0625 0l0.59375 0.453125l0 11.703125l1.875 0.203125l0 1.28125l-6.453125 0l0 -1.28125l1.890625 -0.203125zm-0.46875 -15.96875q0 -0.796875 0.453125 -1.34375q0.46875 -0.546875 1.296875 -0.546875l0.015625 0q0.484375 0 0.84375 0.234375q0.375 0.21875 0.5625 0.59375q0.203125 0.375 0.203125 0.796875q0 0.8125 -0.46875 1.34375q-0.46875 0.53125 -1.359375 0.53125l-0.015625 0q-0.6875 0 -1.109375 -0.453125q-0.421875 -0.46875 -0.421875 -1.15625z" fill-rule="nonzero"></path><path fill="#f4cccc" d="m1377.1282 390.14938l0 0c0 -15.142151 13.078857 -27.417328 29.212524 -27.417328l0 0c7.7476807 0 15.178101 2.8886108 20.656494 8.030365c5.4783936 5.141754 8.556152 12.115448 8.556152 19.386963l0 0c0 15.142181 -13.0789795 27.417328 -29.212646 27.417328l0 0c-16.133667 0 -29.212524 -12.2751465 -29.212524 -27.417328z" fill-rule="nonzero"></path><path stroke="#000000" stroke-width="4.0" stroke-linejoin="round" stroke-linecap="butt" d="m1377.1282 390.14938l0 0c0 -15.142151 13.078857 -27.417328 29.212524 -27.417328l0 0c7.7476807 0 15.178101 2.8886108 20.656494 8.030365c5.4783936 5.141754 8.556152 12.115448 8.556152 19.386963l0 0c0 15.142181 -13.0789795 27.417328 -29.212646 27.417328l0 0c-16.133667 0 -29.212524 -12.2751465 -29.212524 -27.417328z" fill-rule="nonzero"></path><path fill="#000000" d="m1407.4657 390.5694q-0.28125 0.265625 -0.734375 0.265625q-0.46875 0 -0.71875 -0.265625q-0.265625 -0.25 -0.265625 -0.71875q0 -0.453125 0.265625 -0.734375q0.265625 -0.25 0.71875 -0.25q0.453125 0 0.734375 0.25q0.25 0.28125 0.25 0.734375q0 0.453125 -0.25 0.71875zm-0.734375 2.53125q1.328125 0 2.3125 -1.015625q0.9375 -0.90625 0.9375 -2.234375q0 -1.328125 -0.9375 -2.25q-0.984375 -1.0 -2.3125 -1.0q-1.328125 0 -2.3125 1.0q-0.9375 0.921875 -0.9375 2.25q0 1.328125 0.9375 2.234375q0.984375 1.015625 2.3125 1.015625zm3.328125 -0.15625q-1.46875 1.453125 -3.328125 1.453125q-1.859375 0 -3.25 -1.375q-1.296875 -1.3125 -1.296875 -3.171875q0 -1.859375 1.21875 -3.109375q1.46875 -1.4375 3.328125 -1.4375q1.859375 0 3.25 1.375q1.296875 1.3125 1.296875 3.171875q0 1.859375 -1.21875 3.09375z" fill-rule="nonzero"></path><path fill="#000000" fill-opacity="0.0" d="m1289.9817 444.0786c21.788696 0 32.683716 -13.480316 43.577393 -26.960632c10.893677 -13.480316 21.786133 -26.960632 43.572144 -26.960632" fill-rule="nonzero"></path><path stroke="#000000" stroke-width="4.0" stroke-linejoin="round" stroke-linecap="butt" d="m1289.9816 444.0786c21.788818 0 32.683838 -13.480316 43.577515 -26.960632c5.4467773 -6.740143 10.893311 -13.480316 17.701416 -18.53543c0.8510742 -0.631897 1.7232666 -1.2374573 2.6195068 -1.813385l0.15258789 -0.09613037" fill-rule="evenodd"></path><path fill="#000000" stroke="#000000" stroke-width="4.0" stroke-linecap="butt" d="m1355.8263 403.0318l15.677002 -11.286896l-19.264404 -1.4306946z" fill-rule="evenodd"></path><path fill="#000000" fill-opacity="0.0" d="m1288.3253 332.11963c22.193726 0 33.289062 14.503937 44.38745 29.007874c11.098511 14.503937 22.199951 29.007874 44.400024 29.007874" fill-rule="nonzero"></path><path stroke="#000000" stroke-width="4.0" stroke-linejoin="round" stroke-linecap="butt" d="m1288.3253 332.11963c22.193848 0 33.289062 14.503937 44.387573 29.007874c5.5491943 7.251953 11.099121 14.503937 18.036865 19.942902c0.8671875 0.6798706 1.7561035 1.3314209 2.6693115 1.9510803l0.64367676 0.42816162" fill-rule="evenodd"></path><path fill="#000000" stroke="#000000" stroke-width="4.0" stroke-linecap="butt" d="m1352.2222 389.79504l19.274414 -1.2886353l-15.593384 -11.402161z" fill-rule="evenodd"></path><path fill="#000000" fill-opacity="0.0" d="m1435.5557 633.09894c19.71106 0 29.567749 -33.409485 39.421997 -66.81891c9.85437 -33.409424 19.706299 -66.81891 39.412598 -66.81891" fill-rule="nonzero"></path><path stroke="#000000" stroke-width="4.0" stroke-linejoin="round" stroke-linecap="butt" d="m1435.5557 633.09894c19.71106 0 29.567749 -33.409485 39.421997 -66.81891c4.927246 -16.704712 9.85376 -33.409485 16.01184 -45.93799c0.76989746 -1.5661011 1.5587158 -3.0668945 2.3693848 -4.4943237c0.4053955 -0.7136841 0.8161621 -1.4090576 1.232544 -2.085022l0.24243164 -0.3894043" fill-rule="evenodd"></path><path fill="#000000" stroke="#000000" stroke-width="4.0" stroke-linecap="butt" d="m1498.6638 518.75696l10.961548 -15.906128l-18.621338 5.138855z" fill-rule="evenodd"></path><path fill="#000000" fill-opacity="0.0" d="m1435.5533 390.14938c19.711426 0 29.568481 27.330719 39.42285 54.661438c9.85437 27.330688 19.705933 54.661407 39.411743 54.661407" fill-rule="nonzero"></path><path stroke="#000000" stroke-width="4.0" stroke-linejoin="round" stroke-linecap="butt" d="m1435.5533 390.1494c19.711426 0 29.568481 27.330688 39.42285 54.661407c4.927124 13.665344 9.853638 27.330719 16.011475 37.579712c0.76989746 1.2811279 1.5587158 2.5088806 2.3695068 3.6765747c0.10131836 0.1459961 0.20288086 0.2909851 0.30493164 0.4350586l0.2833252 0.3961792" fill-rule="evenodd"></path><path fill="#000000" stroke="#000000" stroke-width="4.0" stroke-linecap="butt" d="m1490.484 492.5259l18.923096 3.8826904l-12.000244 -15.137878z" fill-rule="evenodd"></path><path fill="#f4cccc" d="m1514.3965 499.46222l0 0c0 -15.142181 13.0789795 -27.417328 29.212646 -27.417328l0 0c7.7476807 0 15.1779785 2.8886108 20.656372 8.030365c5.4785156 5.1417236 8.556274 12.115448 8.556274 19.386963l0 0c0 15.142151 -13.0789795 27.417297 -29.212646 27.417297l0 0c-16.133667 0 -29.212646 -12.2751465 -29.212646 -27.417297z" fill-rule="nonzero"></path><path stroke="#000000" stroke-width="4.0" stroke-linejoin="round" stroke-linecap="butt" d="m1514.3965 499.46222l0 0c0 -15.142181 13.0789795 -27.417328 29.212646 -27.417328l0 0c7.7476807 0 15.1779785 2.8886108 20.656372 8.030365c5.4785156 5.1417236 8.556274 12.115448 8.556274 19.386963l0 0c0 15.142151 -13.0789795 27.417297 -29.212646 27.417297l0 0c-16.133667 0 -29.212646 -12.2751465 -29.212646 -27.417297z" fill-rule="nonzero"></path><path fill="#000000" d="m1549.8748 500.39786q0 0.15625 -0.109375 0.265625q-0.109375 0.109375 -0.265625 0.109375l-4.15625 0q-0.15625 0 -0.28125 0.125q-0.109375 0.109375 -0.109375 0.265625l0 4.140625q0 0.15625 -0.109375 0.28125q-0.109375 0.109375 -0.265625 0.109375l-1.609375 0q-0.15625 0 -0.265625 -0.109375q-0.109375 -0.125 -0.109375 -0.28125l0 -4.140625q0 -0.15625 -0.109375 -0.265625q-0.109375 -0.125 -0.265625 -0.125l-4.15625 0q-0.15625 0 -0.265625 -0.109375q-0.109375 -0.109375 -0.109375 -0.265625l0 -1.609375q0 -0.15625 0.109375 -0.265625q0.109375 -0.109375 0.265625 -0.109375l4.15625 0q0.15625 0 0.265625 -0.109375q0.109375 -0.109375 0.109375 -0.265625l0 -4.15625q0 -0.15625 0.109375 -0.265625q0.109375 -0.125 0.265625 -0.125l1.609375 0q0.15625 0 0.265625 0.125q0.109375 0.109375 0.109375 0.265625l0 4.15625q0 0.15625 0.109375 0.265625q0.125 0.109375 0.28125 0.109375l4.15625 0q0.15625 0 0.265625 0.109375q0.109375 0.109375 0.109375 0.265625l0 1.609375z" fill-rule="nonzero"></path><path fill="#d9ead3" d="m1645.524 499.4591l0 0c0 -21.421692 18.521973 -38.787415 41.370117 -38.787415l0 0c22.848022 0 41.369995 17.365723 41.369995 38.787415l0 0c0 21.421692 -18.521973 38.787415 -41.369995 38.787415l0 0c-22.848145 0 -41.370117 -17.365723 -41.370117 -38.787415z" fill-rule="nonzero"></path><path stroke="#000000" stroke-width="4.0" stroke-linejoin="round" stroke-linecap="butt" d="m1645.524 499.4591l0 0c0 -21.421692 18.521973 -38.787415 41.370117 -38.787415l0 0c22.848022 0 41.369995 17.365723 41.369995 38.787415l0 0c0 21.421692 -18.521973 38.787415 -41.369995 38.787415l0 0c-22.848145 0 -41.370117 -17.365723 -41.370117 -38.787415z" fill-rule="nonzero"></path><path fill="#000000" d="m1685.1578 494.31158q1.6875 0 3.609375 0.71875l-0.125 3.609375l-1.625 0l-0.53125 -2.1875q-0.171875 -0.390625 -0.65625 -0.578125q-0.484375 -0.1875 -1.171875 -0.1875q-1.03125 0 -1.796875 0.578125q-0.75 0.5625 -1.171875 1.703125q-0.421875 1.125 -0.421875 2.78125q0 1.9375 0.5 3.21875q0.5 1.28125 1.359375 1.890625q0.875 0.609375 1.96875 0.609375q1.015625 0 1.875 -0.296875q0.875 -0.3125 1.484375 -0.734375l0.5 1.078125q-0.421875 0.421875 -1.125 0.828125q-0.703125 0.40625 -1.578125 0.65625q-0.875 0.265625 -1.75 0.265625q-1.984375 0 -3.359375 -0.875q-1.359375 -0.875 -2.046875 -2.40625q-0.6875 -1.53125 -0.6875 -3.484375q0 -2.0 0.765625 -3.625q0.78125 -1.640625 2.296875 -2.59375q1.53125 -0.96875 3.6875 -0.96875z" fill-rule="nonzero"></path><path fill="#000000" d="m1690.3024 509.23346l0 -0.75q0.21875 -0.046875 0.5 -0.140625q0.28125 -0.109375 0.375 -0.171875q0.25 -0.1875 0.421875 -0.609375q0.109375 -0.265625 0.296875 -0.84375q0.203125 -0.578125 0.265625 -0.875l1.015625 0l0.015625 2.265625l2.625 0l0 1.125l-2.609375 0l0 4.71875q0 0.953125 0.046875 1.328125q0.0625 0.375 0.21875 0.484375q0.171875 0.09375 0.625 0.09375l0 0q0.40625 0 0.921875 -0.09375q0.515625 -0.109375 0.796875 -0.21875l0 0l0.265625 0.765625q-0.234375 0.1875 -0.703125 0.390625q-0.46875 0.203125 -1.015625 0.328125q-0.53125 0.140625 -0.984375 0.140625l-0.015625 0q-0.96875 0 -1.46875 -0.421875q-0.484375 -0.4375 -0.484375 -1.4375l0 -6.078125l-1.109375 0z" fill-rule="nonzero"></path><path fill="#000000" fill-opacity="0.0" d="m1572.8218 499.46222c18.16919 0 27.251831 0.01574707 36.33838 0.03149414c9.08667 0.01574707 18.177246 0.03149414 36.354492 0.03149414" fill-rule="nonzero"></path><path stroke="#000000" stroke-width="4.0" stroke-linejoin="round" stroke-linecap="butt" d="m1572.8217 499.46222c18.169312 0 27.251831 0.01574707 36.3385 0.03149414l12.354492 0.018127441" fill-rule="evenodd"></path><path fill="#000000" stroke="#000000" stroke-width="4.0" stroke-linecap="butt" d="m1621.5109 506.11877l18.156128 -6.5968018l-18.148682 -6.6170654z" fill-rule="evenodd"></path><path fill="#000000" fill-opacity="0.0" d="m1728.2642 499.4591c24.307129 0 36.460693 21.015747 48.614258 42.031494c12.153442 21.015747 24.307007 42.031494 48.614136 42.031494" fill-rule="nonzero"></path><path stroke="#000000" stroke-width="4.0" stroke-linejoin="round" stroke-linecap="butt" d="m1728.2643 499.4591c24.307129 0 36.46057 21.015747 48.614136 42.031494c6.076782 10.507874 12.153564 21.015747 19.749512 28.896667c1.8989258 1.9702148 3.8929443 3.7763062 6.005615 5.377075l0.11755371 0.08807373" fill-rule="evenodd"></path><path fill="#000000" stroke="#000000" stroke-width="4.0" stroke-linecap="butt" d="m1800.6398 582.1129l19.31189 -0.4595337l-15.089111 -12.061462z" fill-rule="evenodd"></path><path fill="#f4cccc" d="m1833.6648 402.85873l0 0c0 -15.142151 20.778198 -27.417328 46.409424 -27.417328l0 0c25.631226 0 46.409424 12.275177 46.409424 27.417328l0 0c0 15.142181 -20.778198 27.417328 -46.409424 27.417328l0 0c-25.631226 0 -46.409424 -12.2751465 -46.409424 -27.417328z" fill-rule="nonzero"></path><path stroke="#000000" stroke-width="4.0" stroke-linejoin="round" stroke-linecap="butt" d="m1833.6648 402.85873l0 0c0 -15.142151 20.778198 -27.417328 46.409424 -27.417328l0 0c25.631226 0 46.409424 12.275177 46.409424 27.417328l0 0c0 15.142181 -20.778198 27.417328 -46.409424 27.417328l0 0c-25.631226 0 -46.409424 -12.2751465 -46.409424 -27.417328z" fill-rule="nonzero"></path><path fill="#000000" d="m1859.217 400.71625l0 -0.859375q0.25 -0.0625 0.578125 -0.171875q0.34375 -0.125 0.4375 -0.1875q0.3125 -0.21875 0.5 -0.71875q0.140625 -0.3125 0.359375 -0.984375q0.21875 -0.671875 0.296875 -1.03125l1.1875 0l0.015625 2.65625l3.0625 0l0 1.296875l-3.046875 0l0 5.515625q0 1.109375 0.0625 1.546875q0.0625 0.4375 0.25 0.5625q0.203125 0.109375 0.71875 0.109375l0.015625 0q0.46875 0 1.0625 -0.109375q0.609375 -0.125 0.9375 -0.25l0 0l0.3125 0.890625q-0.265625 0.21875 -0.8125 0.453125q-0.546875 0.234375 -1.1875 0.390625q-0.625 0.15625 -1.15625 0.15625l-0.015625 0q-1.125 0 -1.703125 -0.5q-0.578125 -0.5 -0.578125 -1.65625l0 -7.109375l-1.296875 0zm13.863037 2.296875q0 -0.859375 -0.1875 -1.34375q-0.171875 -0.5 -0.609375 -0.71875q-0.4375 -0.234375 -1.234375 -0.234375q-1.53125 0 -3.234375 0.859375l-0.015625 0l-0.453125 -0.9375q0.25 -0.21875 0.9375 -0.5625q0.703125 -0.359375 1.59375 -0.609375q0.890625 -0.265625 1.6875 -0.265625q1.328125 0 2.078125 0.359375q0.765625 0.359375 1.09375 1.15625q0.34375 0.796875 0.34375 2.140625l0 5.921875l1.125 0l0 0.890625q-1.34375 0.3125 -2.015625 0.3125q-0.375 0 -0.578125 -0.0625q-0.203125 -0.0625 -0.296875 -0.25q-0.09375 -0.203125 -0.09375 -0.609375l0 -0.4375q-0.5 0.484375 -1.296875 0.921875q-0.796875 0.4375 -1.796875 0.4375q-0.875 0 -1.59375 -0.3125q-0.703125 -0.3125 -1.125 -0.984375q-0.421875 -0.671875 -0.421875 -1.65625q0 -1.21875 0.828125 -2.0q0.84375 -0.78125 2.21875 -1.140625q1.375 -0.375 3.046875 -0.40625l0 -0.46875zm0 1.5q-1.34375 0 -2.203125 0.3125q-0.859375 0.296875 -1.25 0.796875q-0.375 0.5 -0.375 1.140625q0 0.953125 0.46875 1.40625q0.46875 0.4375 1.28125 0.4375q0.421875 0 1.03125 -0.234375q0.609375 -0.25 1.046875 -0.59375l0 -3.265625zm5.7076416 4.125l0 -7.640625l-1.3125 -0.359375l0 -1.09375l2.703125 -0.375l0.046875 0l0.421875 0.359375l0 0.734375l0 0.421875q0.421875 -0.375 1.046875 -0.71875q0.640625 -0.34375 1.359375 -0.5625q0.71875 -0.21875 1.375 -0.21875q1.1875 0 1.828125 0.453125q0.640625 0.4375 0.890625 1.359375q0.265625 0.90625 0.265625 2.484375l0 5.15625l1.3125 0.140625l0 1.0l-4.578125 0l0 -1.0l1.171875 -0.140625l0 -5.15625q0 -1.0625 -0.140625 -1.671875q-0.140625 -0.609375 -0.53125 -0.90625q-0.390625 -0.3125 -1.15625 -0.3125q-0.65625 0 -1.375 0.28125q-0.703125 0.28125 -1.25 0.6875l0 7.078125l1.265625 0.140625l0 1.0l-4.546875 0l0 -1.0l1.203125 -0.140625zm12.306885 0l0 -12.71875l-1.5 -0.171875l0 -0.875l3.078125 -0.390625l0.046875 0l0.4375 0.3125l0.015625 4.21875l-0.078125 1.640625q0.609375 -0.546875 1.609375 -1.0q1.0 -0.46875 2.0625 -0.46875q1.171875 0 1.8125 0.453125q0.65625 0.4375 0.90625 1.359375q0.265625 0.921875 0.265625 2.484375l0 5.15625l1.3125 0.140625l0 1.0l-4.578125 0l0 -0.984375l1.1875 -0.15625l0 -5.15625q0 -1.0625 -0.140625 -1.671875q-0.140625 -0.609375 -0.546875 -0.90625q-0.390625 -0.3125 -1.171875 -0.3125q-0.65625 0 -1.375 0.28125q-0.71875 0.265625 -1.265625 0.671875l0 7.09375l1.296875 0.140625l0 1.0l-4.46875 0l0 -1.0l1.09375 -0.140625z" fill-rule="nonzero"></path><path fill="#000000" fill-opacity="0.0" d="m1728.2642 499.4591c26.342285 0 39.511353 -24.149628 52.68457 -48.299225c13.173218 -24.149597 26.350586 -48.299194 52.701294 -48.299194" fill-rule="nonzero"></path><path stroke="#000000" stroke-width="4.0" stroke-linejoin="round" stroke-linecap="butt" d="m1728.2643 499.4591c26.342163 0 39.51111 -24.149597 52.684326 -48.299194c6.58667 -12.074829 13.174438 -24.149628 21.40918 -33.20572c2.0587158 -2.264038 4.220459 -4.3393555 6.5108643 -6.178894c0.57250977 -0.4598999 1.1531982 -0.9050293 1.7421875 -1.3346863l0.21643066 -0.15588379" fill-rule="evenodd"></path><path fill="#000000" stroke="#000000" stroke-width="4.0" stroke-linecap="butt" d="m1812.871 416.56763l15.218384 -11.898071l-19.305908 -0.6676941z" fill-rule="evenodd"></path><path fill="#fce5cd" d="m1830.5438 207.20464l0 0c0 -23.404694 18.515015 -42.37796 41.35437 -42.37796l0 0c10.9678955 0 21.48645 4.464813 29.241943 12.412216c7.755371 7.947418 12.112427 18.72641 12.112427 29.965744l0 0c0 23.404694 -18.515015 42.37796 -41.35437 42.37796l0 0c-22.839355 0 -41.35437 -18.973267 -41.35437 -42.37796z" fill-rule="nonzero"></path><path stroke="#000000" stroke-width="4.0" stroke-linejoin="round" stroke-linecap="butt" d="m1830.5438 207.20464l0 0c0 -23.404694 18.515015 -42.37796 41.35437 -42.37796l0 0c10.9678955 0 21.48645 4.464813 29.241943 12.412216c7.755371 7.947418 12.112427 18.72641 12.112427 29.965744l0 0c0 23.404694 -18.515015 42.37796 -41.35437 42.37796l0 0c-22.839355 0 -41.35437 -18.973267 -41.35437 -42.37796z" fill-rule="nonzero"></path><path fill="#000000" d="m1872.0427 202.05713q2.03125 0 3.390625 0.90625q1.359375 0.890625 2.015625 2.46875q0.65625 1.578125 0.65625 3.609375q0 2.171875 -0.890625 3.75q-0.890625 1.578125 -2.359375 2.40625q-1.453125 0.8125 -3.109375 0.8125q-2.03125 0 -3.390625 -0.890625q-1.359375 -0.90625 -2.015625 -2.484375q-0.65625 -1.578125 -0.65625 -3.609375q0 -2.140625 0.890625 -3.71875q0.90625 -1.59375 2.359375 -2.421875q1.46875 -0.828125 3.109375 -0.828125zm3.109375 7.1875q0 -2.625 -0.78125 -4.171875q-0.78125 -1.5625 -2.46875 -1.5625q-1.625 0 -2.453125 1.328125q-0.8125 1.328125 -0.8125 3.984375q0 2.625 0.796875 4.1875q0.796875 1.546875 2.46875 1.546875q3.25 0 3.25 -5.3125z" fill-rule="nonzero"></path><path fill="#f4cccc" d="m2019.6622 309.03754l0 0c0 -15.142181 13.078857 -27.417328 29.212524 -27.417328l0 0c7.7478027 0 15.1779785 2.8886108 20.656494 8.030334c5.4782715 5.141754 8.556152 12.115448 8.556152 19.386993l0 0c0 15.142151 -13.078857 27.417328 -29.212646 27.417328l0 0c-16.133667 0 -29.212524 -12.275177 -29.212524 -27.417328z" fill-rule="nonzero"></path><path stroke="#000000" stroke-width="4.0" stroke-linejoin="round" stroke-linecap="butt" d="m2019.6622 309.03754l0 0c0 -15.142181 13.078857 -27.417328 29.212524 -27.417328l0 0c7.7478027 0 15.1779785 2.8886108 20.656494 8.030334c5.4782715 5.141754 8.556152 12.115448 8.556152 19.386993l0 0c0 15.142151 -13.078857 27.417328 -29.212646 27.417328l0 0c-16.133667 0 -29.212524 -12.275177 -29.212524 -27.417328z" fill-rule="nonzero"></path><path fill="#000000" d="m2049.9998 309.45752q-0.28125 0.265625 -0.734375 0.265625q-0.46875 0 -0.71875 -0.265625q-0.265625 -0.25 -0.265625 -0.71875q0 -0.453125 0.265625 -0.734375q0.265625 -0.25 0.71875 -0.25q0.453125 0 0.734375 0.25q0.25 0.28125 0.25 0.734375q0 0.453125 -0.25 0.71875zm-0.734375 2.53125q1.328125 0 2.3125 -1.015625q0.9375 -0.90625 0.9375 -2.234375q0 -1.328125 -0.9375 -2.25q-0.984375 -1.0 -2.3125 -1.0q-1.328125 0 -2.3125 1.0q-0.9375 0.921875 -0.9375 2.25q0 1.328125 0.9375 2.234375q0.984375 1.015625 2.3125 1.015625zm3.328125 -0.15625q-1.46875 1.453125 -3.328125 1.453125q-1.859375 0 -3.25 -1.375q-1.296875 -1.3125 -1.296875 -3.171875q0 -1.859375 1.21875 -3.109375q1.46875 -1.4375 3.328125 -1.4375q1.859375 0 3.25 1.375q1.296875 1.3125 1.296875 3.171875q0 1.859375 -1.21875 3.09375z" fill-rule="nonzero"></path><path fill="#000000" fill-opacity="0.0" d="m1926.4836 402.85873c23.290405 0 34.93518 -23.456696 46.58081 -46.91339c11.645752 -23.456696 23.292358 -46.91336 46.584595 -46.91336" fill-rule="nonzero"></path><path stroke="#000000" stroke-width="4.0" stroke-linejoin="round" stroke-linecap="butt" d="m1926.4838 402.8587c23.290405 0 34.93506 -23.456665 46.58069 -46.91336c5.822876 -11.728363 11.645874 -23.456696 18.924927 -32.25293c0.90979004 -1.0995483 1.8422852 -2.1532593 2.8006592 -3.1554565c0.4790039 -0.5010681 0.9645996 -0.98928833 1.4567871 -1.4638672c0.24609375 -0.23730469 0.49401855 -0.47122192 0.7435303 -0.70162964c0.12475586 -0.11520386 0.25 -0.22955322 0.37561035 -0.34298706l0.024291992 -0.021759033" fill-rule="evenodd"></path><path fill="#000000" stroke="#000000" stroke-width="4.0" stroke-linecap="butt" d="m1999.861 324.1343l14.364746 -12.915649l-19.30603 0.6604614z" fill-rule="evenodd"></path><path fill="#000000" fill-opacity="0.0" d="m1913.2526 207.20464c26.605225 0 39.907227 25.456696 53.21045 50.913376c13.303101 25.456696 26.6073 50.91339 53.21472 50.91339" fill-rule="nonzero"></path><path stroke="#000000" stroke-width="4.0" stroke-linejoin="round" stroke-linecap="butt" d="m1913.2524 207.20464c26.605347 0 39.90735 25.456696 53.21045 50.913406c6.6516113 12.7283325 13.303467 25.456665 21.618286 35.00293c2.0787354 2.3865662 4.2614746 4.5742493 6.5739746 6.513336c0.578125 0.48477173 1.1644287 0.95401 1.7592773 1.4069214c0.14868164 0.11325073 0.29785156 0.22543335 0.44763184 0.3366089l0.05505371 0.040374756" fill-rule="evenodd"></path><path fill="#000000" stroke="#000000" stroke-width="4.0" stroke-linecap="butt" d="m1994.8214 307.68393l19.310669 -0.5074768l-15.119019 -12.023926z" fill-rule="evenodd"></path><path fill="#d9ead3" d="m2151.8015 309.03687l0 0c0 -23.404694 18.514893 -42.37796 41.354248 -42.37796l0 0c10.968018 0 21.486572 4.464813 29.241943 12.412231c7.755615 7.9473877 12.112549 18.72641 12.112549 29.965729l0 0c0 23.404694 -18.515137 42.37796 -41.354492 42.37796l0 0c-22.839355 0 -41.354248 -18.973267 -41.354248 -42.37796z" fill-rule="nonzero"></path><path stroke="#000000" stroke-width="4.0" stroke-linejoin="round" stroke-linecap="butt" d="m2151.8015 309.03687l0 0c0 -23.404694 18.514893 -42.37796 41.354248 -42.37796l0 0c10.968018 0 21.486572 4.464813 29.241943 12.412231c7.755615 7.9473877 12.112549 18.72641 12.112549 29.965729l0 0c0 23.404694 -18.515137 42.37796 -41.354492 42.37796l0 0c-22.839355 0 -41.354248 -18.973267 -41.354248 -42.37796z" fill-rule="nonzero"></path><path fill="#000000" d="m2184.4058 316.10812l0 -16.359375l-1.9375 -0.234375l0 -1.109375l3.96875 -0.5l0.0625 0l0.5625 0.390625l0.015625 5.4375l-0.109375 2.09375q0.796875 -0.703125 2.078125 -1.28125q1.296875 -0.59375 2.65625 -0.59375q1.5 0 2.328125 0.578125q0.84375 0.5625 1.171875 1.75q0.34375 1.1875 0.34375 3.203125l0 6.609375l1.6875 0.203125l0 1.28125l-5.890625 0l0 -1.265625l1.53125 -0.203125l0 -6.640625q0 -1.359375 -0.1875 -2.140625q-0.171875 -0.78125 -0.6875 -1.171875q-0.515625 -0.390625 -1.515625 -0.390625q-0.84375 0 -1.765625 0.34375q-0.921875 0.34375 -1.625 0.875l0 9.109375l1.65625 0.203125l0 1.28125l-5.75 0l0 -1.28125l1.40625 -0.1875z" fill-rule="nonzero"></path><path fill="#000000" d="m2198.3745 318.81125l0 -0.75q0.21875 -0.046875 0.5 -0.140625q0.28125 -0.109375 0.375 -0.171875q0.25 -0.1875 0.421875 -0.609375q0.109375 -0.265625 0.296875 -0.84375q0.203125 -0.578125 0.265625 -0.875l1.015625 0l0.015625 2.265625l2.625 0l0 1.125l-2.609375 0l0 4.71875q0 0.953125 0.046875 1.328125q0.0625 0.375 0.21875 0.484375q0.171875 0.09375 0.625 0.09375l0 0q0.40625 0 0.921875 -0.09375q0.515625 -0.109375 0.796875 -0.21875l0 0l0.265625 0.765625q-0.234375 0.1875 -0.703125 0.390625q-0.46875 0.203125 -1.015625 0.328125q-0.53125 0.140625 -0.984375 0.140625l-0.015625 0q-0.96875 0 -1.46875 -0.421875q-0.484375 -0.4375 -0.484375 -1.4375l0 -6.078125l-1.109375 0z" fill-rule="nonzero"></path><path fill="#000000" fill-opacity="0.0" d="m2078.0874 309.03754c18.424805 0 27.636963 0.01574707 36.84961 0.03149414c9.2126465 0.01574707 18.425537 0.03149414 36.851074 0.03149414" fill-rule="nonzero"></path><path stroke="#000000" stroke-width="4.0" stroke-linejoin="round" stroke-linecap="butt" d="m2078.0874 309.03754c18.424805 0 27.636963 0.01574707 36.84961 0.03149414l12.851318 0.018554688" fill-rule="evenodd"></path><path fill="#000000" stroke="#000000" stroke-width="4.0" stroke-linecap="butt" d="m2127.7847 315.69455l18.156006 -6.597168l-18.148926 -6.616699z" fill-rule="evenodd"></path><path fill="#f4cccc" d="m1044.5126 331.94846l0 0c0 -15.142151 13.078857 -27.417297 29.212524 -27.417297l0 0c7.7476807 0 15.1779785 2.8885803 20.656494 8.030334c5.4783936 5.141754 8.556152 12.115448 8.556152 19.386963l0 0c0 15.142181 -13.0789795 27.417328 -29.212646 27.417328l0 0c-16.133667 0 -29.212524 -12.2751465 -29.212524 -27.417328z" fill-rule="nonzero"></path><path stroke="#000000" stroke-width="4.0" stroke-linejoin="round" stroke-linecap="butt" d="m1044.5126 331.94846l0 0c0 -15.142151 13.078857 -27.417297 29.212524 -27.417297l0 0c7.7476807 0 15.1779785 2.8885803 20.656494 8.030334c5.4783936 5.141754 8.556152 12.115448 8.556152 19.386963l0 0c0 15.142181 -13.0789795 27.417328 -29.212646 27.417328l0 0c-16.133667 0 -29.212524 -12.2751465 -29.212524 -27.417328z" fill-rule="nonzero"></path><path fill="#000000" d="m1079.7095 329.7541l0 1.703125l-4.5625 0q1.5 0.859375 2.4375 2.171875q0.953125 1.296875 0.953125 2.765625q0 1.90625 -1.5 3.171875q-1.5 1.25 -3.421875 1.25q-2.25 0 -3.890625 -1.765625q-1.640625 -1.78125 -1.640625 -4.140625q0 -1.671875 0.859375 -2.9375q0.859375 -1.28125 2.0 -1.75q1.140625 -0.46875 3.09375 -0.46875l5.671875 0zm-5.34375 1.703125l-0.421875 0q-1.75 0 -2.796875 0.875q-1.046875 0.875 -1.046875 2.734375q0 1.984375 1.09375 3.5q1.109375 1.515625 2.578125 1.515625q1.1875 0 1.953125 -1.140625q0.78125 -1.140625 0.78125 -2.75q0 -2.578125 -2.140625 -4.734375z" fill-rule="nonzero"></path><path fill="#000000" fill-opacity="0.0" d="m1102.9377 331.94846c25.662964 0 38.495117 0.039367676 51.325928 0.07876587c12.830688 0.039367676 25.65979 0.07873535 51.319702 0.07873535" fill-rule="nonzero"></path><path stroke="#000000" stroke-width="4.0" stroke-linejoin="round" stroke-linecap="butt" d="m1102.9377 331.94846c25.662842 0 38.495117 0.039398193 51.325928 0.07876587c6.415283 0.019683838 12.8302 0.039367676 20.848877 0.054107666l6.470825 0.008605957" fill-rule="evenodd"></path><path fill="#000000" stroke="#000000" stroke-width="4.0" stroke-linecap="butt" d="m1181.579 338.69687l18.15686 -6.594818l-18.148071 -6.619049z" fill-rule="evenodd"></path><path fill="#000000" fill-opacity="0.0" d="m770.07764 386.2594c31.38208 0 47.071228 -45.18112 62.76416 -90.36221c15.692871 -45.181107 31.389587 -90.36221 62.779175 -90.36221" fill-rule="nonzero"></path><path stroke="#000000" stroke-width="4.0" stroke-linejoin="round" stroke-linecap="butt" d="m770.0777 386.2594c31.382019 0 47.071167 -45.18112 62.7641 -90.36221c7.8464355 -22.590546 15.693787 -45.181107 25.503357 -62.12401c2.4523315 -4.235733 5.0272827 -8.1184845 7.7556763 -11.560013c1.3640747 -1.7207794 2.7665405 -3.3312378 4.2111816 -4.820343c0.72229004 -0.7445679 1.4551392 -1.458786 2.1989746 -2.1413116c0.18597412 -0.17063904 0.37261963 -0.33927917 0.5599365 -0.5059204l0.28552246 -0.25" fill-rule="evenodd"></path><path fill="#000000" stroke="#000000" stroke-width="4.0" stroke-linecap="butt" d="m875.82324 220.62476l14.372986 -12.906525l-19.306519 0.64819336z" fill-rule="evenodd"></path><path fill="#000000" fill-opacity="0.0" d="m1105.0605 205.25c181.37366 0 272.06238 0.4881897 362.74744 0.9763794c90.68506 0.4881897 181.36646 0.9763794 362.7329 0.9763794" fill-rule="nonzero"></path><path stroke="#000000" stroke-width="4.0" stroke-linejoin="round" stroke-linecap="butt" d="m1105.0605 205.25c181.37378 0 272.06238 0.4881897 362.7473 0.9763794c45.34253 0.24409485 90.684204 0.4881897 147.36096 0.67126465c28.338379 0.09152222 59.51062 0.16781616 94.93359 0.22120667c17.711548 0.02670288 36.485718 0.047668457 56.499756 0.061965942c10.006958 0.007156372 20.323975 0.012649536 30.9729 0.016342163l8.96582 0.0015106201" fill-rule="evenodd"></path><path fill="#000000" stroke="#000000" stroke-width="4.0" stroke-linecap="butt" d="m1806.5397 213.8056l18.153564 -6.603836l-18.151245 -6.610016z" fill-rule="evenodd"></path><path fill="#000000" fill-opacity="0.0" d="m770.07764 386.2594c31.38208 0 47.071228 44.18109 62.76416 88.36218c15.692871 44.18109 31.389587 88.36224 62.779175 88.36224" fill-rule="nonzero"></path><path stroke="#000000" stroke-width="4.0" stroke-linejoin="round" stroke-linecap="butt" d="m770.0777 386.2594c31.382019 0 47.071167 44.18109 62.7641 88.36218c7.8464355 22.090576 15.693787 44.18109 25.503357 60.749023c2.4523315 4.141968 5.0272827 7.9387817 7.7556763 11.304138c1.3640747 1.6826782 2.7665405 3.2575073 4.2111816 4.713684c0.72229004 0.7280884 1.4551392 1.4265137 2.1989746 2.093872c0.18597412 0.16687012 0.37261963 0.3317871 0.5599365 0.49475098l0.22662354 0.19403076" fill-rule="evenodd"></path><path fill="#000000" stroke="#000000" stroke-width="4.0" stroke-linecap="butt" d="m870.8715 560.31647l19.310364 0.52008057l-14.458313 -12.810852z" fill-rule="evenodd"></path><path fill="#f4cccc" d="m1044.5126 562.80304l0 0c0 -15.142151 13.078857 -27.417297 29.212524 -27.417297l0 0c7.7476807 0 15.1779785 2.8886108 20.656494 8.030334c5.4783936 5.1417236 8.556152 12.1154175 8.556152 19.386963l0 0c0 15.142151 -13.0789795 27.417358 -29.212646 27.417358l0 0c-16.133667 0 -29.212524 -12.2752075 -29.212524 -27.417358z" fill-rule="nonzero"></path><path stroke="#000000" stroke-width="4.0" stroke-linejoin="round" stroke-linecap="butt" d="m1044.5126 562.80304l0 0c0 -15.142151 13.078857 -27.417297 29.212524 -27.417297l0 0c7.7476807 0 15.1779785 2.8886108 20.656494 8.030334c5.4783936 5.1417236 8.556152 12.1154175 8.556152 19.386963l0 0c0 15.142151 -13.0789795 27.417358 -29.212646 27.417358l0 0c-16.133667 0 -29.212524 -12.2752075 -29.212524 -27.417358z" fill-rule="nonzero"></path><path fill="#000000" d="m1079.7095 560.60864l0 1.703125l-4.5625 0q1.5 0.859375 2.4375 2.171875q0.953125 1.296875 0.953125 2.765625q0 1.90625 -1.5 3.171875q-1.5 1.25 -3.421875 1.25q-2.25 0 -3.890625 -1.765625q-1.640625 -1.78125 -1.640625 -4.140625q0 -1.671875 0.859375 -2.9375q0.859375 -1.28125 2.0 -1.75q1.140625 -0.46875 3.09375 -0.46875l5.671875 0zm-5.34375 1.703125l-0.421875 0q-1.75 0 -2.796875 0.875q-1.046875 0.875 -1.046875 2.734375q0 1.984375 1.09375 3.5q1.109375 1.515625 2.578125 1.515625q1.1875 0 1.953125 -1.140625q0.78125 -1.140625 0.78125 -2.75q0 -2.578125 -2.140625 -4.734375z" fill-rule="nonzero"></path><path fill="#000000" fill-opacity="0.0" d="m1102.9377 562.80304c25.662964 0 38.495117 -0.04724121 51.325928 -0.09448242c12.830688 -0.04724121 25.65979 -0.09448242 51.319702 -0.09448242" fill-rule="nonzero"></path><path stroke="#000000" stroke-width="4.0" stroke-linejoin="round" stroke-linecap="butt" d="m1102.9377 562.80304c25.662842 0 38.495117 -0.04724121 51.325928 -0.09448242c6.415283 -0.023620605 12.8302 -0.04724121 20.848877 -0.064941406c2.0046387 -0.0044555664 4.109619 -0.008483887 6.3397217 -0.012084961l0.13110352 -1.8310547E-4" fill-rule="evenodd"></path><path fill="#000000" stroke="#000000" stroke-width="4.0" stroke-linecap="butt" d="m1181.5881 569.2383l18.147705 -6.619995l-18.157227 -6.593872z" fill-rule="evenodd"></path><path fill="#f4cccc" d="m1046.6354 205.25l0 0c0 -15.142166 13.078857 -27.417328 29.212524 -27.417328l0 0c7.7476807 0 15.178101 2.8886108 20.656494 8.03035c5.4783936 5.141754 8.556152 12.115448 8.556152 19.386978l0 0c0 15.142166 -13.078857 27.417328 -29.212646 27.417328l0 0c-16.133667 0 -29.212524 -12.275162 -29.212524 -27.417328z" fill-rule="nonzero"></path><path stroke="#000000" stroke-width="4.0" stroke-linejoin="round" stroke-linecap="butt" d="m1046.6354 205.25l0 0c0 -15.142166 13.078857 -27.417328 29.212524 -27.417328l0 0c7.7476807 0 15.178101 2.8886108 20.656494 8.03035c5.4783936 5.141754 8.556152 12.115448 8.556152 19.386978l0 0c0 15.142166 -13.078857 27.417328 -29.212646 27.417328l0 0c-16.133667 0 -29.212524 -12.275162 -29.212524 -27.417328z" fill-rule="nonzero"></path><path fill="#000000" d="m1081.8323 203.05562l0 1.703125l-4.5625 0q1.5 0.859375 2.4375 2.171875q0.953125 1.296875 0.953125 2.765625q0 1.90625 -1.5 3.171875q-1.5 1.25 -3.421875 1.25q-2.25 0 -3.890625 -1.765625q-1.640625 -1.78125 -1.640625 -4.140625q0 -1.671875 0.859375 -2.9375q0.859375 -1.28125 2.0 -1.75q1.140625 -0.46875 3.09375 -0.46875l5.671875 0zm-5.34375 1.703125l-0.421875 0q-1.75 0 -2.796875 0.875q-1.046875 0.875 -1.046875 2.734375q0 1.984375 1.09375 3.5q1.109375 1.515625 2.578125 1.515625q1.1875 0 1.953125 -1.140625q0.78125 -1.140625 0.78125 -2.75q0 -2.578125 -2.140625 -4.734375z" fill-rule="nonzero"></path><path fill="#f4cccc" d="m1027.314 444.278l0 0c0 -15.142151 20.778198 -27.417328 46.409424 -27.417328l0 0c25.631226 0 46.409424 12.275177 46.409424 27.417328l0 0c0 15.142181 -20.778198 27.417328 -46.409424 27.417328l0 0c-25.631226 0 -46.409424 -12.2751465 -46.409424 -27.417328z" fill-rule="nonzero"></path><path stroke="#000000" stroke-width="4.0" stroke-linejoin="round" stroke-linecap="butt" d="m1027.314 444.278l0 0c0 -15.142151 20.778198 -27.417328 46.409424 -27.417328l0 0c25.631226 0 46.409424 12.275177 46.409424 27.417328l0 0c0 15.142181 -20.778198 27.417328 -46.409424 27.417328l0 0c-25.631226 0 -46.409424 -12.2751465 -46.409424 -27.417328z" fill-rule="nonzero"></path><path fill="#000000" d="m1052.8662 442.13553l0 -0.859375q0.25 -0.0625 0.578125 -0.171875q0.34375 -0.125 0.4375 -0.1875q0.3125 -0.21875 0.5 -0.71875q0.140625 -0.3125 0.359375 -0.984375q0.21875 -0.671875 0.296875 -1.03125l1.1875 0l0.015625 2.65625l3.0625 0l0 1.296875l-3.046875 0l0 5.515625q0 1.109375 0.0625 1.546875q0.0625 0.4375 0.25 0.5625q0.203125 0.109375 0.71875 0.109375l0.015625 0q0.46875 0 1.0625 -0.109375q0.609375 -0.125 0.9375 -0.25l0 0l0.3125 0.890625q-0.265625 0.21875 -0.8125 0.453125q-0.546875 0.234375 -1.1875 0.390625q-0.625 0.15625 -1.15625 0.15625l-0.015625 0q-1.125 0 -1.703125 -0.5q-0.578125 -0.5 -0.578125 -1.65625l0 -7.109375l-1.296875 0zm13.863037 2.296875q0 -0.859375 -0.1875 -1.34375q-0.171875 -0.5 -0.609375 -0.71875q-0.4375 -0.234375 -1.234375 -0.234375q-1.53125 0 -3.234375 0.859375l-0.015625 0l-0.453125 -0.9375q0.25 -0.21875 0.9375 -0.5625q0.703125 -0.359375 1.59375 -0.609375q0.890625 -0.265625 1.6875 -0.265625q1.328125 0 2.078125 0.359375q0.765625 0.359375 1.09375 1.15625q0.34375 0.796875 0.34375 2.140625l0 5.921875l1.125 0l0 0.890625q-1.34375 0.3125 -2.015625 0.3125q-0.375 0 -0.578125 -0.0625q-0.203125 -0.0625 -0.296875 -0.25q-0.09375 -0.203125 -0.09375 -0.609375l0 -0.4375q-0.5 0.484375 -1.296875 0.921875q-0.796875 0.4375 -1.796875 0.4375q-0.875 0 -1.59375 -0.3125q-0.703125 -0.3125 -1.125 -0.984375q-0.421875 -0.671875 -0.421875 -1.65625q0 -1.21875 0.828125 -2.0q0.84375 -0.78125 2.21875 -1.140625q1.375 -0.375 3.046875 -0.40625l0 -0.46875zm0 1.5q-1.34375 0 -2.203125 0.3125q-0.859375 0.296875 -1.25 0.796875q-0.375 0.5 -0.375 1.140625q0 0.953125 0.46875 1.40625q0.46875 0.4375 1.28125 0.4375q0.421875 0 1.03125 -0.234375q0.609375 -0.25 1.046875 -0.59375l0 -3.265625zm5.7076416 4.125l0 -7.640625l-1.3125 -0.359375l0 -1.09375l2.703125 -0.375l0.046875 0l0.421875 0.359375l0 0.734375l0 0.421875q0.421875 -0.375 1.046875 -0.71875q0.640625 -0.34375 1.359375 -0.5625q0.71875 -0.21875 1.375 -0.21875q1.1875 0 1.828125 0.453125q0.640625 0.4375 0.890625 1.359375q0.265625 0.90625 0.265625 2.484375l0 5.15625l1.3125 0.140625l0 1.0l-4.578125 0l0 -1.0l1.171875 -0.140625l0 -5.15625q0 -1.0625 -0.140625 -1.671875q-0.140625 -0.609375 -0.53125 -0.90625q-0.390625 -0.3125 -1.15625 -0.3125q-0.65625 0 -1.375 0.28125q-0.703125 0.28125 -1.25 0.6875l0 7.078125l1.265625 0.140625l0 1.0l-4.546875 0l0 -1.0l1.203125 -0.140625zm12.306885 0l0 -12.71875l-1.5 -0.171875l0 -0.875l3.078125 -0.390625l0.046875 0l0.4375 0.3125l0.015625 4.21875l-0.078125 1.640625q0.609375 -0.546875 1.609375 -1.0q1.0 -0.46875 2.0625 -0.46875q1.171875 0 1.8125 0.453125q0.65625 0.4375 0.90625 1.359375q0.265625 0.921875 0.265625 2.484375l0 5.15625l1.3125 0.140625l0 1.0l-4.578125 0l0 -0.984375l1.1875 -0.15625l0 -5.15625q0 -1.0625 -0.140625 -1.671875q-0.140625 -0.609375 -0.546875 -0.90625q-0.390625 -0.3125 -1.171875 -0.3125q-0.65625 0 -1.375 0.28125q-0.71875 0.265625 -1.265625 0.671875l0 7.09375l1.296875 0.140625l0 1.0l-4.46875 0l0 -1.0l1.09375 -0.140625z" fill-rule="nonzero"></path><path fill="#000000" fill-opacity="0.0" d="m1120.1328 444.278c21.789185 0 32.684692 -0.04724121 43.57837 -0.09448242c10.893677 -0.04724121 21.785645 -0.09448242 43.57129 -0.09448242" fill-rule="nonzero"></path><path stroke="#000000" stroke-width="4.0" stroke-linejoin="round" stroke-linecap="butt" d="m1120.1329 444.278c21.789062 0 32.68445 -0.04724121 43.578247 -0.09448242c5.4467773 -0.023620605 10.893188 -0.04724121 17.701172 -0.064971924l1.8701172 -0.004180908" fill-rule="evenodd"></path><path fill="#000000" stroke="#000000" stroke-width="4.0" stroke-linecap="butt" d="m1183.2894 450.72128l18.145386 -6.626068l-18.159302 -6.5877686z" fill-rule="evenodd"></path><path fill="#f4cccc" d="m677.2588 386.2594l0 0c0 -15.142181 20.778198 -27.417328 46.409424 -27.417328l0 0c25.631226 0 46.409424 12.2751465 46.409424 27.417328l0 0c0 15.142151 -20.778198 27.417297 -46.409424 27.417297l0 0c-25.631226 0 -46.409424 -12.2751465 -46.409424 -27.417297z" fill-rule="nonzero"></path><path stroke="#000000" stroke-width="4.0" stroke-linejoin="round" stroke-linecap="butt" d="m677.2588 386.2594l0 0c0 -15.142181 20.778198 -27.417328 46.409424 -27.417328l0 0c25.631226 0 46.409424 12.2751465 46.409424 27.417328l0 0c0 15.142151 -20.778198 27.417297 -46.409424 27.417297l0 0c-25.631226 0 -46.409424 -12.2751465 -46.409424 -27.417297z" fill-rule="nonzero"></path><path fill="#000000" d="m705.34644 390.22626l0.359375 1.375q0.109375 0.1875 0.421875 0.375q0.3125 0.171875 0.734375 0.28125q0.4375 0.109375 0.875 0.109375q1.03125 0 1.46875 -0.390625q0.4375 -0.390625 0.4375 -1.0625q0 -0.46875 -0.296875 -0.828125q-0.296875 -0.375 -0.875 -0.6875q-0.578125 -0.3125 -1.578125 -0.71875q-1.453125 -0.5625 -2.125 -1.328125q-0.65625 -0.78125 -0.65625 -2.0q0 -0.8125 0.484375 -1.4375q0.5 -0.625 1.359375 -0.96875q0.875 -0.34375 1.96875 -0.34375q0.828125 0 1.46875 0.125q0.640625 0.125 1.28125 0.34375l0.328125 0.09375l0 2.3125l-1.15625 0l-0.390625 -1.28125q-0.109375 -0.234375 -0.59375 -0.40625q-0.484375 -0.171875 -1.078125 -0.171875q-0.828125 0 -1.296875 0.359375q-0.453125 0.34375 -0.453125 0.921875q0 0.515625 0.265625 0.859375q0.28125 0.34375 0.671875 0.5625q0.40625 0.21875 1.125 0.515625l0.359375 0.15625q1.03125 0.453125 1.671875 0.84375q0.65625 0.390625 1.078125 1.0q0.4375 0.609375 0.4375 1.5q0 0.90625 -0.484375 1.59375q-0.46875 0.6875 -1.375 1.078125q-0.90625 0.375 -2.140625 0.375q-0.9375 0 -1.96875 -0.25q-1.015625 -0.25 -1.625 -0.53125l0 -2.375l1.296875 0zm12.829346 3.15625q-0.40625 0 -0.90625 -0.0625q-0.484375 -0.0625 -0.828125 -0.15625l0.0625 1.546875l0 1.796875l1.859375 0.203125l0 0.984375l-5.296875 0l0 -0.984375l1.359375 -0.203125l0 -12.109375l-1.296875 -0.359375l0 -1.09375l2.6875 -0.375l0.046875 0l0.40625 0.359375l0 1.046875q0.546875 -0.609375 1.34375 -1.015625q0.8125 -0.421875 1.8125 -0.421875q1.125 0 2.03125 0.546875q0.921875 0.53125 1.46875 1.6875q0.5625 1.140625 0.5625 2.859375q0 1.59375 -0.65625 2.90625q-0.640625 1.3125 -1.84375 2.078125q-1.203125 0.765625 -2.8125 0.765625zm-1.671875 -1.609375q0.125 0.234375 0.609375 0.40625q0.5 0.171875 1.125 0.171875q0.890625 0 1.5625 -0.46875q0.671875 -0.46875 1.0625 -1.484375q0.40625 -1.015625 0.40625 -2.578125q0 -1.328125 -0.359375 -2.1875q-0.34375 -0.875 -0.953125 -1.28125q-0.59375 -0.421875 -1.375 -0.421875q-0.640625 0 -1.203125 0.265625q-0.546875 0.265625 -0.875 0.625l0 6.953125zm9.897034 0.265625l0 -12.71875l-1.5 -0.171875l0 -0.875l3.109375 -0.390625l0.015625 0l0.453125 0.3125l0 13.84375l1.546875 0.140625l0 1.0l-5.09375 0l0 -1.0l1.46875 -0.140625zm6.314209 0l0 -7.640625l-1.328125 -0.375l0 -1.078125l2.90625 -0.375l0.046875 0l0.453125 0.359375l0 9.109375l1.46875 0.140625l0 1.0l-5.03125 0l0 -1.0l1.484375 -0.140625zm-0.375 -12.421875q0 -0.625 0.359375 -1.046875q0.359375 -0.4375 1.015625 -0.4375l0 0q0.390625 0 0.671875 0.1875q0.28125 0.171875 0.421875 0.46875q0.15625 0.296875 0.15625 0.609375q0 0.640625 -0.375 1.0625q-0.359375 0.40625 -1.046875 0.40625l-0.015625 0q-0.515625 0 -0.859375 -0.359375q-0.328125 -0.359375 -0.328125 -0.890625zm5.0369263 4.5l0 -0.859375q0.25 -0.0625 0.578125 -0.171875q0.34375 -0.125 0.4375 -0.1875q0.3125 -0.21875 0.5 -0.71875q0.140625 -0.3125 0.359375 -0.984375q0.21875 -0.671875 0.296875 -1.03125l1.1875 0l0.015625 2.65625l3.0625 0l0 1.296875l-3.046875 0l0 5.515625q0 1.109375 0.0625 1.546875q0.0625 0.4375 0.25 0.5625q0.203125 0.109375 0.71875 0.109375l0.015625 0q0.46875 0 1.0625 -0.109375q0.609375 -0.125 0.9375 -0.25l0 0l0.3125 0.890625q-0.265625 0.21875 -0.8125 0.453125q-0.546875 0.234375 -1.1875 0.390625q-0.625 0.15625 -1.15625 0.15625l-0.015625 0q-1.125 0 -1.703125 -0.5q-0.578125 -0.5 -0.578125 -1.65625l0 -7.109375l-1.296875 0z" fill-rule="nonzero"></path><path fill="#fce5cd" d="m895.6128 331.9452l0 0c0 -21.421692 16.956726 -38.787384 37.874023 -38.787384l0 0c10.0448 0 19.678162 4.0865173 26.780945 11.360565c7.102783 7.274048 11.093018 17.13977 11.093018 27.426819l0 0c0 21.421692 -16.956726 38.787415 -37.873962 38.787415l0 0c-20.917297 0 -37.874023 -17.365723 -37.874023 -38.787415z" fill-rule="nonzero"></path><path stroke="#000000" stroke-width="4.0" stroke-linejoin="round" stroke-linecap="butt" d="m895.6128 331.9452l0 0c0 -21.421692 16.956726 -38.787384 37.874023 -38.787384l0 0c10.0448 0 19.678162 4.0865173 26.780945 11.360565c7.102783 7.274048 11.093018 17.13977 11.093018 27.426819l0 0c0 21.421692 -16.956726 38.787415 -37.873962 38.787415l0 0c-20.917297 0 -37.874023 -17.365723 -37.874023 -38.787415z" fill-rule="nonzero"></path><path fill="#000000" d="m932.9282 331.78207q0 -1.109375 -0.234375 -1.734375q-0.21875 -0.640625 -0.78125 -0.921875q-0.5625 -0.296875 -1.59375 -0.296875q-1.984375 0 -4.171875 1.109375l-0.015625 0l-0.578125 -1.21875q0.3125 -0.28125 1.203125 -0.71875q0.90625 -0.453125 2.046875 -0.78125q1.140625 -0.34375 2.171875 -0.34375q1.71875 0 2.6875 0.46875q0.984375 0.453125 1.40625 1.484375q0.4375 1.015625 0.4375 2.75l0 7.609375l1.4375 0l0 1.15625q-1.71875 0.40625 -2.578125 0.40625q-0.5 0 -0.765625 -0.078125q-0.25 -0.078125 -0.375 -0.328125q-0.109375 -0.265625 -0.109375 -0.78125l0 -0.5625q-0.640625 0.609375 -1.671875 1.1875q-1.03125 0.5625 -2.3125 0.5625q-1.125 0 -2.046875 -0.40625q-0.90625 -0.40625 -1.453125 -1.265625q-0.546875 -0.859375 -0.546875 -2.140625q0 -1.546875 1.078125 -2.546875q1.09375 -1.015625 2.84375 -1.484375q1.765625 -0.484375 3.921875 -0.515625l0 -0.609375zm0 1.921875q-1.71875 0 -2.828125 0.40625q-1.109375 0.390625 -1.609375 1.03125q-0.484375 0.640625 -0.484375 1.46875q0 1.21875 0.609375 1.796875q0.609375 0.578125 1.640625 0.578125q0.546875 0 1.328125 -0.3125q0.78125 -0.3125 1.34375 -0.75l0 -4.21875z" fill-rule="nonzero"></path><path fill="#000000" d="m939.4126 348.50082l0 -6.546875l-1.125 -0.328125l0 -0.921875l2.484375 -0.3125l0.03125 0l0.40625 0.296875l0 7.8125l1.25 0.125l0 0.859375l-4.3125 0l0 -0.859375l1.265625 -0.125zm-0.3125 -10.65625q0 -0.53125 0.3125 -0.890625q0.3125 -0.375 0.859375 -0.375l0.015625 0q0.328125 0 0.5625 0.15625q0.25 0.15625 0.375 0.40625q0.125 0.25 0.125 0.53125q0 0.546875 -0.3125 0.90625q-0.3125 0.34375 -0.90625 0.34375l0 0q-0.453125 0 -0.75 -0.296875q-0.28125 -0.3125 -0.28125 -0.78125z" fill-rule="nonzero"></path><path fill="#000000" fill-opacity="0.0" d="m619.06494 386.25772c14.553528 0 21.83142 0.01574707 29.107056 0.03149414c7.2755737 0.01574707 14.548828 0.03149414 29.097656 0.03149414" fill-rule="nonzero"></path><path stroke="#000000" stroke-width="4.0" stroke-linejoin="round" stroke-linecap="butt" d="m619.06494 386.25772c14.553528 0 21.83142 0.01574707 29.106995 0.03149414l5.0977783 0.009338379" fill-rule="evenodd"></path><path fill="#000000" stroke="#000000" stroke-width="4.0" stroke-linecap="butt" d="m653.2636 392.90546l18.158447 -6.590149l-18.14624 -6.6236877z" fill-rule="evenodd"></path><path fill="#000000" fill-opacity="0.0" d="m971.3608 331.9452c18.290283 0 27.434814 0.01574707 36.580505 0.03149414c9.145691 0.01574707 18.29248 0.03149414 36.58484 0.03149414" fill-rule="nonzero"></path><path stroke="#000000" stroke-width="4.0" stroke-linejoin="round" stroke-linecap="butt" d="m971.36084 331.9452c18.290222 0 27.434753 0.01574707 36.580444 0.03149414l12.5849 0.018341064" fill-rule="evenodd"></path><path fill="#000000" stroke="#000000" stroke-width="4.0" stroke-linecap="butt" d="m1020.5225 338.60196l18.156067 -6.596985l-18.148804 -6.6168823z" fill-rule="evenodd"></path><path fill="#fce5cd" d="m895.6128 562.9982l0 0c0 -21.421692 16.956726 -38.787415 37.874023 -38.787415l0 0c10.0448 0 19.678162 4.086548 26.780945 11.360596c7.102783 7.274048 11.093018 17.13977 11.093018 27.426819l0 0c0 21.421692 -16.956726 38.787415 -37.873962 38.787415l0 0c-20.917297 0 -37.874023 -17.365723 -37.874023 -38.787415z" fill-rule="nonzero"></path><path stroke="#000000" stroke-width="4.0" stroke-linejoin="round" stroke-linecap="butt" d="m895.6128 562.9982l0 0c0 -21.421692 16.956726 -38.787415 37.874023 -38.787415l0 0c10.0448 0 19.678162 4.086548 26.780945 11.360596c7.102783 7.274048 11.093018 17.13977 11.093018 27.426819l0 0c0 21.421692 -16.956726 38.787415 -37.873962 38.787415l0 0c-20.917297 0 -37.874023 -17.365723 -37.874023 -38.787415z" fill-rule="nonzero"></path><path fill="#000000" d="m932.3696 562.8351q0 -1.109375 -0.234375 -1.734375q-0.21875 -0.640625 -0.78125 -0.921875q-0.5625 -0.296875 -1.59375 -0.296875q-1.984375 0 -4.171875 1.109375l-0.015625 0l-0.578125 -1.21875q0.3125 -0.28125 1.203125 -0.71875q0.90625 -0.453125 2.046875 -0.78125q1.140625 -0.34375 2.171875 -0.34375q1.71875 0 2.6875 0.46875q0.984375 0.453125 1.40625 1.484375q0.4375 1.015625 0.4375 2.75l0 7.609375l1.4375 0l0 1.15625q-1.71875 0.40625 -2.578125 0.40625q-0.5 0 -0.765625 -0.078125q-0.25 -0.078125 -0.375 -0.328125q-0.109375 -0.265625 -0.109375 -0.78125l0 -0.5625q-0.640625 0.609375 -1.671875 1.1875q-1.03125 0.5625 -2.3125 0.5625q-1.125 0 -2.046875 -0.40625q-0.90625 -0.40625 -1.453125 -1.265625q-0.546875 -0.859375 -0.546875 -2.140625q0 -1.546875 1.078125 -2.546875q1.09375 -1.015625 2.84375 -1.484375q1.765625 -0.484375 3.921875 -0.515625l0 -0.609375zm0 1.921875q-1.71875 0 -2.828125 0.40625q-1.109375 0.390625 -1.609375 1.03125q-0.484375 0.640625 -0.484375 1.46875q0 1.21875 0.609375 1.796875q0.609375 0.578125 1.640625 0.578125q0.546875 0 1.328125 -0.3125q0.78125 -0.3125 1.34375 -0.75l0 -4.21875z" fill-rule="nonzero"></path><path fill="#000000" d="m938.9946 579.5382l0 -6.75l-1.484375 0l0 -0.765625l1.484375 -0.359375l0 -0.734375q0 -1.0 0.53125 -1.828125q0.546875 -0.84375 1.40625 -1.328125q0.875 -0.484375 1.796875 -0.484375q0.34375 0 0.53125 0.03125q0.203125 0.03125 0.40625 0.09375l0 1.75q-0.171875 -0.140625 -0.59375 -0.265625q-0.421875 -0.140625 -0.921875 -0.140625q-0.53125 0 -0.828125 0.140625q-0.28125 0.125 -0.421875 0.46875q-0.125 0.328125 -0.125 0.953125l0.015625 1.34375l2.140625 0l0 1.125l-2.140625 0l0 6.765625l1.6875 0.140625l0 0.84375l-4.796875 0l0 -0.84375l1.3125 -0.15625z" fill-rule="nonzero"></path><path fill="#fce5cd" d="m895.61145 205.53352l0 0c0 -21.421677 16.956787 -38.7874 37.874023 -38.7874l0 0c10.0448 0 19.678223 4.0865173 26.780945 11.360565c7.102783 7.274048 11.093018 17.139786 11.093018 27.426834l0 0c0 21.421692 -16.956726 38.787415 -37.873962 38.787415l0 0c-20.917236 0 -37.874023 -17.365723 -37.874023 -38.787415z" fill-rule="nonzero"></path><path stroke="#000000" stroke-width="4.0" stroke-linejoin="round" stroke-linecap="butt" d="m895.61145 205.53352l0 0c0 -21.421677 16.956787 -38.7874 37.874023 -38.7874l0 0c10.0448 0 19.678223 4.0865173 26.780945 11.360565c7.102783 7.274048 11.093018 17.139786 11.093018 27.426834l0 0c0 21.421692 -16.956726 38.787415 -37.873962 38.787415l0 0c-20.917236 0 -37.874023 -17.365723 -37.874023 -38.787415z" fill-rule="nonzero"></path><path fill="#000000" d="m930.84485 205.3704q0 -1.109375 -0.234375 -1.734375q-0.21875 -0.640625 -0.78125 -0.921875q-0.5625 -0.296875 -1.59375 -0.296875q-1.984375 0 -4.171875 1.109375l-0.015625 0l-0.578125 -1.21875q0.3125 -0.28125 1.203125 -0.71875q0.90625 -0.453125 2.046875 -0.78125q1.140625 -0.34375 2.171875 -0.34375q1.71875 0 2.6875 0.46875q0.984375 0.453125 1.40625 1.484375q0.4375 1.015625 0.4375 2.75l0 7.609375l1.4375 0l0 1.15625q-1.71875 0.40625 -2.578125 0.40625q-0.5 0 -0.765625 -0.078125q-0.25 -0.078125 -0.375 -0.328125q-0.109375 -0.265625 -0.109375 -0.78125l0 -0.5625q-0.640625 0.609375 -1.671875 1.1875q-1.03125 0.5625 -2.3125 0.5625q-1.125 0 -2.046875 -0.40625q-0.90625 -0.40625 -1.453125 -1.265625q-0.546875 -0.859375 -0.546875 -2.140625q0 -1.546875 1.078125 -2.546875q1.09375 -1.015625 2.84375 -1.484375q1.765625 -0.484375 3.921875 -0.515625l0 -0.609375zm0 1.921875q-1.71875 0 -2.828125 0.40625q-1.109375 0.390625 -1.609375 1.03125q-0.484375 0.640625 -0.484375 1.46875q0 1.21875 0.609375 1.796875q0.609375 0.578125 1.640625 0.578125q0.546875 0 1.328125 -0.3125q0.78125 -0.3125 1.34375 -0.75l0 -4.21875z" fill-rule="nonzero"></path><path fill="#000000" d="m940.3136 213.94853q1.359375 0 2.265625 0.609375q0.90625 0.59375 1.34375 1.640625q0.4375 1.046875 0.4375 2.40625q0 1.4375 -0.609375 2.5q-0.59375 1.046875 -1.5625 1.609375q-0.96875 0.546875 -2.078125 0.546875q-1.359375 0 -2.265625 -0.609375q-0.890625 -0.609375 -1.328125 -1.65625q-0.4375 -1.046875 -0.4375 -2.40625q0 -1.421875 0.59375 -2.46875q0.59375 -1.0625 1.5625 -1.609375q0.984375 -0.5625 2.078125 -0.5625zm2.0625 4.796875q0 -1.765625 -0.515625 -2.796875q-0.515625 -1.03125 -1.640625 -1.03125q-1.078125 0 -1.625 0.890625q-0.546875 0.875 -0.546875 2.640625q0 1.765625 0.515625 2.796875q0.53125 1.03125 1.65625 1.03125q2.15625 0 2.15625 -3.53125z" fill-rule="nonzero"></path><path fill="#fce5cd" d="m895.6128 443.9612l0 0c0 -21.421692 16.956726 -38.787415 37.874023 -38.787415l0 0c10.0448 0 19.678162 4.0865173 26.780945 11.360565c7.102783 7.274048 11.093018 17.13977 11.093018 27.42685l0 0c0 21.421692 -16.956726 38.787384 -37.873962 38.787384l0 0c-20.917297 0 -37.874023 -17.365692 -37.874023 -38.787384z" fill-rule="nonzero"></path><path stroke="#000000" stroke-width="4.0" stroke-linejoin="round" stroke-linecap="butt" d="m895.6128 443.9612l0 0c0 -21.421692 16.956726 -38.787415 37.874023 -38.787415l0 0c10.0448 0 19.678162 4.0865173 26.780945 11.360565c7.102783 7.274048 11.093018 17.13977 11.093018 27.42685l0 0c0 21.421692 -16.956726 38.787384 -37.873962 38.787384l0 0c-20.917297 0 -37.874023 -17.365692 -37.874023 -38.787384z" fill-rule="nonzero"></path><path fill="#000000" d="m930.7095 443.79807q0 -1.109375 -0.234375 -1.734375q-0.21875 -0.640625 -0.78125 -0.921875q-0.5625 -0.296875 -1.59375 -0.296875q-1.984375 0 -4.171875 1.109375l-0.015625 0l-0.578125 -1.21875q0.3125 -0.28125 1.203125 -0.71875q0.90625 -0.453125 2.046875 -0.78125q1.140625 -0.34375 2.171875 -0.34375q1.71875 0 2.6875 0.46875q0.984375 0.453125 1.40625 1.484375q0.4375 1.015625 0.4375 2.75l0 7.609375l1.4375 0l0 1.15625q-1.71875 0.40625 -2.578125 0.40625q-0.5 0 -0.765625 -0.078125q-0.25 -0.078125 -0.375 -0.328125q-0.109375 -0.265625 -0.109375 -0.78125l0 -0.5625q-0.640625 0.609375 -1.671875 1.1875q-1.03125 0.5625 -2.3125 0.5625q-1.125 0 -2.046875 -0.40625q-0.90625 -0.40625 -1.453125 -1.265625q-0.546875 -0.859375 -0.546875 -2.140625q0 -1.546875 1.078125 -2.546875q1.09375 -1.015625 2.84375 -1.484375q1.765625 -0.484375 3.921875 -0.515625l0 -0.609375zm0 1.921875q-1.71875 0 -2.828125 0.40625q-1.109375 0.390625 -1.609375 1.03125q-0.484375 0.640625 -0.484375 1.46875q0 1.21875 0.609375 1.796875q0.609375 0.578125 1.640625 0.578125q0.546875 0 1.328125 -0.3125q0.78125 -0.3125 1.34375 -0.75l0 -4.21875z" fill-rule="nonzero"></path><path fill="#000000" d="m939.8657 458.3293q-0.640625 0 -1.203125 -0.125q-0.21875 0.1875 -0.34375 0.453125q-0.125 0.25 -0.125 0.515625q0 0.390625 0.1875 0.59375q0.1875 0.203125 0.546875 0.28125q0.375 0.078125 1.03125 0.078125l1.703125 0q3.046875 0 3.046875 2.359375q0 0.90625 -0.640625 1.671875q-0.640625 0.765625 -1.71875 1.203125q-1.078125 0.453125 -2.3125 0.453125l-0.015625 0q-2.09375 0 -3.046875 -0.640625q-0.9375 -0.625 -0.9375 -1.796875q0 -0.71875 0.421875 -1.3125q0.4375 -0.59375 1.03125 -0.90625q-0.75 -0.421875 -0.75 -1.3125q0 -0.578125 0.328125 -1.078125q0.34375 -0.5 0.890625 -0.796875q-0.78125 -0.359375 -1.203125 -1.015625q-0.421875 -0.671875 -0.421875 -1.546875q0 -0.921875 0.515625 -1.609375q0.53125 -0.6875 1.375 -1.046875q0.859375 -0.375 1.828125 -0.375l0.015625 0q0.84375 0 1.515625 0.1875q0.671875 0.1875 1.125 0.5625q0.234375 -0.265625 0.703125 -0.515625q0.46875 -0.25 1.109375 -0.25l0.421875 0l0 1.515625l-1.640625 0q0.265625 0.5625 0.265625 1.25q0 0.9375 -0.484375 1.671875q-0.484375 0.734375 -1.328125 1.140625q-0.84375 0.390625 -1.890625 0.390625l0 0zm0.09375 -5.046875q-0.84375 0 -1.3125 0.46875q-0.46875 0.453125 -0.46875 1.484375q0 0.984375 0.4375 1.578125q0.453125 0.59375 1.421875 0.59375l0 0q0.890625 0 1.296875 -0.53125q0.40625 -0.53125 0.40625 -1.5625q0 -1.046875 -0.4375 -1.53125q-0.4375 -0.5 -1.34375 -0.5l0 0zm-1.671875 8.15625q-0.5 0.625 -0.5 1.484375q0 0.9375 0.546875 1.421875q0.5625 0.484375 1.828125 0.484375l0.015625 0q0.703125 0 1.34375 -0.21875q0.640625 -0.21875 1.03125 -0.65625q0.40625 -0.421875 0.40625 -1.015625q0 -0.515625 -0.15625 -0.8125q-0.140625 -0.28125 -0.546875 -0.4375q-0.40625 -0.140625 -1.1875 -0.140625l-1.5625 0q-0.640625 0 -1.21875 -0.109375z" fill-rule="nonzero"></path><path fill="#000000" fill-opacity="0.0" d="m971.3608 562.9982c18.290283 0 27.434814 -0.04724121 36.580505 -0.09448242c9.145691 -0.04724121 18.29248 -0.09448242 36.58484 -0.09448242" fill-rule="nonzero"></path><path stroke="#000000" stroke-width="4.0" stroke-linejoin="round" stroke-linecap="butt" d="m971.36084 562.9982c18.290222 0 27.434753 -0.04724121 36.580444 -0.09448242c2.286377 -0.011779785 4.572876 -0.023620605 7.0023804 -0.03466797l5.5825195 -0.02154541" fill-rule="evenodd"></path><path fill="#000000" stroke="#000000" stroke-width="4.0" stroke-linecap="butt" d="m1020.53674 569.45447l18.141846 -6.6358643l-18.162964 -6.577942z" fill-rule="evenodd"></path><path fill="#000000" fill-opacity="0.0" d="m971.35944 205.53352c18.818176 0 28.226868 -0.07086182 37.63629 -0.14172363c9.409485 -0.07086182 18.819702 -0.14173889 37.639282 -0.14173889" fill-rule="nonzero"></path><path stroke="#000000" stroke-width="4.0" stroke-linejoin="round" stroke-linecap="butt" d="m971.3595 205.53352c18.818054 0 28.226807 -0.07086182 37.63623 -0.14172363c2.352356 -0.017715454 4.704834 -0.035446167 7.2042236 -0.05204773c1.2497559 -0.008300781 2.536255 -0.016342163 3.8778687 -0.023956299l2.557373 -0.013015747" fill-rule="evenodd"></path><path fill="#000000" stroke="#000000" stroke-width="4.0" stroke-linecap="butt" d="m1022.64966 211.90968l18.137817 -6.6467743l-18.16681 -6.567047z" fill-rule="evenodd"></path><path fill="#000000" fill-opacity="0.0" d="m971.3608 443.9612c13.994934 0 20.993835 0.07873535 27.989868 0.1574707c6.9960938 0.07873535 13.989319 0.1574707 27.978699 0.1574707" fill-rule="nonzero"></path><path stroke="#000000" stroke-width="4.0" stroke-linejoin="round" stroke-linecap="butt" d="m971.36084 443.9612c13.994873 0 20.993713 0.07873535 27.989807 0.1574707l3.9789429 0.04296875" fill-rule="evenodd"></path><path fill="#000000" stroke="#000000" stroke-width="4.0" stroke-linecap="butt" d="m1003.29803 450.7685l18.183716 -6.520233l-18.120605 -6.6934814z" fill-rule="evenodd"></path><path fill="#fce5cd" d="m1207.273 444.0786l0 0c0 -21.421692 18.515015 -38.787415 41.35437 -38.787415l0 0c10.9678955 0 21.48645 4.0865173 29.241943 11.360565c7.755493 7.274048 12.112427 17.139801 12.112427 27.42685l0 0c0 21.421692 -18.515015 38.787384 -41.35437 38.787384l0 0c-22.839355 0 -41.35437 -17.365692 -41.35437 -38.787384z" fill-rule="nonzero"></path><path stroke="#000000" stroke-width="4.0" stroke-linejoin="round" stroke-linecap="butt" d="m1207.273 444.0786l0 0c0 -21.421692 18.515015 -38.787415 41.35437 -38.787415l0 0c10.9678955 0 21.48645 4.0865173 29.241943 11.360565c7.755493 7.274048 12.112427 17.139801 12.112427 27.42685l0 0c0 21.421692 -18.515015 38.787384 -41.35437 38.787384l0 0c-22.839355 0 -41.35437 -17.365692 -41.35437 -38.787384z" fill-rule="nonzero"></path><path fill="#000000" d="m1248.098 447.86862q-0.96875 0 -1.796875 -0.203125q-0.328125 0.296875 -0.515625 0.6875q-0.1875 0.375 -0.1875 0.765625q0 0.59375 0.265625 0.90625q0.28125 0.3125 0.84375 0.4375q0.5625 0.109375 1.53125 0.109375l2.546875 0q4.59375 0 4.59375 3.515625q0 1.359375 -0.96875 2.5q-0.96875 1.15625 -2.59375 1.828125q-1.609375 0.671875 -3.46875 0.671875l0 0q-3.140625 0 -4.5625 -0.953125q-1.421875 -0.953125 -1.421875 -2.703125q0 -1.09375 0.640625 -1.984375q0.640625 -0.875 1.546875 -1.328125q-1.140625 -0.65625 -1.140625 -1.96875q0 -0.890625 0.5 -1.625q0.5 -0.75 1.328125 -1.203125q-1.171875 -0.546875 -1.796875 -1.53125q-0.625 -0.984375 -0.625 -2.3125q0 -1.390625 0.78125 -2.421875q0.78125 -1.03125 2.0625 -1.5625q1.28125 -0.546875 2.734375 -0.5625l0 0q1.265625 0 2.265625 0.296875q1.015625 0.28125 1.71875 0.84375q0.34375 -0.421875 1.046875 -0.796875q0.703125 -0.375 1.65625 -0.375l0.625 0l0 2.28125l-2.453125 0q0.40625 0.859375 0.40625 1.890625q0 1.40625 -0.734375 2.5q-0.71875 1.09375 -1.984375 1.703125q-1.265625 0.59375 -2.828125 0.59375l-0.015625 0zm0.140625 -7.5625q-1.265625 0 -1.96875 0.6875q-0.6875 0.671875 -0.6875 2.234375q0 1.484375 0.65625 2.375q0.65625 0.875 2.109375 0.875l0.015625 0q1.34375 0 1.9375 -0.796875q0.609375 -0.796875 0.609375 -2.328125q0 -1.578125 -0.65625 -2.3125q-0.640625 -0.734375 -2.0 -0.734375l-0.015625 0zm-2.5 12.21875q-0.75 0.921875 -0.75 2.21875q0 1.40625 0.828125 2.125q0.84375 0.734375 2.734375 0.734375l0.03125 0q1.046875 0 2.0 -0.328125q0.96875 -0.328125 1.5625 -0.984375q0.609375 -0.640625 0.609375 -1.53125q0 -0.75 -0.234375 -1.203125q-0.234375 -0.4375 -0.84375 -0.65625q-0.609375 -0.21875 -1.765625 -0.21875l-2.359375 0q-0.953125 0 -1.8125 -0.15625z" fill-rule="nonzero"></path></g></svg>

