<?xml version="1.0" standalone="yes"?>

<svg version="1.1" viewBox="0.0 0.0 1257.9501312335958 529.3412073490814" fill="none" stroke="none" stroke-linecap="square" stroke-miterlimit="10" xmlns="http://www.w3.org/2000/svg" xmlns:xlink="http://www.w3.org/1999/xlink"><clipPath id="p.0"><path d="m0 0l1257.9501 0l0 529.3412l-1257.9501 0l0 -529.3412z" clip-rule="nonzero"></path></clipPath><g clip-path="url(#p.0)"><path fill="#000000" fill-opacity="0.0" d="m0 0l1257.9501 0l0 529.3412l-1257.9501 0z" fill-rule="nonzero"></path><path fill="#fce5cd" d="m151.25388 59.980446l0 0c0 -21.343414 18.444458 -38.645668 41.196854 -38.645668l0 0c10.926086 0 21.404663 4.0715847 29.13057 11.319054c7.7259064 7.247471 12.066284 17.077145 12.066284 27.326614l0 0c0 21.343414 -18.444458 38.645668 -41.196854 38.645668l0 0c-22.752396 0 -41.196854 -17.302254 -41.196854 -38.645668z" fill-rule="nonzero"></path><path stroke="#000000" stroke-width="4.0" stroke-linejoin="round" stroke-linecap="butt" d="m151.25388 59.980446l0 0c0 -21.343414 18.444458 -38.645668 41.196854 -38.645668l0 0c10.926086 0 21.404663 4.0715847 29.13057 11.319054c7.7259064 7.247471 12.066284 17.077145 12.066284 27.326614l0 0c0 21.343414 -18.444458 38.645668 -41.196854 38.645668l0 0c-22.752396 0 -41.196854 -17.302254 -41.196854 -38.645668z" fill-rule="nonzero"></path><path fill="#000000" d="m190.63042 67.03607l0 -10.125l-2.25 0l0 -1.171875l2.25 -0.515625l0 -1.125q0 -1.484375 0.796875 -2.734375q0.8125 -1.25 2.109375 -1.984375q1.296875 -0.734375 2.671875 -0.734375q0.515625 0 0.8125 0.0625q0.3125 0.046875 0.59375 0.125l0 2.625q-0.234375 -0.21875 -0.875 -0.40625q-0.625 -0.203125 -1.390625 -0.203125q-0.78125 0 -1.234375 0.203125q-0.4375 0.1875 -0.625 0.703125q-0.1875 0.5 -0.1875 1.4375l0 2.03125l3.234375 0l0 1.6875l-3.234375 0l0 10.125l2.546875 0.21875l0 1.265625l-7.203125 0l0 -1.265625l1.984375 -0.21875z" fill-rule="nonzero"></path><path fill="#d9ead3" d="m20.990324 195.42061l0 0c0 -23.317734 18.44446 -42.220474 41.196854 -42.220474l0 0c10.926083 0 21.404667 4.4482117 29.130573 12.366089c7.7259064 7.917877 12.066277 18.656815 12.066277 29.854385l0 0c0 23.317719 -18.444458 42.220474 -41.19685 42.220474l0 0c-22.752392 0 -41.196854 -18.902756 -41.196854 -42.220474z" fill-rule="nonzero"></path><path stroke="#000000" stroke-width="4.0" stroke-linejoin="round" stroke-linecap="butt" d="m20.990324 195.42061l0 0c0 -23.317734 18.44446 -42.220474 41.196854 -42.220474l0 0c10.926083 0 21.404667 4.4482117 29.130573 12.366089c7.7259064 7.917877 12.066277 18.656815 12.066277 29.854385l0 0c0 23.317719 -18.444458 42.220474 -41.19685 42.220474l0 0c-22.752392 0 -41.196854 -18.902756 -41.196854 -42.220474z" fill-rule="nonzero"></path><path fill="#000000" d="m51.868816 190.2731q1.6875 0 3.609375 0.71875l-0.125 3.609375l-1.625 0l-0.53125 -2.1875q-0.171875 -0.390625 -0.65625 -0.578125q-0.484375 -0.1875 -1.171875 -0.1875q-1.03125 0 -1.796875 0.578125q-0.75 0.5625 -1.171875 1.703125q-0.421875 1.125 -0.421875 2.78125q0 1.9375 0.5 3.21875q0.5 1.28125 1.359375 1.890625q0.875 0.609375 1.96875 0.609375q1.015625 0 1.875 -0.296875q0.875 -0.3125 1.484375 -0.734375l0.5 1.078125q-0.421875 0.421875 -1.125 0.828125q-0.703125 0.40625 -1.578125 0.65625q-0.875 0.265625 -1.75 0.265625q-1.984375 0 -3.359375 -0.875q-1.359375 -0.875 -2.046875 -2.40625q-0.6875 -1.53125 -0.6875 -3.484375q0 -2.0 0.765625 -3.625q0.78125 -1.640625 2.296875 -2.59375q1.53125 -0.96875 3.6875 -0.96875z" fill-rule="nonzero"></path><path fill="#000000" d="m57.013348 205.19498l0 -0.75q0.21875 -0.046875 0.5 -0.140625q0.28125 -0.109375 0.375 -0.171875q0.25 -0.1875 0.421875 -0.609375q0.109375 -0.265625 0.296875 -0.84375q0.203125 -0.578125 0.265625 -0.875l1.015625 0l0.015625 2.265625l2.625 0l0 1.125l-2.609375 0l0 4.71875q0 0.953125 0.046875 1.328125q0.0625 0.375 0.21875 0.484375q0.171875 0.09375 0.625 0.09375l0 0q0.40625 0 0.921875 -0.09375q0.515625 -0.109375 0.796875 -0.21875l0 0l0.265625 0.765625q-0.234375 0.1875 -0.703125 0.390625q-0.46875 0.203125 -1.015625 0.328125q-0.53125 0.140625 -0.984375 0.140625l-0.015625 0q-0.96875 0 -1.46875 -0.421875q-0.484375 -0.4375 -0.484375 -1.4375l0 -6.078125l-1.109375 0zm14.421871 2.3125l0 1.265625l-6.640625 0l0 -1.265625l6.640625 0zm4.703125 4.40625l0 -7.0625q-0.3125 0.125 -1.0 0.28125q-0.6875 0.140625 -1.09375 0.171875l-0.1875 -0.953125q0.828125 -0.1875 1.640625 -0.578125q0.828125 -0.40625 1.421875 -0.90625l0.015625 0l1.015625 0.15625l0 8.890625l1.8125 0.1875l0 0.859375l-5.609375 0l0 -0.859375l1.984375 -0.1875z" fill-rule="nonzero"></path><path fill="#f4cccc" d="m346.57565 125.92101l0 0c0 -15.081284 13.029572 -27.307083 29.102356 -27.307083l0 0c7.718445 0 15.120728 2.8769836 20.578491 7.9980545c5.457733 5.1210785 8.523865 12.066742 8.523865 19.309029l0 0c0 15.081291 -13.029572 27.30709 -29.102356 27.30709l0 0c-16.072784 0 -29.102356 -12.2258 -29.102356 -27.30709z" fill-rule="nonzero"></path><path stroke="#000000" stroke-width="4.0" stroke-linejoin="round" stroke-linecap="butt" d="m346.57565 125.92101l0 0c0 -15.081284 13.029572 -27.307083 29.102356 -27.307083l0 0c7.718445 0 15.120728 2.8769836 20.578491 7.9980545c5.457733 5.1210785 8.523865 12.066742 8.523865 19.309029l0 0c0 15.081291 -13.029572 27.30709 -29.102356 27.30709l0 0c-16.072784 0 -29.102356 -12.2258 -29.102356 -27.30709z" fill-rule="nonzero"></path><path fill="#000000" d="m376.803 126.34101q-0.28125 0.265625 -0.734375 0.265625q-0.46875 0 -0.71875 -0.265625q-0.265625 -0.25 -0.265625 -0.71875q0 -0.453125 0.265625 -0.734375q0.265625 -0.25 0.71875 -0.25q0.453125 0 0.734375 0.25q0.25 0.28125 0.25 0.734375q0 0.453125 -0.25 0.71875zm-0.734375 2.5312424q1.328125 0 2.3125 -1.0156174q0.9375 -0.90625 0.9375 -2.234375q0 -1.328125 -0.9375 -2.25q-0.984375 -1.0 -2.3125 -1.0q-1.328125 0 -2.3125 1.0q-0.9375 0.921875 -0.9375 2.25q0 1.328125 0.9375 2.234375q0.984375 1.0156174 2.3125 1.0156174zm3.328125 -0.15625q-1.46875 1.453125 -3.328125 1.453125q-1.859375 0 -3.25 -1.375q-1.296875 -1.3124924 -1.296875 -3.1718674q0 -1.859375 1.21875 -3.109375q1.46875 -1.4375 3.328125 -1.4375q1.859375 0 3.25 1.375q1.296875 1.3125 1.296875 3.171875q0 1.859375 -1.21875 3.0937424z" fill-rule="nonzero"></path><path fill="#000000" fill-opacity="0.0" d="m103.384026 195.42061c60.79284 0 91.18806 -17.37796 121.585686 -34.755905c30.397644 -17.37796 60.797714 -34.755913 121.59541 -34.755913" fill-rule="nonzero"></path><path stroke="#000000" stroke-width="4.0" stroke-linejoin="round" stroke-linecap="butt" d="m103.384026 195.42061c60.79284 0 91.18806 -17.37796 121.585686 -34.755905c15.198822 -8.68898 30.398254 -17.37796 49.39769 -23.894684c9.499725 -3.258377 19.949432 -5.9736786 31.824066 -7.8743896c2.968689 -0.47517395 6.0263977 -0.8994446 9.180603 -1.2685623c1.5770874 -0.18455505 3.1783142 -0.3553238 4.804596 -0.5117645c0.40655518 -0.039115906 0.81466675 -0.07732391 1.2243958 -0.11464691l1.1843567 -0.10484314" fill-rule="evenodd"></path><path fill="#000000" stroke="#000000" stroke-width="4.0" stroke-linecap="butt" d="m322.85715 133.49716l17.865326 -7.3478775l-18.408752 -5.854805z" fill-rule="evenodd"></path><path fill="#000000" fill-opacity="0.0" d="m233.64758 59.980446c28.226074 0 42.338013 16.48819 56.45218 32.97638c14.114166 16.48819 28.23059 32.97638 56.461212 32.97638" fill-rule="nonzero"></path><path stroke="#000000" stroke-width="4.0" stroke-linejoin="round" stroke-linecap="butt" d="m233.64758 59.98045c28.226074 0 42.338013 16.488186 56.45218 32.976376c7.057068 8.244095 14.114716 16.48819 22.93695 22.671257c2.205536 1.5457687 4.521393 2.9627228 6.975067 4.2186584c0.6134033 0.31398773 1.2354431 0.61790466 1.8665466 0.9112549c0.31552124 0.14668274 0.6333313 0.29071808 0.9534607 0.43204498l0.18634033 0.08119202" fill-rule="evenodd"></path><path fill="#000000" stroke="#000000" stroke-width="4.0" stroke-linecap="butt" d="m321.73474 127.75232l19.090027 -2.9550095l-16.523254 -10.007156z" fill-rule="evenodd"></path><path fill="#fce5cd" d="m151.25388 330.86066l0 0c0 -21.343414 18.451508 -38.64566 41.2126 -38.64566l0 0c10.930267 0 21.412842 4.071594 29.141708 11.319061c7.7288666 7.247467 12.070892 17.077148 12.070892 27.3266l0 0c0 21.343414 -18.451508 38.64569 -41.2126 38.64569l0 0c-22.761093 0 -41.2126 -17.302277 -41.2126 -38.64569z" fill-rule="nonzero"></path><path stroke="#000000" stroke-width="4.0" stroke-linejoin="round" stroke-linecap="butt" d="m151.25388 330.86066l0 0c0 -21.343414 18.451508 -38.64566 41.2126 -38.64566l0 0c10.930267 0 21.412842 4.071594 29.141708 11.319061c7.7288666 7.247467 12.070892 17.077148 12.070892 27.3266l0 0c0 21.343414 -18.451508 38.64569 -41.2126 38.64569l0 0c-22.761093 0 -41.2126 -17.302277 -41.2126 -38.64569z" fill-rule="nonzero"></path><path fill="#000000" d="m191.2653 337.9163l0 -9.8125l-1.703125 -0.484375l0 -1.375l3.734375 -0.484375l0.0625 0l0.59375 0.453125l0 11.703125l1.875 0.203125l0 1.28125l-6.453125 0l0 -1.28125l1.890625 -0.203125zm-0.46875 -15.96875q0 -0.796875 0.453125 -1.34375q0.46875 -0.546875 1.296875 -0.546875l0.015625 0q0.484375 0 0.84375 0.234375q0.375 0.21875 0.5625 0.59375q0.203125 0.375 0.203125 0.796875q0 0.8125 -0.46875 1.34375q-0.46875 0.53125 -1.359375 0.53125l-0.015625 0q-0.6875 0 -1.109375 -0.453125q-0.421875 -0.46875 -0.421875 -1.15625z" fill-rule="nonzero"></path><path fill="#fce5cd" d="m151.25388 466.3059l0 0c0 -23.317719 18.451508 -42.22046 41.2126 -42.22046l0 0c10.930267 0 21.412842 4.4482117 29.141708 12.366089c7.7288666 7.917877 12.070892 18.65683 12.070892 29.85437l0 0c0 23.317749 -18.451508 42.22049 -41.2126 42.22049l0 0c-22.761093 0 -41.2126 -18.90274 -41.2126 -42.22049z" fill-rule="nonzero"></path><path stroke="#000000" stroke-width="4.0" stroke-linejoin="round" stroke-linecap="butt" d="m151.25388 466.3059l0 0c0 -23.317719 18.451508 -42.22046 41.2126 -42.22046l0 0c10.930267 0 21.412842 4.4482117 29.141708 12.366089c7.7288666 7.917877 12.070892 18.65683 12.070892 29.85437l0 0c0 23.317749 -18.451508 42.22049 -41.2126 42.22049l0 0c-22.761093 0 -41.2126 -18.90274 -41.2126 -42.22049z" fill-rule="nonzero"></path><path fill="#000000" d="m191.93718 470.09592q-0.96875 0 -1.796875 -0.203125q-0.328125 0.296875 -0.515625 0.6875q-0.1875 0.375 -0.1875 0.765625q0 0.59375 0.265625 0.90625q0.28125 0.3125 0.84375 0.4375q0.5625 0.109375 1.53125 0.109375l2.546875 0q4.59375 0 4.59375 3.515625q0 1.359375 -0.96875 2.5q-0.96875 1.15625 -2.59375 1.828125q-1.609375 0.671875 -3.46875 0.671875l0 0q-3.140625 0 -4.5625 -0.953125q-1.421875 -0.953125 -1.421875 -2.703125q0 -1.09375 0.640625 -1.984375q0.640625 -0.875 1.546875 -1.328125q-1.140625 -0.65625 -1.140625 -1.96875q0 -0.890625 0.5 -1.625q0.5 -0.75 1.328125 -1.203125q-1.171875 -0.546875 -1.796875 -1.53125q-0.625 -0.984375 -0.625 -2.3125q0 -1.390625 0.78125 -2.421875q0.78125 -1.03125 2.0625 -1.5625q1.28125 -0.546875 2.734375 -0.5625l0 0q1.265625 0 2.265625 0.296875q1.015625 0.28125 1.71875 0.84375q0.34375 -0.421875 1.046875 -0.796875q0.703125 -0.375 1.65625 -0.375l0.625 0l0 2.28125l-2.453125 0q0.40625 0.859375 0.40625 1.890625q0 1.40625 -0.734375 2.5q-0.71875 1.09375 -1.984375 1.703125q-1.265625 0.59375 -2.828125 0.59375l-0.015625 0zm0.140625 -7.5625q-1.265625 0 -1.96875 0.6875q-0.6875 0.671875 -0.6875 2.234375q0 1.484375 0.65625 2.375q0.65625 0.875 2.109375 0.875l0.015625 0q1.34375 0 1.9375 -0.796875q0.609375 -0.796875 0.609375 -2.328125q0 -1.578125 -0.65625 -2.3125q-0.640625 -0.734375 -2.0 -0.734375l-0.015625 0zm-2.5 12.21875q-0.75 0.921875 -0.75 2.21875q0 1.40625 0.828125 2.125q0.84375 0.734375 2.734375 0.734375l0.03125 0q1.046875 0 2.0 -0.328125q0.96875 -0.328125 1.5625 -0.984375q0.609375 -0.640625 0.609375 -1.53125q0 -0.75 -0.234375 -1.203125q-0.234375 -0.4375 -0.84375 -0.65625q-0.609375 -0.21875 -1.765625 -0.21875l-2.359375 0q-0.953125 0 -1.8125 -0.15625z" fill-rule="nonzero"></path><path fill="#f4cccc" d="m346.57336 396.80154l0 0c0 -15.081299 13.029572 -27.307098 29.102356 -27.307098l0 0c7.7184143 0 15.120728 2.8770142 20.57846 7.9980774c5.4577637 5.121063 8.523895 12.066742 8.523895 19.309021l0 0c0 15.081299 -13.029572 27.307098 -29.102356 27.307098l0 0c-16.072784 0 -29.102356 -12.2258 -29.102356 -27.307098z" fill-rule="nonzero"></path><path stroke="#000000" stroke-width="4.0" stroke-linejoin="round" stroke-linecap="butt" d="m346.57336 396.80154l0 0c0 -15.081299 13.029572 -27.307098 29.102356 -27.307098l0 0c7.7184143 0 15.120728 2.8770142 20.57846 7.9980774c5.4577637 5.121063 8.523895 12.066742 8.523895 19.309021l0 0c0 15.081299 -13.029572 27.307098 -29.102356 27.307098l0 0c-16.072784 0 -29.102356 -12.2258 -29.102356 -27.307098z" fill-rule="nonzero"></path><path fill="#000000" d="m376.80072 397.22156q-0.28125 0.265625 -0.734375 0.265625q-0.46875 0 -0.71875 -0.265625q-0.265625 -0.25 -0.265625 -0.71875q0 -0.453125 0.265625 -0.734375q0.265625 -0.25 0.71875 -0.25q0.453125 0 0.734375 0.25q0.25 0.28125 0.25 0.734375q0 0.453125 -0.25 0.71875zm-0.734375 2.53125q1.328125 0 2.3125 -1.015625q0.9375 -0.90625 0.9375 -2.234375q0 -1.328125 -0.9375 -2.25q-0.984375 -1.0 -2.3125 -1.0q-1.328125 0 -2.3125 1.0q-0.9375 0.921875 -0.9375 2.25q0 1.328125 0.9375 2.234375q0.984375 1.015625 2.3125 1.015625zm3.328125 -0.15625q-1.46875 1.453125 -3.328125 1.453125q-1.859375 0 -3.25 -1.375q-1.296875 -1.3125 -1.296875 -3.171875q0 -1.859375 1.21875 -3.109375q1.46875 -1.4375 3.328125 -1.4375q1.859375 0 3.25 1.375q1.296875 1.3125 1.296875 3.171875q0 1.859375 -1.21875 3.09375z" fill-rule="nonzero"></path><path fill="#000000" fill-opacity="0.0" d="m233.67908 466.3059c28.217651 0 42.325073 -17.37793 56.435303 -34.75589c14.1102295 -17.37796 28.223297 -34.75592 56.446594 -34.75592" fill-rule="nonzero"></path><path stroke="#000000" stroke-width="4.0" stroke-linejoin="round" stroke-linecap="butt" d="m233.67908 466.30594c28.217651 0 42.325073 -17.37796 56.435303 -34.75592c7.0551147 -8.688965 14.110931 -17.37793 22.930908 -23.894684c2.2049866 -1.6291809 4.520233 -3.1226196 6.973297 -4.446289c0.61325073 -0.33093262 1.2351379 -0.65127563 1.8660583 -0.9604492c0.3154602 -0.15460205 0.6331787 -0.30636597 0.95318604 -0.4553833l0.22756958 -0.10449219" fill-rule="evenodd"></path><path fill="#000000" stroke="#000000" stroke-width="4.0" stroke-linecap="butt" d="m324.4128 408.1568l16.423462 -10.170105l-19.118317 -2.7660217z" fill-rule="evenodd"></path><path fill="#000000" fill-opacity="0.0" d="m233.67908 330.86066c28.217651 0 42.325073 16.48819 56.435303 32.97638c14.1102295 16.48819 28.223297 32.97638 56.446594 32.97638" fill-rule="nonzero"></path><path stroke="#000000" stroke-width="4.0" stroke-linejoin="round" stroke-linecap="butt" d="m233.67908 330.86066c28.217651 0 42.325073 16.48819 56.435303 32.97638c7.0551147 8.24408 14.110931 16.48819 22.930908 22.671234c2.2049866 1.5457764 4.520233 2.962738 6.973297 4.218689c0.61325073 0.31396484 1.2351379 0.6178894 1.8660583 0.9112549c0.3154602 0.14663696 0.6331787 0.29071045 0.95318604 0.43203735l0.18075562 0.07876587" fill-rule="evenodd"></path><path fill="#000000" stroke="#000000" stroke-width="4.0" stroke-linecap="butt" d="m321.73456 398.62997l19.090302 -2.953064l-16.522186 -10.00885z" fill-rule="evenodd"></path><path fill="#000000" fill-opacity="0.0" d="m404.78036 125.92101c23.71106 0 35.56775 33.88189 47.42209 67.76379c11.854309 33.88188 23.706268 67.76378 47.412567 67.76378" fill-rule="nonzero"></path><path stroke="#000000" stroke-width="4.0" stroke-linejoin="round" stroke-linecap="butt" d="m404.7804 125.92101c23.71103 0 35.567688 33.88189 47.422028 67.76379c5.927185 16.940933 11.85376 33.88188 19.26181 46.587585c1.8520508 3.1764374 3.7966309 6.0881653 5.8569946 8.669006c0.25756836 0.32261658 0.51690674 0.6400299 0.7781372 0.9521942l0.29364014 0.34669495" fill-rule="evenodd"></path><path fill="#000000" stroke="#000000" stroke-width="4.0" stroke-linecap="butt" d="m475.3075 256.08246l19.13678 2.6351929l-12.965729 -14.319565z" fill-rule="evenodd"></path><path fill="#000000" fill-opacity="0.0" d="m404.77808 396.80154c23.711517 0 35.568665 -33.834656 47.423004 -67.66928c11.85434 -33.834656 23.70581 -67.66931 47.41165 -67.66931" fill-rule="nonzero"></path><path stroke="#000000" stroke-width="4.0" stroke-linejoin="round" stroke-linecap="butt" d="m404.7781 396.80154c23.711487 0 35.568634 -33.834625 47.422974 -67.66928c5.9271545 -16.917328 11.853638 -33.834656 19.261505 -46.522644c1.8519592 -3.171997 3.7965698 -6.079651 5.856842 -8.656891c0.25753784 -0.32217407 0.51690674 -0.63916016 0.7781067 -0.9508667l0.28829956 -0.3399048" fill-rule="evenodd"></path><path fill="#000000" stroke="#000000" stroke-width="4.0" stroke-linecap="butt" d="m481.46878 278.50552l12.972015 -14.313904l-19.13794 2.626831z" fill-rule="evenodd"></path><path fill="#f4cccc" d="m499.6062 261.45746l0 0c0 -15.081299 13.029602 -27.307098 29.102356 -27.307098l0 0c7.718445 0 15.120728 2.876999 20.578491 7.998062c5.4577637 5.1210785 8.523865 12.066742 8.523865 19.309036l0 0c0 15.081268 -13.029541 27.307068 -29.102356 27.307068l0 0c-16.072754 0 -29.102356 -12.2258 -29.102356 -27.307068z" fill-rule="nonzero"></path><path stroke="#000000" stroke-width="4.0" stroke-linejoin="round" stroke-linecap="butt" d="m499.6062 261.45746l0 0c0 -15.081299 13.029602 -27.307098 29.102356 -27.307098l0 0c7.718445 0 15.120728 2.876999 20.578491 7.998062c5.4577637 5.1210785 8.523865 12.066742 8.523865 19.309036l0 0c0 15.081268 -13.029541 27.307068 -29.102356 27.307068l0 0c-16.072754 0 -29.102356 -12.2258 -29.102356 -27.307068z" fill-rule="nonzero"></path><path fill="#000000" d="m534.9742 262.39307q0 0.15625 -0.109375 0.265625q-0.109375 0.109375 -0.265625 0.109375l-4.15625 0q-0.15625 0 -0.28125 0.125q-0.109375 0.109375 -0.109375 0.265625l0 4.140625q0 0.15625 -0.109375 0.28125q-0.109375 0.109375 -0.265625 0.109375l-1.609375 0q-0.15625 0 -0.265625 -0.109375q-0.109375 -0.125 -0.109375 -0.28125l0 -4.140625q0 -0.15625 -0.109375 -0.265625q-0.109375 -0.125 -0.265625 -0.125l-4.15625 0q-0.15625 0 -0.265625 -0.109375q-0.109375 -0.109375 -0.109375 -0.265625l0 -1.609375q0 -0.15625 0.109375 -0.265625q0.109375 -0.109375 0.265625 -0.109375l4.15625 0q0.15625 0 0.265625 -0.109375q0.109375 -0.109375 0.109375 -0.265625l0 -4.1562347q0 -0.15625 0.109375 -0.265625q0.109375 -0.125 0.265625 -0.125l1.609375 0q0.15625 0 0.265625 0.125q0.109375 0.109375 0.109375 0.265625l0 4.1562347q0 0.15625 0.109375 0.265625q0.125 0.109375 0.28125 0.109375l4.15625 0q0.15625 0 0.265625 0.109375q0.109375 0.109375 0.109375 0.265625l0 1.609375z" fill-rule="nonzero"></path><path fill="#d9ead3" d="m646.5214 261.46576l0 0c0 -21.34343 18.451477 -38.645676 41.212585 -38.645676l0 0c10.930298 0 21.412842 4.071579 29.141724 11.319046c7.728882 7.247467 12.070862 17.077148 12.070862 27.32663l0 0c0 21.343414 -18.451477 38.64566 -41.212585 38.64566l0 0c-22.761108 0 -41.212585 -17.302246 -41.212585 -38.64566z" fill-rule="nonzero"></path><path stroke="#000000" stroke-width="4.0" stroke-linejoin="round" stroke-linecap="butt" d="m646.5214 261.46576l0 0c0 -21.34343 18.451477 -38.645676 41.212585 -38.645676l0 0c10.930298 0 21.412842 4.071579 29.141724 11.319046c7.728882 7.247467 12.070862 17.077148 12.070862 27.32663l0 0c0 21.343414 -18.451477 38.64566 -41.212585 38.64566l0 0c-22.761108 0 -41.212585 -17.302246 -41.212585 -38.64566z" fill-rule="nonzero"></path><path fill="#000000" d="m685.9977 256.31824q1.6875 0 3.609375 0.71875l-0.125 3.609375l-1.625 0l-0.53125 -2.1875q-0.171875 -0.390625 -0.65625 -0.578125q-0.484375 -0.1875 -1.171875 -0.1875q-1.03125 0 -1.796875 0.578125q-0.75 0.5625 -1.171875 1.703125q-0.421875 1.125 -0.421875 2.78125q0 1.9375 0.5 3.21875q0.5 1.28125 1.359375 1.890625q0.875 0.609375 1.96875 0.609375q1.015625 0 1.875 -0.296875q0.875 -0.3125 1.484375 -0.734375l0.5 1.078125q-0.421875 0.421875 -1.125 0.828125q-0.703125 0.40625 -1.578125 0.65625q-0.875 0.265625 -1.75 0.265625q-1.984375 0 -3.359375 -0.875q-1.359375 -0.875 -2.046875 -2.40625q-0.6875 -1.53125 -0.6875 -3.484375q0 -2.0 0.765625 -3.625q0.78125 -1.640625 2.296875 -2.59375q1.53125 -0.96875 3.6875 -0.96875z" fill-rule="nonzero"></path><path fill="#000000" d="m691.1422 271.2401l0 -0.75q0.21875 -0.046875 0.5 -0.140625q0.28125 -0.109375 0.375 -0.171875q0.25 -0.1875 0.421875 -0.609375q0.109375 -0.265625 0.296875 -0.84375q0.203125 -0.578125 0.265625 -0.875l1.015625 0l0.015625 2.265625l2.625 0l0 1.125l-2.609375 0l0 4.71875q0 0.953125 0.046875 1.328125q0.0625 0.375 0.21875 0.484375q0.171875 0.09375 0.625 0.09375l0 0q0.40625 0 0.921875 -0.09375q0.515625 -0.109375 0.796875 -0.21875l0 0l0.265625 0.765625q-0.234375 0.1875 -0.703125 0.390625q-0.46875 0.203125 -1.015625 0.328125q-0.53125 0.140625 -0.984375 0.140625l-0.015625 0q-0.96875 0 -1.46875 -0.421875q-0.484375 -0.4375 -0.484375 -1.4375l0 -6.078125l-1.109375 0z" fill-rule="nonzero"></path><path fill="#000000" fill-opacity="0.0" d="m557.8109 261.45746c22.177124 0 33.26367 0.01574707 44.354248 0.03149414c11.090576 0.01574707 22.18512 0.03149414 44.37018 0.03149414" fill-rule="nonzero"></path><path stroke="#000000" stroke-width="4.0" stroke-linejoin="round" stroke-linecap="butt" d="m557.8109 261.45746c22.177124 0 33.26367 0.01574707 44.354248 0.03149414c5.545288 0.007873535 11.091553 0.01574707 18.024658 0.021636963l2.34552 0.0014343262" fill-rule="evenodd"></path><path fill="#000000" stroke="#000000" stroke-width="4.0" stroke-linecap="butt" d="m622.533 268.11896l18.154724 -6.6005554l-18.150085 -6.6132965z" fill-rule="evenodd"></path><path fill="#000000" fill-opacity="0.0" d="m728.9466 261.46576c22.0 0 33.0 -16.937012 44.0 -33.874023c11.0 -16.937012 22.0 -33.874023 44.0 -33.874023" fill-rule="nonzero"></path><path stroke="#000000" stroke-width="4.0" stroke-linejoin="round" stroke-linecap="butt" d="m728.9466 261.46576c22.0 0 33.0 -16.937012 44.0 -33.874023c5.5 -8.468506 11.0 -16.936996 17.875 -23.288376c0.85931396 -0.79393005 1.7402344 -1.554779 2.6452637 -2.2784119c0.22631836 -0.18089294 0.45410156 -0.35946655 0.6833496 -0.53567505l0.07110596 -0.05404663" fill-rule="evenodd"></path><path fill="#000000" stroke="#000000" stroke-width="4.0" stroke-linecap="butt" d="m796.3458 207.69125l15.063721 -12.093155l-19.312805 -0.41888428z" fill-rule="evenodd"></path><path fill="#f4cccc" d="m817.66864 319.90665l0 0c0 -15.081299 20.700623 -27.307098 46.236206 -27.307098l0 0c25.535583 0 46.236206 12.2258 46.236206 27.307098l0 0c0 15.081268 -20.700623 27.307068 -46.236206 27.307068l0 0c-25.535583 0 -46.236206 -12.2258 -46.236206 -27.307068z" fill-rule="nonzero"></path><path stroke="#000000" stroke-width="4.0" stroke-linejoin="round" stroke-linecap="butt" d="m817.66864 319.90665l0 0c0 -15.081299 20.700623 -27.307098 46.236206 -27.307098l0 0c25.535583 0 46.236206 12.2258 46.236206 27.307098l0 0c0 15.081268 -20.700623 27.307068 -46.236206 27.307068l0 0c-25.535583 0 -46.236206 -12.2258 -46.236206 -27.307068z" fill-rule="nonzero"></path><path fill="#000000" d="m843.04767 317.76413l0 -0.859375q0.25 -0.0625 0.578125 -0.171875q0.34375 -0.125 0.4375 -0.1875q0.3125 -0.21875 0.5 -0.71875q0.140625 -0.3125 0.359375 -0.984375q0.21875 -0.671875 0.296875 -1.03125l1.1875 0l0.015625 2.65625l3.0625 0l0 1.296875l-3.046875 0l0 5.515625q0 1.109375 0.0625 1.546875q0.0625 0.4375 0.25 0.5625q0.203125 0.109375 0.71875 0.109375l0.015625 0q0.46875 0 1.0625 -0.109375q0.609375 -0.125 0.9375 -0.25l0 0l0.3125 0.890625q-0.265625 0.21875 -0.8125 0.453125q-0.546875 0.234375 -1.1875 0.390625q-0.625 0.15625 -1.15625 0.15625l-0.015625 0q-1.125 0 -1.703125 -0.5q-0.578125 -0.5 -0.578125 -1.65625l0 -7.109375l-1.296875 0zm13.862976 2.296875q0 -0.859375 -0.1875 -1.34375q-0.171875 -0.5 -0.609375 -0.71875q-0.4375 -0.234375 -1.234375 -0.234375q-1.53125 0 -3.234375 0.859375l-0.015625 0l-0.453125 -0.9375q0.25 -0.21875 0.9375 -0.5625q0.703125 -0.359375 1.59375 -0.609375q0.890625 -0.265625 1.6875 -0.265625q1.328125 0 2.078125 0.359375q0.765625 0.359375 1.09375 1.15625q0.34375 0.796875 0.34375 2.140625l0 5.921875l1.125 0l0 0.890625q-1.34375 0.3125 -2.015625 0.3125q-0.375 0 -0.578125 -0.0625q-0.203125 -0.0625 -0.296875 -0.25q-0.09375 -0.203125 -0.09375 -0.609375l0 -0.4375q-0.5 0.484375 -1.296875 0.921875q-0.796875 0.4375 -1.796875 0.4375q-0.875 0 -1.59375 -0.3125q-0.703125 -0.3125 -1.125 -0.984375q-0.421875 -0.671875 -0.421875 -1.65625q0 -1.21875 0.828125 -2.0q0.84375 -0.78125 2.21875 -1.140625q1.375 -0.375 3.046875 -0.40625l0 -0.46875zm0 1.5q-1.34375 0 -2.203125 0.3125q-0.859375 0.296875 -1.25 0.796875q-0.375 0.5 -0.375 1.140625q0 0.953125 0.46875 1.40625q0.46875 0.4375 1.28125 0.4375q0.421875 0 1.03125 -0.234375q0.609375 -0.25 1.046875 -0.59375l0 -3.265625zm5.7077026 4.125l0 -7.640625l-1.3125 -0.359375l0 -1.09375l2.703125 -0.375l0.046875 0l0.421875 0.359375l0 0.734375l0 0.421875q0.421875 -0.375 1.046875 -0.71875q0.640625 -0.34375 1.359375 -0.5625q0.71875 -0.21875 1.375 -0.21875q1.1875 0 1.828125 0.453125q0.640625 0.4375 0.890625 1.359375q0.265625 0.90625 0.265625 2.484375l0 5.15625l1.3125 0.140625l0 1.0l-4.578125 0l0 -1.0l1.171875 -0.140625l0 -5.15625q0 -1.0625 -0.140625 -1.671875q-0.140625 -0.609375 -0.53125 -0.90625q-0.390625 -0.3125 -1.15625 -0.3125q-0.65625 0 -1.375 0.28125q-0.703125 0.28125 -1.25 0.6875l0 7.078125l1.265625 0.140625l0 1.0l-4.546875 0l0 -1.0l1.203125 -0.140625zm12.306824 0l0 -12.71875l-1.5 -0.171875l0 -0.875l3.078125 -0.390625l0.046875 0l0.4375 0.3125l0.015625 4.21875l-0.078125 1.640625q0.609375 -0.546875 1.609375 -1.0q1.0 -0.46875 2.0625 -0.46875q1.171875 0 1.8125 0.453125q0.65625 0.4375 0.90625 1.359375q0.265625 0.921875 0.265625 2.484375l0 5.15625l1.3125 0.140625l0 1.0l-4.578125 0l0 -0.984375l1.1875 -0.15625l0 -5.15625q0 -1.0625 -0.140625 -1.671875q-0.140625 -0.609375 -0.546875 -0.90625q-0.390625 -0.3125 -1.171875 -0.3125q-0.65625 0 -1.375 0.28125q-0.71875 0.265625 -1.265625 0.671875l0 7.09375l1.296875 0.140625l0 1.0l-4.46875 0l0 -1.0l1.09375 -0.140625z" fill-rule="nonzero"></path><path fill="#000000" fill-opacity="0.0" d="m728.9466 261.46576c22.18512 0 33.279663 14.606293 44.37024 29.212585c11.090515 14.606293 22.177063 29.212616 44.354187 29.212616" fill-rule="nonzero"></path><path stroke="#000000" stroke-width="4.0" stroke-linejoin="round" stroke-linecap="butt" d="m728.9466 261.46576c22.18512 0 33.279602 14.606293 44.37018 29.212585c5.545288 7.3031616 11.089539 14.606323 18.019653 20.08368c0.866272 0.68466187 1.7542114 1.3408203 2.6664429 1.9648438l0.633667 0.4249878" fill-rule="evenodd"></path><path fill="#000000" stroke="#000000" stroke-width="4.0" stroke-linecap="butt" d="m792.7814 319.49298l19.277283 -1.2440186l-15.566895 -11.438202z" fill-rule="evenodd"></path><path fill="#fce5cd" d="m822.7009 458.80075l0 0c0 -23.317719 18.444458 -42.22049 41.1969 -42.22049l0 0c10.926086 0 21.404663 4.448242 29.130554 12.366089c7.725891 7.917877 12.066284 18.65683 12.066284 29.8544l0 0c0 23.317719 -18.444458 42.22046 -41.19684 42.22046l0 0c-22.752441 0 -41.1969 -18.90274 -41.1969 -42.22046z" fill-rule="nonzero"></path><path stroke="#000000" stroke-width="4.0" stroke-linejoin="round" stroke-linecap="butt" d="m822.7009 458.80075l0 0c0 -23.317719 18.444458 -42.22049 41.1969 -42.22049l0 0c10.926086 0 21.404663 4.448242 29.130554 12.366089c7.725891 7.917877 12.066284 18.65683 12.066284 29.8544l0 0c0 23.317719 -18.444458 42.22046 -41.19684 42.22046l0 0c-22.752441 0 -41.1969 -18.90274 -41.1969 -42.22046z" fill-rule="nonzero"></path><path fill="#000000" d="m864.04236 453.65326q2.03125 0 3.390625 0.90625q1.359375 0.890625 2.015625 2.46875q0.65625 1.578125 0.65625 3.609375q0 2.171875 -0.890625 3.75q-0.890625 1.578125 -2.359375 2.40625q-1.453125 0.8125 -3.109375 0.8125q-2.03125 0 -3.390625 -0.890625q-1.359375 -0.90625 -2.015625 -2.484375q-0.65625 -1.578125 -0.65625 -3.609375q0 -2.140625 0.890625 -3.71875q0.90625 -1.59375 2.359375 -2.421875q1.46875 -0.828125 3.109375 -0.828125zm3.109375 7.1875q0 -2.625 -0.78125 -4.171875q-0.78125 -1.5625 -2.46875 -1.5625q-1.625 0 -2.453125 1.328125q-0.8125 1.328125 -0.8125 3.984375q0 2.625 0.796875 4.1875q0.796875 1.546875 2.46875 1.546875q3.25 0 3.25 -5.3125z" fill-rule="nonzero"></path><path fill="#f4cccc" d="m1002.9635 389.26907l0 0c0 -15.081299 13.029602 -27.307098 29.102417 -27.307098l0 0c7.718384 0 15.120728 2.8770142 20.57837 7.9980774c5.4577637 5.121063 8.523926 12.066742 8.523926 19.309021l0 0c0 15.081299 -13.029541 27.307098 -29.102295 27.307098l0 0c-16.072815 0 -29.102417 -12.2258 -29.102417 -27.307098z" fill-rule="nonzero"></path><path stroke="#000000" stroke-width="4.0" stroke-linejoin="round" stroke-linecap="butt" d="m1002.9635 389.26907l0 0c0 -15.081299 13.029602 -27.307098 29.102417 -27.307098l0 0c7.718384 0 15.120728 2.8770142 20.57837 7.9980774c5.4577637 5.121063 8.523926 12.066742 8.523926 19.309021l0 0c0 15.081299 -13.029541 27.307098 -29.102295 27.307098l0 0c-16.072815 0 -29.102417 -12.2258 -29.102417 -27.307098z" fill-rule="nonzero"></path><path fill="#000000" d="m1033.1909 389.68906q-0.28125 0.265625 -0.734375 0.265625q-0.46875 0 -0.71875 -0.265625q-0.265625 -0.25 -0.265625 -0.71875q0 -0.453125 0.265625 -0.734375q0.265625 -0.25 0.71875 -0.25q0.453125 0 0.734375 0.25q0.25 0.28125 0.25 0.734375q0 0.453125 -0.25 0.71875zm-0.734375 2.53125q1.328125 0 2.3125 -1.015625q0.9375 -0.90625 0.9375 -2.234375q0 -1.328125 -0.9375 -2.25q-0.984375 -1.0 -2.3125 -1.0q-1.328125 0 -2.3125 1.0q-0.9375 0.921875 -0.9375 2.25q0 1.328125 0.9375 2.234375q0.984375 1.015625 2.3125 1.015625zm3.328125 -0.15625q-1.46875 1.453125 -3.328125 1.453125q-1.859375 0 -3.25 -1.375q-1.296875 -1.3125 -1.296875 -3.171875q0 -1.859375 1.21875 -3.109375q1.46875 -1.4375 3.328125 -1.4375q1.859375 0 3.25 1.375q1.296875 1.3125 1.296875 3.171875q0 1.859375 -1.21875 3.09375z" fill-rule="nonzero"></path><path fill="#000000" fill-opacity="0.0" d="m910.14105 319.90665c23.203796 0 34.805237 17.338562 46.407593 34.677155c11.602356 17.338593 23.205688 34.677155 46.411316 34.677155" fill-rule="nonzero"></path><path stroke="#000000" stroke-width="4.0" stroke-linejoin="round" stroke-linecap="butt" d="m910.14105 319.90665c23.203857 0 34.805237 17.338562 46.407593 34.677124c5.8011475 8.669312 11.6026 17.338593 18.854431 23.840576c0.90649414 0.81274414 1.8356323 1.5916138 2.7902222 2.332428c0.477417 0.37036133 0.9610596 0.7312622 1.451477 1.0820618c0.12261963 0.087677 0.2456665 0.17477417 0.3690796 0.26119995l0.032348633 0.022369385" fill-rule="evenodd"></path><path fill="#000000" stroke="#000000" stroke-width="4.0" stroke-linecap="butt" d="m978.08105 388.43033l19.29596 -0.9086914l-15.365662 -11.707123z" fill-rule="evenodd"></path><path fill="#000000" fill-opacity="0.0" d="m905.09467 458.80075c24.463562 0 36.694885 -17.385834 48.927185 -34.771667c12.232239 -17.385803 24.465515 -34.771637 48.93109 -34.771637" fill-rule="nonzero"></path><path stroke="#000000" stroke-width="4.0" stroke-linejoin="round" stroke-linecap="butt" d="m905.09467 458.80072c24.463562 0 36.694885 -17.385803 48.927124 -34.771637c6.11615 -8.692932 12.232544 -17.385834 19.878174 -23.905518c0.95562744 -0.8149719 1.9351807 -1.5959778 2.9416504 -2.3387756c0.5032959 -0.37139893 1.0131836 -0.73324585 1.5302734 -1.085022c0.25854492 -0.1758728 0.5187988 -0.34924316 0.7809448 -0.52001953c0.13104248 -0.08538818 0.2625122 -0.17016602 0.3944702 -0.25421143l0.29718018 -0.18722534" fill-rule="evenodd"></path><path fill="#000000" stroke="#000000" stroke-width="4.0" stroke-linecap="butt" d="m981.62866 402.0998l15.693909 -11.263306l-19.262146 -1.4596558z" fill-rule="evenodd"></path><path fill="#d9ead3" d="m1159.0282 389.27762l0 0c0 -23.317719 18.444458 -42.22046 41.196777 -42.22046l0 0c10.926147 0 21.404663 4.4482117 29.130615 12.366089c7.725952 7.917877 12.066284 18.6568 12.066284 29.85437l0 0c0 23.317719 -18.444458 42.22049 -41.1969 42.22049l0 0c-22.75232 0 -41.196777 -18.902771 -41.196777 -42.22049z" fill-rule="nonzero"></path><path stroke="#000000" stroke-width="4.0" stroke-linejoin="round" stroke-linecap="butt" d="m1159.0282 389.27762l0 0c0 -23.317719 18.444458 -42.22046 41.196777 -42.22046l0 0c10.926147 0 21.404663 4.4482117 29.130615 12.366089c7.725952 7.917877 12.066284 18.6568 12.066284 29.85437l0 0c0 23.317719 -18.444458 42.22049 -41.1969 42.22049l0 0c-22.75232 0 -41.196777 -18.902771 -41.196777 -42.22049z" fill-rule="nonzero"></path><path fill="#000000" d="m1191.475 396.34888l0 -16.359375l-1.9375 -0.234375l0 -1.109375l3.96875 -0.5l0.0625 0l0.5625 0.390625l0.015625 5.4375l-0.109375 2.09375q0.796875 -0.703125 2.078125 -1.28125q1.296875 -0.59375 2.65625 -0.59375q1.5 0 2.328125 0.578125q0.84375 0.5625 1.171875 1.75q0.34375 1.1875 0.34375 3.203125l0 6.609375l1.6875 0.203125l0 1.28125l-5.890625 0l0 -1.265625l1.53125 -0.203125l0 -6.640625q0 -1.359375 -0.1875 -2.140625q-0.171875 -0.78125 -0.6875 -1.171875q-0.515625 -0.390625 -1.515625 -0.390625q-0.84375 0 -1.765625 0.34375q-0.921875 0.34375 -1.625 0.875l0 9.109375l1.65625 0.203125l0 1.28125l-5.75 0l0 -1.28125l1.40625 -0.1875z" fill-rule="nonzero"></path><path fill="#000000" d="m1205.4437 399.052l0 -0.75q0.21875 -0.046875 0.5 -0.140625q0.28125 -0.109375 0.375 -0.171875q0.25 -0.1875 0.421875 -0.609375q0.109375 -0.265625 0.296875 -0.84375q0.203125 -0.578125 0.265625 -0.875l1.015625 0l0.015625 2.265625l2.625 0l0 1.125l-2.609375 0l0 4.71875q0 0.953125 0.046875 1.328125q0.0625 0.375 0.21875 0.484375q0.171875 0.09375 0.625 0.09375l0 0q0.40625 0 0.921875 -0.09375q0.515625 -0.109375 0.796875 -0.21875l0 0l0.265625 0.765625q-0.234375 0.1875 -0.703125 0.390625q-0.46875 0.203125 -1.015625 0.328125q-0.53125 0.140625 -0.984375 0.140625l-0.015625 0q-0.96875 0 -1.46875 -0.421875q-0.484375 -0.4375 -0.484375 -1.4375l0 -6.078125l-1.109375 0z" fill-rule="nonzero"></path><path fill="#000000" fill-opacity="0.0" d="m1061.1682 389.26907c24.464111 0 36.695923 0.01574707 48.928223 0.03149414c12.232178 0.01574707 24.464966 0.03149414 48.930054 0.03149414" fill-rule="nonzero"></path><path stroke="#000000" stroke-width="4.0" stroke-linejoin="round" stroke-linecap="butt" d="m1061.1682 389.26907c24.464111 0 36.695923 0.01574707 48.928223 0.03149414c6.116089 0.007873535 12.2323 0.01574707 19.877686 0.021636963l5.052368 0.0028381348" fill-rule="evenodd"></path><path fill="#000000" stroke="#000000" stroke-width="4.0" stroke-linecap="butt" d="m1135.0245 395.93198l18.154297 -6.6016235l-18.15039 -6.6122437z" fill-rule="evenodd"></path></g></svg>

