<?xml version="1.0" standalone="yes"?>

<svg version="1.1" viewBox="0.0 0.0 100.0 100.0" fill="none" stroke="none" stroke-linecap="square" stroke-miterlimit="10" xmlns="http://www.w3.org/2000/svg" xmlns:xlink="http://www.w3.org/1999/xlink"><clipPath id="p.0"><path d="m0 0l100.0 0l0 100.0l-100.0 0l0 -100.0z" clip-rule="nonzero"></path></clipPath><g clip-path="url(#p.0)"><path fill="#000000" fill-opacity="0.0" d="m0 0l100.0 0l0 100.0l-100.0 0z" fill-rule="nonzero"></path><path fill="#000000" fill-opacity="0.0" d="m0 0l100.0 0l0 100.0l-100.0 0z" fill-rule="nonzero"></path><path fill="#000000" d="m51.038513 71.88l-11.125 0l-14.484375 -24.71875l0 24.71875l-11.078125 0l0 -45.25l11.125 0l14.484375 24.75l0 -24.75l11.078125 0l0 45.25zm41.28157 -45.25l-14.859375 45.25l-10.390625 0l-14.796875 -45.25l12.390625 0l7.578125 25.375l7.625 -25.375l12.453125 0z" fill-rule="nonzero"></path></g></svg>

